<?xml version="1.0" encoding="UTF-8"?>
<svg width="293px" height="318px" viewBox="0 0 293 318" version="1.1" xmlns="http://www.w3.org/2000/svg" xmlns:xlink="http://www.w3.org/1999/xlink">
    <!-- Generator: Sketch 60 (88103) - https://sketch.com -->
    <title>bill_iconNOBG</title>
    <desc>Created with Sketch.</desc>
    <defs>
        <path d="M93.0133278,0 L79.0755508,0 C77.6177732,0 76.4088843,1.20888882 76.4088843,2.66666651 L76.4088843,7.96444397 C76.4088843,9.35111055 75.2711066,10.4888883 73.88444,10.4888883 C72.4977735,10.4888883 71.3599957,9.35111055 71.3599957,7.96444397 L71.3599957,2.66666651 C71.3599957,1.20888882 70.1511069,0 68.6933292,0 L53.9733301,0 C52.5155524,0 51.3066636,1.20888882 51.3066636,2.66666651 L51.3066636,7.96444397 C51.3066636,9.35111055 50.1688859,10.4888883 48.7822193,10.4888883 L47.5733305,10.4888883 C46.1866639,10.4888883 45.0488862,9.35111055 45.0488862,7.96444397 L45.0488862,3.0577776 C45.0488862,1.5999999 43.8399974,0.391111088 42.3822197,0.391111088 L29.6533316,0.391111088 C28.1955539,0.391111088 26.9866651,1.5999999 26.9866651,3.0577776 L26.9866651,7.96444397 C26.9866651,9.35111055 25.8488873,10.4888883 24.4622208,10.4888883 L22.8622209,10.4888883 C21.4755543,10.4888883 20.3377766,9.35111055 20.3377766,7.96444397 L20.3377766,3.0577776 C20.3377766,1.5999999 19.1288877,0.391111088 17.6711101,0.391111088 L2.95111094,0.391111088 C1.49333324,0.391111088 0.284444427,1.5999999 0.284444427,3.0577776 L0.284444427,120.711104 C0.284444427,122.168882 1.49333324,123.37777 2.95111094,123.37777 L17.6711101,123.37777 C19.1288877,123.37777 20.3377766,122.168882 20.3377766,120.711104 L20.3377766,115.804438 C20.3377766,114.417771 21.4755543,113.279993 22.8622209,113.279993 L24.4622208,113.279993 C25.8488873,113.279993 26.9866651,114.417771 26.9866651,115.804438 L26.9866651,120.711104 C26.9866651,122.168882 28.1955539,123.37777 29.6533316,123.37777 L42.3822197,123.37777 C43.8399974,123.37777 45.0488862,122.168882 45.0488862,120.711104 L45.0488862,115.804438 C45.0488862,114.417771 46.1866639,113.279993 47.5733305,113.279993 L48.7822193,113.279993 C50.1688859,113.279993 51.3066636,114.417771 51.3066636,115.804438 L51.3066636,121.102215 C51.3066636,122.559993 52.5155524,123.768882 53.9733301,123.768882 L68.6933292,123.768882 C70.1511069,123.768882 71.3599957,122.559993 71.3599957,121.102215 L71.3599957,115.804438 C71.3599957,114.417771 72.4977735,113.279993 73.88444,113.279993 C75.2711066,113.279993 76.4088843,114.417771 76.4088843,115.804438 L76.4088843,121.102215 C76.4088843,122.559993 77.6177732,123.768882 79.0755508,123.768882 L93.0133278,123.768882 C94.4711055,123.768882 95.6799943,122.559993 95.6799943,121.102215 L95.6799943,2.66666651 C95.6799943,1.20888882 94.4711055,0 93.0133278,0 Z" id="path-1"></path>
        <filter x="-183.4%" y="-101.0%" width="466.9%" height="382.8%" filterUnits="objectBoundingBox" id="filter-2">
            <feOffset dx="0" dy="50" in="SourceAlpha" result="shadowOffsetOuter1"></feOffset>
            <feGaussianBlur stdDeviation="50" in="shadowOffsetOuter1" result="shadowBlurOuter1"></feGaussianBlur>
            <feColorMatrix values="0 0 0 0 0.196078431   0 0 0 0 0.196078431   0 0 0 0 0.364705882  0 0 0 0.1 0" type="matrix" in="shadowBlurOuter1" result="shadowMatrixOuter1"></feColorMatrix>
            <feOffset dx="0" dy="15" in="SourceAlpha" result="shadowOffsetOuter2"></feOffset>
            <feGaussianBlur stdDeviation="17.5" in="shadowOffsetOuter2" result="shadowBlurOuter2"></feGaussianBlur>
            <feColorMatrix values="0 0 0 0 0.196078431   0 0 0 0 0.196078431   0 0 0 0 0.364705882  0 0 0 0.15 0" type="matrix" in="shadowBlurOuter2" result="shadowMatrixOuter2"></feColorMatrix>
            <feOffset dx="0" dy="5" in="SourceAlpha" result="shadowOffsetOuter3"></feOffset>
            <feGaussianBlur stdDeviation="7.5" in="shadowOffsetOuter3" result="shadowBlurOuter3"></feGaussianBlur>
            <feColorMatrix values="0 0 0 0 0   0 0 0 0 0   0 0 0 0 0.101960784  0 0 0 0.1 0" type="matrix" in="shadowBlurOuter3" result="shadowMatrixOuter3"></feColorMatrix>
            <feMerge>
                <feMergeNode in="shadowMatrixOuter1"></feMergeNode>
                <feMergeNode in="shadowMatrixOuter2"></feMergeNode>
                <feMergeNode in="shadowMatrixOuter3"></feMergeNode>
            </feMerge>
        </filter>
    </defs>
    <g id="general-styling-and-website-material" stroke="none" stroke-width="1" fill="none" fill-rule="evenodd">
        <g id="Artboard-9-Copy" transform="translate(-1672.000000, -156.000000)">
            <g id="bill_iconNOBG" transform="translate(1770.000000, 203.000000)">
                <g id="Shape">
                    <use fill="black" fill-opacity="1" filter="url(#filter-2)" xlink:href="#path-1"></use>
                    <use fill="#7ED321" fill-rule="evenodd" xlink:href="#path-1"></use>
                </g>
                <path d="M57.2799966,28.266665 L16.6755546,28.266665 C15.2177769,28.266665 14.0088881,29.4755538 14.0088881,30.9333315 C14.0088881,32.3911092 15.2177769,33.599998 16.6755546,33.599998 L57.3155521,33.599998 C58.7733298,33.599998 59.9822186,32.3911092 59.9822186,30.9333315 C59.9822186,29.4755538 58.7733298,28.266665 57.2799966,28.266665 Z" id="Path" fill="#FFFFFF" fill-rule="nonzero"></path>
                <path d="M79.3244397,28.266665 L70.5777736,28.266665 C69.1199959,28.266665 67.9111071,29.4755538 67.9111071,30.9333315 C67.9111071,32.3911092 69.1199959,33.599998 70.5777736,33.599998 L79.3244397,33.599998 C80.7822174,33.599998 81.9911062,32.3911092 81.9911062,30.9333315 C81.9911062,29.4755538 80.817773,28.266665 79.3244397,28.266665 Z" id="Path" fill="#FFFFFF" fill-rule="nonzero"></path>
                <path d="M57.2799966,45.2622195 L16.6755546,45.2622195 C15.2177769,45.2622195 14.0088881,46.4711083 14.0088881,47.928886 C14.0088881,49.3866637 15.2177769,50.5955525 16.6755546,50.5955525 L57.3155521,50.5955525 C58.7733298,50.5955525 59.9822186,49.3866637 59.9822186,47.928886 C59.9822186,46.4711083 58.7733298,45.2622195 57.2799966,45.2622195 Z" id="Path" fill="#FFFFFF" fill-rule="nonzero"></path>
                <path d="M70.5777736,50.5955525 L79.3244397,50.5955525 C80.7822174,50.5955525 81.9911062,49.3866637 81.9911062,47.928886 C81.9911062,46.4711083 80.7822174,45.2622195 79.3244397,45.2622195 L70.5777736,45.2622195 C69.1199959,45.2622195 67.9111071,46.4711083 67.9111071,47.928886 C67.9111071,49.3866637 69.0844403,50.5955525 70.5777736,50.5955525 Z" id="Path" fill="#FFFFFF" fill-rule="nonzero"></path>
                <path d="M57.2799966,62.2577741 L16.6755546,62.2577741 C15.2177769,62.2577741 14.0088881,63.4666629 14.0088881,64.9244406 C14.0088881,66.3822183 15.2177769,67.5911071 16.6755546,67.5911071 L57.3155521,67.5911071 C58.7733298,67.5911071 59.9822186,66.3822183 59.9822186,64.9244406 C59.9822186,63.4666629 58.7733298,62.2577741 57.2799966,62.2577741 Z" id="Path" fill="#FFFFFF" fill-rule="nonzero"></path>
                <path d="M70.5777736,67.5911071 L79.3244397,67.5911071 C80.7822174,67.5911071 81.9911062,66.3822183 81.9911062,64.9244406 C81.9911062,63.4666629 80.7822174,62.2577741 79.3244397,62.2577741 L70.5777736,62.2577741 C69.1199959,62.2577741 67.9111071,63.4666629 67.9111071,64.9244406 C67.9111071,66.3822183 69.0844403,67.5911071 70.5777736,67.5911071 Z" id="Path" fill="#FFFFFF" fill-rule="nonzero"></path>
                <path d="M75.6266622,80.4622174 C78.3644398,80.4622174 80.1422174,81.3511063 81.1377729,81.7777729 L82.2399951,77.4399954 C80.9599952,76.835551 79.2533286,76.3022177 76.6933288,76.195551 L76.6933288,72.8177734 L72.9599957,72.8177734 L72.9599957,76.4444399 C68.871107,77.2622176 66.4888849,79.8933286 66.4888849,83.2355506 C66.4888849,86.9333282 69.2977736,88.853328 73.3866623,90.2399946 C76.2311066,91.1999946 77.4399954,92.124439 77.4399954,93.5822166 C77.4399954,95.1111054 75.9466621,95.9644387 73.7777734,95.9644387 C71.2888846,95.9644387 69.0488848,95.146661 67.4133293,94.2933277 L66.2755516,98.7733274 C67.7333293,99.6266607 70.222218,100.302216 72.7822179,100.408883 L72.7822179,104.035549 L76.515551,104.035549 L76.515551,100.124438 C80.9244396,99.3422163 83.3066617,96.4622165 83.3066617,93.0488833 C83.3066617,89.5999947 81.4577729,87.502217 76.9066621,85.9022171 C73.6711067,84.6933283 72.3199957,83.8755506 72.3199957,82.6311062 C72.3555512,81.528884 73.1377734,80.4622174 75.6266622,80.4622174 Z" id="Path" fill="#FFFFFF" fill-rule="nonzero"></path>
            </g>
        </g>
    </g>
</svg>