<?xml version="1.0" encoding="UTF-8"?>
<svg width="245px" height="188px" viewBox="0 0 245 188" version="1.1" xmlns="http://www.w3.org/2000/svg" xmlns:xlink="http://www.w3.org/1999/xlink">
    <!-- Generator: Sketch 60 (88103) - https://sketch.com -->
    <title>Group 2</title>
    <desc>Created with Sketch.</desc>
    <g id="general-styling-and-website-material" stroke="none" stroke-width="1" fill="none" fill-rule="evenodd">
        <g id="Artboard-9-Copy" transform="translate(-1701.000000, -151.000000)">
            <g id="Group-2" transform="translate(1699.000000, 150.000000)">
                <g id="bill_iconNOBG-Copy" transform="translate(79.000000, 90.500000) rotate(-15.000000) translate(-79.000000, -90.500000) translate(19.000000, 13.000000)">
                    <path d="M116.26666,0 L98.8444386,0 C97.0222164,0 95.5111054,1.51111102 95.5111054,3.33333313 L95.5111054,9.95555496 C95.5111054,11.6888882 94.0888833,13.1111103 92.3555555,13.1111103 C90.6222168,13.1111103 89.1999947,11.6888882 89.1999947,9.95555496 L89.1999947,3.33333313 C89.1999947,1.51111102 87.6888837,0 85.8666615,0 L67.4666626,0 C65.6444405,0 64.1333295,1.51111102 64.1333295,3.33333313 L64.1333295,9.95555496 C64.1333295,11.6888882 62.7111074,13.1111103 60.9777741,13.1111103 L59.4666631,13.1111103 C57.7333299,13.1111103 56.3111078,11.6888882 56.3111078,9.95555496 L56.3111078,3.82222199 C56.3111078,2 54.7999967,0.48888886 52.9777746,0.48888886 L37.0666645,0.48888886 C35.2444423,0.48888886 33.7333313,2 33.7333313,3.82222199 L33.7333313,9.95555496 C33.7333313,11.6888882 32.3111092,13.1111103 30.577776,13.1111103 L28.5777761,13.1111103 C26.8444428,13.1111103 25.4222207,11.6888882 25.4222207,9.95555496 L25.4222207,3.82222199 C25.4222207,2 23.9111097,0.48888886 22.0888876,0.48888886 L3.68888867,0.48888886 C1.86666656,0.48888886 0.355555534,2 0.355555534,3.82222199 L0.355555534,150.88888 C0.355555534,152.711102 1.86666656,154.222213 3.68888867,154.222213 L22.0888876,154.222213 C23.9111097,154.222213 25.4222207,152.711102 25.4222207,150.88888 L25.4222207,144.755547 C25.4222207,143.022214 26.8444428,141.599992 28.5777761,141.599992 L30.577776,141.599992 C32.3111092,141.599992 33.7333313,143.022214 33.7333313,144.755547 L33.7333313,150.88888 C33.7333313,152.711102 35.2444423,154.222213 37.0666645,154.222213 L52.9777746,154.222213 C54.7999967,154.222213 56.3111078,152.711102 56.3111078,150.88888 L56.3111078,144.755547 C56.3111078,143.022214 57.7333299,141.599992 59.4666631,141.599992 L60.9777741,141.599992 C62.7111074,141.599992 64.1333295,143.022214 64.1333295,144.755547 L64.1333295,151.377769 C64.1333295,153.199991 65.6444405,154.711102 67.4666626,154.711102 L85.8666615,154.711102 C87.6888837,154.711102 89.1999947,153.199991 89.1999947,151.377769 L89.1999947,144.755547 C89.1999947,143.022214 90.6222168,141.599992 92.3555555,141.599992 C94.0888833,141.599992 95.5111054,143.022214 95.5111054,144.755547 L95.5111054,151.377769 C95.5111054,153.199991 97.0222164,154.711102 98.8444386,154.711102 L116.26666,154.711102 C118.088882,154.711102 119.599993,153.199991 119.599993,151.377769 L119.599993,3.33333313 C119.599993,1.51111102 118.088882,0 116.26666,0 Z" id="Shape" fill="#B8E986"></path>
                    <path d="M71.5999957,35.3333312 L20.8444432,35.3333312 C19.0222211,35.3333312 17.5111101,36.8444422 17.5111101,38.6666644 C17.5111101,40.4888865 19.0222211,41.9999975 20.8444432,41.9999975 L71.6444402,41.9999975 C73.4666623,41.9999975 74.9777733,40.4888865 74.9777733,38.6666644 C74.9777733,36.8444422 73.4666623,35.3333312 71.5999957,35.3333312 Z" id="Path" fill="#FFFFFF" fill-rule="nonzero"></path>
                    <path d="M99.1555496,35.3333312 L88.222217,35.3333312 C86.3999949,35.3333312 84.8888838,36.8444422 84.8888838,38.6666644 C84.8888838,40.4888865 86.3999949,41.9999975 88.222217,41.9999975 L99.1555496,41.9999975 C100.977772,41.9999975 102.488883,40.4888865 102.488883,38.6666644 C102.488883,36.8444422 101.022216,35.3333312 99.1555496,35.3333312 Z" id="Path" fill="#FFFFFF" fill-rule="nonzero"></path>
                    <path d="M71.5999957,56.5777744 L20.8444432,56.5777744 C19.0222211,56.5777744 17.5111101,58.0888854 17.5111101,59.9111075 C17.5111101,61.7333297 19.0222211,63.2444407 20.8444432,63.2444407 L71.6444402,63.2444407 C73.4666623,63.2444407 74.9777733,61.7333297 74.9777733,59.9111075 C74.9777733,58.0888854 73.4666623,56.5777744 71.5999957,56.5777744 Z" id="Path" fill="#FFFFFF" fill-rule="nonzero"></path>
                    <path d="M88.222217,63.2444407 L99.1555496,63.2444407 C100.977772,63.2444407 102.488883,61.7333297 102.488883,59.9111075 C102.488883,58.0888854 100.977772,56.5777744 99.1555496,56.5777744 L88.222217,56.5777744 C86.3999949,56.5777744 84.8888838,58.0888854 84.8888838,59.9111075 C84.8888838,61.7333297 86.3555504,63.2444407 88.222217,63.2444407 Z" id="Path" fill="#FFFFFF" fill-rule="nonzero"></path>
                    <path d="M71.5999957,77.8222176 L20.8444432,77.8222176 C19.0222211,77.8222176 17.5111101,79.3333286 17.5111101,81.1555507 C17.5111101,82.9777728 19.0222211,84.4888839 20.8444432,84.4888839 L71.6444402,84.4888839 C73.4666623,84.4888839 74.9777733,82.9777728 74.9777733,81.1555507 C74.9777733,79.3333286 73.4666623,77.8222176 71.5999957,77.8222176 Z" id="Path" fill="#FFFFFF" fill-rule="nonzero"></path>
                    <path d="M88.222217,84.4888839 L99.1555496,84.4888839 C100.977772,84.4888839 102.488883,82.9777728 102.488883,81.1555507 C102.488883,79.3333286 100.977772,77.8222176 99.1555496,77.8222176 L88.222217,77.8222176 C86.3999949,77.8222176 84.8888838,79.3333286 84.8888838,81.1555507 C84.8888838,82.9777728 86.3555504,84.4888839 88.222217,84.4888839 Z" id="Path" fill="#FFFFFF" fill-rule="nonzero"></path>
                    <path d="M94.5333277,100.577772 C97.9555497,100.577772 100.177772,101.688883 101.422216,102.222216 L102.799994,96.7999942 C101.199994,96.0444387 99.0666608,95.3777721 95.866661,95.2444388 L95.866661,91.0222168 L91.1999946,91.0222168 L91.1999946,95.5555499 C86.0888838,96.577772 83.1111062,99.8666607 83.1111062,104.044438 C83.1111062,108.66666 86.6222171,111.06666 91.7333279,112.799993 C95.2888832,113.999993 96.7999942,115.155549 96.7999942,116.977771 C96.7999942,118.888882 94.9333277,119.955548 92.2222167,119.955548 C89.1111058,119.955548 86.311106,118.933326 84.2666616,117.86666 L82.8444395,123.466659 C84.6666616,124.533326 87.7777725,125.37777 90.9777724,125.511104 L90.9777724,130.044437 L95.6444387,130.044437 L95.6444387,125.155548 C101.15555,124.17777 104.133327,120.577771 104.133327,116.311104 C104.133327,111.999993 101.822216,109.377771 96.1333276,107.377771 C92.0888834,105.86666 90.3999946,104.844438 90.3999946,103.288883 C90.4444391,101.911105 91.4222168,100.577772 94.5333277,100.577772 Z" id="Path" fill="#FFFFFF" fill-rule="nonzero"></path>
                </g>
                <g id="bill_iconNOBG" transform="translate(57.000000, 13.000000)">
                    <path d="M116.26666,0 L98.8444386,0 C97.0222164,0 95.5111054,1.51111102 95.5111054,3.33333313 L95.5111054,9.95555496 C95.5111054,11.6888882 94.0888833,13.1111103 92.3555555,13.1111103 C90.6222168,13.1111103 89.1999947,11.6888882 89.1999947,9.95555496 L89.1999947,3.33333313 C89.1999947,1.51111102 87.6888837,0 85.8666615,0 L67.4666626,0 C65.6444405,0 64.1333295,1.51111102 64.1333295,3.33333313 L64.1333295,9.95555496 C64.1333295,11.6888882 62.7111074,13.1111103 60.9777741,13.1111103 L59.4666631,13.1111103 C57.7333299,13.1111103 56.3111078,11.6888882 56.3111078,9.95555496 L56.3111078,3.82222199 C56.3111078,2 54.7999967,0.48888886 52.9777746,0.48888886 L37.0666645,0.48888886 C35.2444423,0.48888886 33.7333313,2 33.7333313,3.82222199 L33.7333313,9.95555496 C33.7333313,11.6888882 32.3111092,13.1111103 30.577776,13.1111103 L28.5777761,13.1111103 C26.8444428,13.1111103 25.4222207,11.6888882 25.4222207,9.95555496 L25.4222207,3.82222199 C25.4222207,2 23.9111097,0.48888886 22.0888876,0.48888886 L3.68888867,0.48888886 C1.86666656,0.48888886 0.355555534,2 0.355555534,3.82222199 L0.355555534,150.88888 C0.355555534,152.711102 1.86666656,154.222213 3.68888867,154.222213 L22.0888876,154.222213 C23.9111097,154.222213 25.4222207,152.711102 25.4222207,150.88888 L25.4222207,144.755547 C25.4222207,143.022214 26.8444428,141.599992 28.5777761,141.599992 L30.577776,141.599992 C32.3111092,141.599992 33.7333313,143.022214 33.7333313,144.755547 L33.7333313,150.88888 C33.7333313,152.711102 35.2444423,154.222213 37.0666645,154.222213 L52.9777746,154.222213 C54.7999967,154.222213 56.3111078,152.711102 56.3111078,150.88888 L56.3111078,144.755547 C56.3111078,143.022214 57.7333299,141.599992 59.4666631,141.599992 L60.9777741,141.599992 C62.7111074,141.599992 64.1333295,143.022214 64.1333295,144.755547 L64.1333295,151.377769 C64.1333295,153.199991 65.6444405,154.711102 67.4666626,154.711102 L85.8666615,154.711102 C87.6888837,154.711102 89.1999947,153.199991 89.1999947,151.377769 L89.1999947,144.755547 C89.1999947,143.022214 90.6222168,141.599992 92.3555555,141.599992 C94.0888833,141.599992 95.5111054,143.022214 95.5111054,144.755547 L95.5111054,151.377769 C95.5111054,153.199991 97.0222164,154.711102 98.8444386,154.711102 L116.26666,154.711102 C118.088882,154.711102 119.599993,153.199991 119.599993,151.377769 L119.599993,3.33333313 C119.599993,1.51111102 118.088882,0 116.26666,0 Z" id="Shape" fill="#A1D26F"></path>
                    <path d="M71.5999957,35.3333312 L20.8444432,35.3333312 C19.0222211,35.3333312 17.5111101,36.8444422 17.5111101,38.6666644 C17.5111101,40.4888865 19.0222211,41.9999975 20.8444432,41.9999975 L71.6444402,41.9999975 C73.4666623,41.9999975 74.9777733,40.4888865 74.9777733,38.6666644 C74.9777733,36.8444422 73.4666623,35.3333312 71.5999957,35.3333312 Z" id="Path" fill="#FFFFFF" fill-rule="nonzero"></path>
                    <path d="M99.1555496,35.3333312 L88.222217,35.3333312 C86.3999949,35.3333312 84.8888838,36.8444422 84.8888838,38.6666644 C84.8888838,40.4888865 86.3999949,41.9999975 88.222217,41.9999975 L99.1555496,41.9999975 C100.977772,41.9999975 102.488883,40.4888865 102.488883,38.6666644 C102.488883,36.8444422 101.022216,35.3333312 99.1555496,35.3333312 Z" id="Path" fill="#FFFFFF" fill-rule="nonzero"></path>
                    <path d="M71.5999957,56.5777744 L20.8444432,56.5777744 C19.0222211,56.5777744 17.5111101,58.0888854 17.5111101,59.9111075 C17.5111101,61.7333297 19.0222211,63.2444407 20.8444432,63.2444407 L71.6444402,63.2444407 C73.4666623,63.2444407 74.9777733,61.7333297 74.9777733,59.9111075 C74.9777733,58.0888854 73.4666623,56.5777744 71.5999957,56.5777744 Z" id="Path" fill="#FFFFFF" fill-rule="nonzero"></path>
                    <path d="M88.222217,63.2444407 L99.1555496,63.2444407 C100.977772,63.2444407 102.488883,61.7333297 102.488883,59.9111075 C102.488883,58.0888854 100.977772,56.5777744 99.1555496,56.5777744 L88.222217,56.5777744 C86.3999949,56.5777744 84.8888838,58.0888854 84.8888838,59.9111075 C84.8888838,61.7333297 86.3555504,63.2444407 88.222217,63.2444407 Z" id="Path" fill="#FFFFFF" fill-rule="nonzero"></path>
                    <path d="M71.5999957,77.8222176 L20.8444432,77.8222176 C19.0222211,77.8222176 17.5111101,79.3333286 17.5111101,81.1555507 C17.5111101,82.9777728 19.0222211,84.4888839 20.8444432,84.4888839 L71.6444402,84.4888839 C73.4666623,84.4888839 74.9777733,82.9777728 74.9777733,81.1555507 C74.9777733,79.3333286 73.4666623,77.8222176 71.5999957,77.8222176 Z" id="Path" fill="#FFFFFF" fill-rule="nonzero"></path>
                    <path d="M88.222217,84.4888839 L99.1555496,84.4888839 C100.977772,84.4888839 102.488883,82.9777728 102.488883,81.1555507 C102.488883,79.3333286 100.977772,77.8222176 99.1555496,77.8222176 L88.222217,77.8222176 C86.3999949,77.8222176 84.8888838,79.3333286 84.8888838,81.1555507 C84.8888838,82.9777728 86.3555504,84.4888839 88.222217,84.4888839 Z" id="Path" fill="#FFFFFF" fill-rule="nonzero"></path>
                    <path d="M94.5333277,100.577772 C97.9555497,100.577772 100.177772,101.688883 101.422216,102.222216 L102.799994,96.7999942 C101.199994,96.0444387 99.0666608,95.3777721 95.866661,95.2444388 L95.866661,91.0222168 L91.1999946,91.0222168 L91.1999946,95.5555499 C86.0888838,96.577772 83.1111062,99.8666607 83.1111062,104.044438 C83.1111062,108.66666 86.6222171,111.06666 91.7333279,112.799993 C95.2888832,113.999993 96.7999942,115.155549 96.7999942,116.977771 C96.7999942,118.888882 94.9333277,119.955548 92.2222167,119.955548 C89.1111058,119.955548 86.311106,118.933326 84.2666616,117.86666 L82.8444395,123.466659 C84.6666616,124.533326 87.7777725,125.37777 90.9777724,125.511104 L90.9777724,130.044437 L95.6444387,130.044437 L95.6444387,125.155548 C101.15555,124.17777 104.133327,120.577771 104.133327,116.311104 C104.133327,111.999993 101.822216,109.377771 96.1333276,107.377771 C92.0888834,105.86666 90.3999946,104.844438 90.3999946,103.288883 C90.4444391,101.911105 91.4222168,100.577772 94.5333277,100.577772 Z" id="Path" fill="#FFFFFF" fill-rule="nonzero"></path>
                </g>
                <g id="bill_iconNOBG-Copy-2" transform="translate(170.000000, 99.582031) rotate(-345.000000) translate(-170.000000, -99.582031) translate(110.000000, 22.082031)">
                    <path d="M116.26666,0 L98.8444386,0 C97.0222164,0 95.5111054,1.51111102 95.5111054,3.33333313 L95.5111054,9.95555496 C95.5111054,11.6888882 94.0888833,13.1111103 92.3555555,13.1111103 C90.6222168,13.1111103 89.1999947,11.6888882 89.1999947,9.95555496 L89.1999947,3.33333313 C89.1999947,1.51111102 87.6888837,0 85.8666615,0 L67.4666626,0 C65.6444405,0 64.1333295,1.51111102 64.1333295,3.33333313 L64.1333295,9.95555496 C64.1333295,11.6888882 62.7111074,13.1111103 60.9777741,13.1111103 L59.4666631,13.1111103 C57.7333299,13.1111103 56.3111078,11.6888882 56.3111078,9.95555496 L56.3111078,3.82222199 C56.3111078,2 54.7999967,0.48888886 52.9777746,0.48888886 L37.0666645,0.48888886 C35.2444423,0.48888886 33.7333313,2 33.7333313,3.82222199 L33.7333313,9.95555496 C33.7333313,11.6888882 32.3111092,13.1111103 30.577776,13.1111103 L28.5777761,13.1111103 C26.8444428,13.1111103 25.4222207,11.6888882 25.4222207,9.95555496 L25.4222207,3.82222199 C25.4222207,2 23.9111097,0.48888886 22.0888876,0.48888886 L3.68888867,0.48888886 C1.86666656,0.48888886 0.355555534,2 0.355555534,3.82222199 L0.355555534,150.88888 C0.355555534,152.711102 1.86666656,154.222213 3.68888867,154.222213 L22.0888876,154.222213 C23.9111097,154.222213 25.4222207,152.711102 25.4222207,150.88888 L25.4222207,144.755547 C25.4222207,143.022214 26.8444428,141.599992 28.5777761,141.599992 L30.577776,141.599992 C32.3111092,141.599992 33.7333313,143.022214 33.7333313,144.755547 L33.7333313,150.88888 C33.7333313,152.711102 35.2444423,154.222213 37.0666645,154.222213 L52.9777746,154.222213 C54.7999967,154.222213 56.3111078,152.711102 56.3111078,150.88888 L56.3111078,144.755547 C56.3111078,143.022214 57.7333299,141.599992 59.4666631,141.599992 L60.9777741,141.599992 C62.7111074,141.599992 64.1333295,143.022214 64.1333295,144.755547 L64.1333295,151.377769 C64.1333295,153.199991 65.6444405,154.711102 67.4666626,154.711102 L85.8666615,154.711102 C87.6888837,154.711102 89.1999947,153.199991 89.1999947,151.377769 L89.1999947,144.755547 C89.1999947,143.022214 90.6222168,141.599992 92.3555555,141.599992 C94.0888833,141.599992 95.5111054,143.022214 95.5111054,144.755547 L95.5111054,151.377769 C95.5111054,153.199991 97.0222164,154.711102 98.8444386,154.711102 L116.26666,154.711102 C118.088882,154.711102 119.599993,153.199991 119.599993,151.377769 L119.599993,3.33333313 C119.599993,1.51111102 118.088882,0 116.26666,0 Z" id="Shape" fill="#7ED321"></path>
                    <path d="M71.5999957,35.3333312 L20.8444432,35.3333312 C19.0222211,35.3333312 17.5111101,36.8444422 17.5111101,38.6666644 C17.5111101,40.4888865 19.0222211,41.9999975 20.8444432,41.9999975 L71.6444402,41.9999975 C73.4666623,41.9999975 74.9777733,40.4888865 74.9777733,38.6666644 C74.9777733,36.8444422 73.4666623,35.3333312 71.5999957,35.3333312 Z" id="Path" fill="#FFFFFF" fill-rule="nonzero"></path>
                    <path d="M99.1555496,35.3333312 L88.222217,35.3333312 C86.3999949,35.3333312 84.8888838,36.8444422 84.8888838,38.6666644 C84.8888838,40.4888865 86.3999949,41.9999975 88.222217,41.9999975 L99.1555496,41.9999975 C100.977772,41.9999975 102.488883,40.4888865 102.488883,38.6666644 C102.488883,36.8444422 101.022216,35.3333312 99.1555496,35.3333312 Z" id="Path" fill="#FFFFFF" fill-rule="nonzero"></path>
                    <path d="M71.5999957,56.5777744 L20.8444432,56.5777744 C19.0222211,56.5777744 17.5111101,58.0888854 17.5111101,59.9111075 C17.5111101,61.7333297 19.0222211,63.2444407 20.8444432,63.2444407 L71.6444402,63.2444407 C73.4666623,63.2444407 74.9777733,61.7333297 74.9777733,59.9111075 C74.9777733,58.0888854 73.4666623,56.5777744 71.5999957,56.5777744 Z" id="Path" fill="#FFFFFF" fill-rule="nonzero"></path>
                    <path d="M88.222217,63.2444407 L99.1555496,63.2444407 C100.977772,63.2444407 102.488883,61.7333297 102.488883,59.9111075 C102.488883,58.0888854 100.977772,56.5777744 99.1555496,56.5777744 L88.222217,56.5777744 C86.3999949,56.5777744 84.8888838,58.0888854 84.8888838,59.9111075 C84.8888838,61.7333297 86.3555504,63.2444407 88.222217,63.2444407 Z" id="Path" fill="#FFFFFF" fill-rule="nonzero"></path>
                    <path d="M71.5999957,77.8222176 L20.8444432,77.8222176 C19.0222211,77.8222176 17.5111101,79.3333286 17.5111101,81.1555507 C17.5111101,82.9777728 19.0222211,84.4888839 20.8444432,84.4888839 L71.6444402,84.4888839 C73.4666623,84.4888839 74.9777733,82.9777728 74.9777733,81.1555507 C74.9777733,79.3333286 73.4666623,77.8222176 71.5999957,77.8222176 Z" id="Path" fill="#FFFFFF" fill-rule="nonzero"></path>
                    <path d="M88.222217,84.4888839 L99.1555496,84.4888839 C100.977772,84.4888839 102.488883,82.9777728 102.488883,81.1555507 C102.488883,79.3333286 100.977772,77.8222176 99.1555496,77.8222176 L88.222217,77.8222176 C86.3999949,77.8222176 84.8888838,79.3333286 84.8888838,81.1555507 C84.8888838,82.9777728 86.3555504,84.4888839 88.222217,84.4888839 Z" id="Path" fill="#FFFFFF" fill-rule="nonzero"></path>
                    <path d="M94.5333277,100.577772 C97.9555497,100.577772 100.177772,101.688883 101.422216,102.222216 L102.799994,96.7999942 C101.199994,96.0444387 99.0666608,95.3777721 95.866661,95.2444388 L95.866661,91.0222168 L91.1999946,91.0222168 L91.1999946,95.5555499 C86.0888838,96.577772 83.1111062,99.8666607 83.1111062,104.044438 C83.1111062,108.66666 86.6222171,111.06666 91.7333279,112.799993 C95.2888832,113.999993 96.7999942,115.155549 96.7999942,116.977771 C96.7999942,118.888882 94.9333277,119.955548 92.2222167,119.955548 C89.1111058,119.955548 86.311106,118.933326 84.2666616,117.86666 L82.8444395,123.466659 C84.6666616,124.533326 87.7777725,125.37777 90.9777724,125.511104 L90.9777724,130.044437 L95.6444387,130.044437 L95.6444387,125.155548 C101.15555,124.17777 104.133327,120.577771 104.133327,116.311104 C104.133327,111.999993 101.822216,109.377771 96.1333276,107.377771 C92.0888834,105.86666 90.3999946,104.844438 90.3999946,103.288883 C90.4444391,101.911105 91.4222168,100.577772 94.5333277,100.577772 Z" id="Path" fill="#FFFFFF" fill-rule="nonzero"></path>
                </g>
            </g>
        </g>
    </g>
</svg>