<?xml version="1.0" encoding="UTF-8" standalone="no"?>
<svg width="512px" height="66px" viewBox="0 0 512 66" version="1.1" xmlns="http://www.w3.org/2000/svg" xmlns:xlink="http://www.w3.org/1999/xlink">
    <!-- Generator: Sketch 42 (36781) - http://www.bohemiancoding.com/sketch -->
    <title>Bm Logga EPS</title>
    <desc>Created with Sketch.</desc>
    <defs></defs>
    <g id="Page-1" stroke="none" stroke-width="1" fill="none" fill-rule="evenodd">
        <g id="Bm-Logga-EPS">
            <g id="Group-4" stroke-width="3">
                <polygon id="Stroke-1" stroke="#6A8893" points="1.5 64.5 51.327 64.5 51.327 11.688 1.5 11.688"></polygon>
                <path d="M12.867,27.471 L25.911,50.661 C25.911,50.661 49.302,-5.859 115.968,2.835" id="Stroke-3" stroke="#0067A5"></path>
            </g>
            <path d="M78.375,41.073 C77.493,40.443 76.527,40.152 74.886,40.065 C74.13,40.023 73.71,40.023 73.08,40.023 C72.912,40.023 72.828,40.11 72.828,40.317 L72.828,50.277 C72.828,53.052 72.954,53.766 74.298,54.312 C75.435,54.774 76.401,54.816 77.367,54.816 C79.257,54.816 82.452,53.808 82.452,49.437 C82.452,46.83 81.567,43.305 78.375,41.073 Z M72.828,37.713 C72.828,38.049 72.954,38.133 73.122,38.178 C73.5,38.259 74.13,38.301 75.096,38.301 C76.485,38.301 77.409,38.133 78.123,37.503 C79.215,36.621 79.845,35.106 79.845,33.048 C79.845,30.234 78.207,26.535 74.592,26.535 C74.004,26.535 73.626,26.535 73.206,26.619 C72.912,26.703 72.828,26.871 72.828,27.333 L72.828,37.713 Z M67.785,36.999 C67.785,30.612 67.785,29.436 67.701,28.089 C67.617,26.661 67.281,25.989 65.895,25.695 C65.559,25.611 64.845,25.569 64.254,25.569 C63.792,25.569 63.54,25.485 63.54,25.188 C63.54,24.897 63.834,24.813 64.464,24.813 C66.693,24.813 69.339,24.939 70.182,24.939 C72.24,24.939 73.878,24.813 75.309,24.813 C82.914,24.813 84.258,28.887 84.258,31.116 C84.258,34.56 82.284,36.621 79.971,38.469 C83.418,39.648 87.618,42.63 87.618,47.547 C87.618,52.044 84.132,56.706 76.401,56.706 C75.894,56.706 74.679,56.622 73.458,56.58 C72.198,56.499 70.938,56.454 70.308,56.454 C69.843,56.454 68.919,56.454 67.911,56.499 C66.945,56.499 65.853,56.58 65.01,56.58 C64.464,56.58 64.173,56.454 64.173,56.16 C64.173,55.95 64.338,55.824 64.845,55.824 C65.475,55.824 65.979,55.74 66.357,55.656 C67.197,55.488 67.407,54.564 67.575,53.346 C67.785,51.579 67.785,48.261 67.785,44.394 L67.785,36.999 L67.785,36.999 Z" id="Fill-5" fill="#1A1918"></path>
            <path d="M95.799,39.9 C95.799,34.476 95.799,33.468 95.757,32.334 C95.673,31.116 95.337,30.738 94.161,30.402 C93.867,30.315 93.237,30.276 92.688,30.276 C92.313,30.276 92.061,30.15 92.061,29.898 C92.061,29.643 92.355,29.562 92.901,29.562 C94.833,29.562 97.188,29.643 98.238,29.643 C99.414,29.643 107.607,29.688 108.321,29.643 C108.993,29.604 109.581,29.478 109.878,29.436 C110.088,29.391 110.298,29.265 110.466,29.265 C110.676,29.265 110.718,29.436 110.718,29.604 C110.718,29.856 110.508,30.276 110.424,31.914 C110.382,32.292 110.298,33.846 110.214,34.266 C110.172,34.434 110.088,34.854 109.794,34.854 C109.542,34.854 109.497,34.686 109.497,34.392 C109.497,34.14 109.455,33.51 109.248,33.09 C108.951,32.46 108.657,31.956 106.809,31.788 C106.179,31.704 101.766,31.62 101.01,31.62 C100.842,31.62 100.758,31.746 100.758,31.956 L100.758,40.782 C100.758,40.989 100.8,41.16 101.01,41.16 C101.85,41.16 106.641,41.16 107.481,41.073 C108.366,40.989 108.912,40.908 109.248,40.527 C109.542,40.275 109.668,40.065 109.836,40.065 C110.004,40.065 110.127,40.233 110.127,40.443 C110.127,40.656 110.046,41.241 109.836,43.053 C109.749,43.764 109.668,45.192 109.668,45.444 C109.668,45.741 109.623,46.245 109.29,46.245 C109.038,46.245 108.951,46.116 108.951,45.948 C108.912,45.57 108.912,45.108 108.825,44.646 C108.618,43.932 108.153,43.386 106.767,43.26 C106.095,43.176 101.892,43.092 100.968,43.092 C100.8,43.092 100.758,43.26 100.758,43.47 L100.758,46.326 C100.758,47.547 100.716,50.571 100.758,51.624 C100.842,54.06 101.976,54.606 105.759,54.606 C106.725,54.606 108.279,54.564 109.248,54.144 C110.172,53.721 110.592,52.965 110.844,51.495 C110.928,51.12 111.012,50.949 111.264,50.949 C111.558,50.949 111.6,51.414 111.6,51.792 C111.6,52.59 111.306,55.029 111.096,55.74 C110.844,56.664 110.508,56.664 109.119,56.664 C106.347,56.664 104.118,56.622 102.312,56.541 C100.506,56.499 99.12,56.454 98.025,56.454 C97.608,56.454 96.81,56.499 95.925,56.499 C95.043,56.541 94.119,56.58 93.363,56.58 C92.901,56.58 92.646,56.454 92.646,56.202 C92.646,56.037 92.775,55.824 93.237,55.824 C93.783,55.824 94.203,55.785 94.539,55.698 C95.295,55.533 95.505,54.858 95.631,53.808 C95.799,52.296 95.799,49.479 95.799,46.2 L95.799,39.9" id="Fill-6" fill="#1A1918"></path>
            <path d="M117.972,56.118 C117.384,55.866 117.258,55.698 117.258,54.9 C117.258,52.965 117.426,50.739 117.468,50.154 C117.468,49.605 117.636,49.227 117.93,49.227 C118.266,49.227 118.308,49.56 118.308,49.812 C118.308,50.277 118.437,51.033 118.644,51.666 C119.442,54.312 122.217,55.191 124.527,55.191 C127.722,55.191 129.654,53.178 129.654,50.658 C129.654,49.101 129.276,47.547 126,45.612 L123.855,44.352 C119.487,41.79 118.056,39.396 118.056,36.243 C118.056,31.872 122.259,29.058 127.386,29.058 C129.78,29.058 131.673,29.391 132.639,29.643 C132.975,29.73 133.143,29.856 133.143,30.108 C133.143,30.567 133.017,31.578 133.017,34.392 C133.017,35.148 132.849,35.529 132.555,35.529 C132.303,35.529 132.177,35.316 132.177,34.896 C132.177,34.56 132.009,33.468 131.211,32.544 C130.665,31.872 129.486,30.864 127.092,30.864 C124.443,30.864 122.049,32.25 122.049,34.686 C122.049,36.285 122.637,37.545 125.958,39.396 L127.47,40.233 C132.345,42.924 133.857,45.654 133.857,48.891 C133.857,51.54 132.849,53.682 130.158,55.572 C128.394,56.832 125.958,57.045 123.981,57.045 C121.839,57.045 119.568,56.832 117.972,56.118" id="Fill-7" fill="#1A1918"></path>
            <path d="M141.831,39.9 C141.831,34.476 141.831,33.468 141.789,32.334 C141.705,31.116 141.327,30.696 140.529,30.441 C140.109,30.315 139.644,30.276 139.185,30.276 C138.807,30.276 138.594,30.189 138.594,29.856 C138.594,29.643 138.888,29.562 139.476,29.562 C140.865,29.562 143.385,29.643 144.438,29.643 C145.362,29.643 147.756,29.562 149.184,29.562 C149.646,29.562 149.94,29.643 149.94,29.856 C149.94,30.189 149.73,30.276 149.352,30.276 C148.974,30.276 148.68,30.315 148.26,30.402 C147.252,30.567 146.958,31.074 146.874,32.334 C146.79,33.468 146.79,34.476 146.79,39.9 L146.79,46.2 C146.79,49.65 146.79,52.503 146.958,54.018 C147.084,54.984 147.336,55.533 148.428,55.698 C148.932,55.785 149.772,55.824 150.318,55.824 C150.741,55.824 150.909,56.037 150.909,56.202 C150.909,56.454 150.615,56.58 150.192,56.58 C147.756,56.58 145.236,56.454 144.225,56.454 C143.385,56.454 140.865,56.58 139.392,56.58 C138.933,56.58 138.678,56.454 138.678,56.202 C138.678,56.037 138.807,55.824 139.266,55.824 C139.812,55.824 140.235,55.785 140.568,55.698 C141.327,55.533 141.537,55.029 141.663,53.973 C141.831,52.503 141.831,49.65 141.831,46.2 L141.831,39.9" id="Fill-8" fill="#1A1918"></path>
            <path d="M163.755,41.493 L163.926,41.493 C165.186,40.152 170.562,34.854 171.657,33.636 C172.707,32.46 173.505,31.62 173.505,30.99 C173.505,30.612 173.337,30.36 173.001,30.276 C172.665,30.189 172.497,30.108 172.497,29.898 C172.497,29.643 172.707,29.562 173.085,29.562 C173.883,29.562 175.902,29.643 176.91,29.643 C178.044,29.643 180.102,29.562 181.239,29.562 C181.617,29.562 181.869,29.643 181.869,29.898 C181.869,30.15 181.659,30.276 181.32,30.276 C180.777,30.276 179.85,30.441 179.178,30.696 C178.002,31.116 176.826,31.872 175.269,33.342 C174.093,34.434 168.588,39.648 167.454,40.947 C168.756,42.63 176.028,50.193 177.456,51.54 C179.094,53.01 180.522,54.564 182.499,55.362 C183.591,55.824 184.347,55.824 184.767,55.824 C185.064,55.824 185.271,55.992 185.271,56.202 C185.271,56.454 185.064,56.58 184.389,56.58 L181.155,56.58 C180.06,56.58 179.388,56.58 178.59,56.499 C176.616,56.328 175.398,55.572 173.799,54.183 C172.203,52.8 165.102,44.562 164.304,43.47 L163.926,42.963 L163.755,42.963 L163.755,46.2 C163.755,49.479 163.755,52.296 163.839,53.85 C163.926,54.858 164.259,55.533 165.186,55.698 C165.69,55.785 166.53,55.824 166.992,55.824 C167.286,55.824 167.496,56.037 167.496,56.202 C167.496,56.454 167.202,56.58 166.782,56.58 C164.724,56.58 162.075,56.454 161.151,56.454 C160.311,56.454 157.956,56.58 156.486,56.58 C156.024,56.58 155.772,56.454 155.772,56.202 C155.772,56.037 155.898,55.824 156.36,55.824 C156.906,55.824 157.326,55.785 157.662,55.698 C158.421,55.533 158.628,54.858 158.757,53.808 C158.925,52.296 158.925,49.479 158.925,46.2 L158.925,39.9 C158.925,34.476 158.925,33.468 158.88,32.334 C158.799,31.116 158.46,30.738 157.284,30.402 C156.99,30.315 156.36,30.276 155.814,30.276 C155.436,30.276 155.184,30.15 155.184,29.898 C155.184,29.643 155.478,29.562 156.024,29.562 C157.956,29.562 160.311,29.643 161.193,29.643 C162.075,29.643 164.724,29.562 165.942,29.562 C166.488,29.562 166.74,29.643 166.74,29.898 C166.74,30.15 166.53,30.276 166.236,30.276 C165.858,30.276 165.648,30.315 165.186,30.402 C164.178,30.567 163.881,31.074 163.8,32.334 C163.755,33.468 163.755,34.476 163.755,39.9 L163.755,41.493" id="Fill-9" fill="#1A1918"></path>
            <path d="M192.612,31.746 L187.107,31.872 C184.962,31.914 184.08,32.166 183.534,32.964 C183.156,33.468 182.988,33.933 182.904,34.182 C182.82,34.476 182.736,34.644 182.484,34.644 C182.232,34.644 182.148,34.434 182.148,34.056 C182.148,33.468 182.862,30.024 182.946,29.73 C183.03,29.265 183.156,29.058 183.366,29.058 C183.66,29.058 184.038,29.352 184.962,29.478 C186.057,29.604 187.443,29.643 188.661,29.643 L203.664,29.643 C204.84,29.643 205.638,29.562 206.187,29.478 C206.772,29.391 207.066,29.31 207.192,29.31 C207.444,29.31 207.489,29.517 207.489,30.063 C207.489,30.822 207.402,33.468 207.402,34.392 C207.363,34.773 207.276,34.983 207.066,34.983 C206.772,34.983 206.688,34.812 206.646,34.266 L206.604,33.888 C206.52,32.964 205.554,31.872 202.236,31.83 L197.571,31.746 L197.571,46.2 C197.571,49.479 197.613,52.296 197.781,53.85 C197.907,54.858 198.117,55.533 199.209,55.698 C199.713,55.785 200.553,55.824 201.099,55.824 C201.519,55.824 201.687,56.037 201.687,56.202 C201.687,56.454 201.393,56.58 200.973,56.58 C198.537,56.58 196.056,56.454 195.006,56.454 C194.166,56.454 191.646,56.58 190.176,56.58 C189.711,56.58 189.459,56.454 189.459,56.202 C189.459,56.037 189.585,55.824 190.05,55.824 C190.593,55.824 191.055,55.785 191.352,55.698 C192.108,55.533 192.318,54.858 192.444,53.808 C192.612,52.296 192.612,49.479 192.612,46.2 L192.612,31.746" id="Fill-10" fill="#1A1918"></path>
            <path d="M216.591,51.705 C216.675,54.48 217.137,55.32 217.851,55.572 C218.484,55.785 219.195,55.824 219.786,55.824 C220.206,55.824 220.416,55.992 220.416,56.202 C220.416,56.499 220.08,56.58 219.576,56.58 C217.179,56.58 215.457,56.454 214.785,56.454 C214.449,56.454 212.685,56.58 210.792,56.58 C210.288,56.58 209.952,56.541 209.952,56.202 C209.952,55.992 210.204,55.824 210.54,55.824 C211.044,55.824 211.716,55.785 212.22,55.656 C213.189,55.404 213.312,54.435 213.357,51.327 L213.69,30.15 C213.69,29.436 213.942,28.932 214.323,28.932 C214.785,28.932 215.289,29.478 215.919,30.108 C216.381,30.567 221.928,36.243 227.307,41.493 C229.827,43.974 234.744,49.017 235.293,49.521 L235.458,49.521 L235.08,33.636 C235.041,31.452 234.702,30.822 233.82,30.486 C233.274,30.276 232.392,30.276 231.888,30.276 C231.426,30.276 231.3,30.108 231.3,29.898 C231.3,29.604 231.678,29.562 232.224,29.562 C234.156,29.562 236.133,29.643 236.931,29.643 C237.351,29.643 238.737,29.562 240.546,29.562 C241.05,29.562 241.383,29.604 241.383,29.898 C241.383,30.108 241.176,30.276 240.756,30.276 C240.378,30.276 240.081,30.276 239.619,30.402 C238.611,30.696 238.317,31.326 238.275,33.342 L237.855,55.866 C237.855,56.664 237.561,57.003 237.267,57.003 C236.637,57.003 236.133,56.622 235.755,56.247 C233.442,54.102 228.819,49.689 224.955,45.948 C220.92,42.084 217.011,37.755 216.297,37.125 L216.171,37.125 L216.591,51.705" id="Fill-11" fill="#1A1918"></path>
            <path d="M249.603,39.9 C249.603,34.476 249.603,33.468 249.561,32.334 C249.477,31.116 249.099,30.696 248.301,30.441 C247.878,30.315 247.416,30.276 246.954,30.276 C246.576,30.276 246.366,30.189 246.366,29.856 C246.366,29.643 246.66,29.562 247.248,29.562 C248.634,29.562 251.157,29.643 252.207,29.643 C253.131,29.643 255.528,29.562 256.956,29.562 C257.418,29.562 257.712,29.643 257.712,29.856 C257.712,30.189 257.502,30.276 257.124,30.276 C256.746,30.276 256.452,30.315 256.032,30.402 C255.024,30.567 254.73,31.074 254.646,32.334 C254.562,33.468 254.562,34.476 254.562,39.9 L254.562,46.2 C254.562,49.65 254.562,52.503 254.73,54.018 C254.856,54.984 255.108,55.533 256.2,55.698 C256.704,55.785 257.544,55.824 258.09,55.824 C258.51,55.824 258.681,56.037 258.681,56.202 C258.681,56.454 258.384,56.58 257.964,56.58 C255.528,56.58 253.005,56.454 251.997,56.454 C251.157,56.454 248.634,56.58 247.164,56.58 C246.702,56.58 246.45,56.454 246.45,56.202 C246.45,56.037 246.576,55.824 247.038,55.824 C247.584,55.824 248.007,55.785 248.34,55.698 C249.099,55.533 249.309,55.029 249.435,53.973 C249.603,52.503 249.603,49.65 249.603,46.2 L249.603,39.9" id="Fill-12" fill="#1A1918"></path>
            <path d="M269.007,51.705 C269.091,54.48 269.553,55.32 270.267,55.572 C270.897,55.785 271.611,55.824 272.199,55.824 C272.619,55.824 272.829,55.992 272.829,56.202 C272.829,56.499 272.493,56.58 271.992,56.58 C269.595,56.58 267.87,56.454 267.198,56.454 C266.865,56.454 265.098,56.58 263.208,56.58 C262.704,56.58 262.368,56.541 262.368,56.202 C262.368,55.992 262.62,55.824 262.956,55.824 C263.46,55.824 264.132,55.785 264.636,55.656 C265.602,55.404 265.728,54.435 265.77,51.327 L266.106,30.15 C266.106,29.436 266.358,28.932 266.739,28.932 C267.198,28.932 267.702,29.478 268.335,30.108 C268.797,30.567 274.344,36.243 279.723,41.493 C282.243,43.974 287.16,49.017 287.706,49.521 L287.874,49.521 L287.496,33.636 C287.454,31.452 287.118,30.822 286.236,30.486 C285.69,30.276 284.808,30.276 284.304,30.276 C283.839,30.276 283.713,30.108 283.713,29.898 C283.713,29.604 284.094,29.562 284.64,29.562 C286.572,29.562 288.549,29.643 289.347,29.643 C289.764,29.643 291.153,29.562 292.959,29.562 C293.463,29.562 293.799,29.604 293.799,29.898 C293.799,30.108 293.589,30.276 293.169,30.276 C292.791,30.276 292.497,30.276 292.035,30.402 C291.027,30.696 290.733,31.326 290.691,33.342 L290.271,55.866 C290.271,56.664 289.977,57.003 289.683,57.003 C289.053,57.003 288.549,56.622 288.168,56.247 C285.858,54.102 281.235,49.689 277.368,45.948 C273.336,42.084 269.427,37.755 268.713,37.125 L268.587,37.125 L269.007,51.705" id="Fill-13" fill="#1A1918"></path>
            <path d="M324.162,54.183 C324.162,55.152 324.162,55.191 323.7,55.446 C321.222,56.664 317.565,57.045 314.667,57.045 C305.589,57.045 297.561,52.926 297.561,43.053 C297.561,37.332 300.63,33.342 304.035,31.368 C307.563,29.31 310.884,29.058 313.995,29.058 C316.557,29.058 319.794,29.478 320.55,29.643 C321.306,29.769 322.608,29.982 323.49,30.024 C323.91,30.063 323.994,30.189 323.994,30.441 C323.994,30.864 323.742,31.83 323.742,36.324 C323.742,36.873 323.532,37.125 323.238,37.125 C322.986,37.125 322.902,36.957 322.86,36.663 C322.776,35.862 322.566,34.731 321.6,33.72 C320.505,32.586 317.733,30.99 313.572,30.99 C311.556,30.99 308.994,31.032 306.429,33.09 C304.371,34.773 303.024,37.422 303.024,41.79 C303.024,49.479 307.983,55.068 315.885,55.068 C316.851,55.068 317.607,55.068 318.489,54.687 C319.035,54.435 319.203,54.06 319.203,53.43 L319.203,50.154 C319.203,48.387 319.203,47.043 319.161,45.948 C319.122,44.73 318.741,44.352 317.565,44.016 C317.271,43.932 316.641,43.89 316.137,43.89 C315.801,43.89 315.549,43.722 315.549,43.512 C315.549,43.215 315.843,43.176 316.347,43.176 C318.279,43.176 320.928,43.26 322.02,43.26 C323.196,43.26 325.128,43.176 326.349,43.176 C326.853,43.176 327.105,43.215 327.105,43.512 C327.105,43.722 326.895,43.89 326.643,43.89 C326.349,43.89 326.055,43.932 325.632,44.016 C324.624,44.181 324.249,44.688 324.204,45.948 C324.162,47.043 324.162,48.471 324.162,50.235 L324.162,54.183" id="Fill-14" fill="#1A1918"></path>
            <path d="M332.466,56.118 C331.875,55.866 331.749,55.698 331.749,54.9 C331.749,52.965 331.92,50.739 331.962,50.154 C331.962,49.605 332.13,49.227 332.424,49.227 C332.76,49.227 332.802,49.56 332.802,49.812 C332.802,50.277 332.928,51.033 333.138,51.666 C333.936,54.312 336.708,55.191 339.021,55.191 C342.213,55.191 344.148,53.178 344.148,50.658 C344.148,49.101 343.77,47.547 340.491,45.612 L338.349,44.352 C333.978,41.79 332.55,39.396 332.55,36.243 C332.55,31.872 336.75,29.058 341.877,29.058 C344.274,29.058 346.164,29.391 347.13,29.643 C347.466,29.73 347.634,29.856 347.634,30.108 C347.634,30.567 347.508,31.578 347.508,34.392 C347.508,35.148 347.34,35.529 347.049,35.529 C346.794,35.529 346.668,35.316 346.668,34.896 C346.668,34.56 346.5,33.468 345.702,32.544 C345.156,31.872 343.98,30.864 341.583,30.864 C338.937,30.864 336.543,32.25 336.543,34.686 C336.543,36.285 337.128,37.545 340.449,39.396 L341.961,40.233 C346.836,42.924 348.351,45.654 348.351,48.891 C348.351,51.54 347.34,53.682 344.652,55.572 C342.888,56.832 340.449,57.045 338.475,57.045 C336.33,57.045 334.062,56.832 332.466,56.118" id="Fill-15" fill="#1A1918"></path>
            <path d="M359.559,24.981 C359.685,24.264 359.937,23.886 360.273,23.886 C360.609,23.886 360.861,24.099 361.407,25.188 L372.879,48.891 L384.309,24.897 C384.645,24.225 384.855,23.886 385.233,23.886 C385.611,23.886 385.866,24.309 385.992,25.188 L389.814,51.162 C390.192,53.808 390.612,55.029 391.875,55.404 C393.093,55.785 393.933,55.824 394.479,55.824 C394.857,55.824 395.151,55.866 395.151,56.118 C395.151,56.454 394.647,56.58 394.059,56.58 C393.006,56.58 387.21,56.454 385.527,56.328 C384.561,56.247 384.309,56.118 384.309,55.866 C384.309,55.656 384.477,55.533 384.771,55.404 C385.023,55.32 385.149,54.774 384.981,53.598 L382.461,35.106 L382.293,35.106 L373.131,54.183 C372.165,56.16 371.955,56.541 371.577,56.541 C371.199,56.541 370.779,55.698 370.107,54.435 C369.096,52.503 365.778,46.074 365.274,44.898 C364.896,44.016 362.373,38.721 360.903,35.568 L360.735,35.568 L358.551,52.296 C358.464,53.052 358.425,53.598 358.425,54.27 C358.425,55.068 358.971,55.446 359.685,55.614 C360.441,55.785 361.029,55.824 361.449,55.824 C361.785,55.824 362.079,55.908 362.079,56.118 C362.079,56.499 361.701,56.58 361.071,56.58 C359.307,56.58 357.414,56.454 356.658,56.454 C355.86,56.454 353.844,56.58 352.5,56.58 C352.077,56.58 351.741,56.499 351.741,56.118 C351.741,55.908 351.993,55.824 352.413,55.824 C352.749,55.824 353.046,55.824 353.676,55.698 C354.852,55.446 355.188,53.808 355.398,52.38 L359.559,24.981" id="Fill-16" fill="#1A1918"></path>
            <path d="M410.883,45.612 C411.054,45.612 411.096,45.531 411.054,45.402 L407.565,36.324 C407.523,36.201 407.481,35.991 407.397,35.991 C407.271,35.991 407.229,36.201 407.187,36.324 L403.614,45.36 C403.53,45.531 403.614,45.612 403.74,45.612 L410.883,45.612 Z M402.984,47.586 C402.774,47.586 402.732,47.631 402.648,47.838 L400.674,52.632 C400.296,53.514 400.125,54.396 400.125,54.816 C400.125,55.446 400.464,55.824 401.598,55.824 L402.144,55.824 C402.606,55.824 402.69,55.992 402.69,56.202 C402.69,56.499 402.48,56.58 402.102,56.58 C400.884,56.58 399.162,56.454 397.983,56.454 C397.605,56.454 395.631,56.58 393.696,56.58 C393.237,56.58 393.024,56.499 393.024,56.202 C393.024,55.992 393.15,55.824 393.444,55.824 C393.783,55.824 394.2,55.785 394.539,55.785 C396.219,55.533 396.849,54.435 397.605,52.632 L407.271,30.15 C407.691,29.139 407.985,28.719 408.363,28.719 C408.909,28.719 409.077,29.058 409.455,29.856 C410.337,31.83 416.517,46.452 418.869,51.876 C420.297,55.11 421.35,55.572 422.022,55.698 C422.565,55.785 422.988,55.824 423.408,55.824 C423.744,55.824 423.912,55.95 423.912,56.202 C423.912,56.499 423.702,56.58 422.313,56.58 C421.011,56.58 418.323,56.58 415.212,56.499 C414.54,56.454 414.12,56.454 414.12,56.202 C414.12,55.992 414.204,55.866 414.582,55.824 C414.834,55.785 415.086,55.446 414.918,55.029 L412.062,47.838 C411.978,47.631 411.852,47.586 411.684,47.586 L402.984,47.586 L402.984,47.586 Z" id="Fill-17" fill="#1A1918"></path>
            <path d="M430.245,51.705 C430.326,54.48 430.791,55.32 431.505,55.572 C432.135,55.785 432.846,55.824 433.437,55.824 C433.857,55.824 434.064,55.992 434.064,56.202 C434.064,56.499 433.731,56.58 433.227,56.58 C430.83,56.58 429.108,56.454 428.436,56.454 C428.1,56.454 426.336,56.58 424.443,56.58 C423.939,56.58 423.603,56.541 423.603,56.202 C423.603,55.992 423.855,55.824 424.191,55.824 C424.695,55.824 425.37,55.785 425.874,55.656 C426.84,55.404 426.963,54.435 427.008,51.327 L427.344,30.15 C427.344,29.436 427.596,28.932 427.974,28.932 C428.436,28.932 428.94,29.478 429.57,30.108 C430.035,30.567 435.579,36.243 440.958,41.493 C443.481,43.974 448.398,49.017 448.941,49.521 L449.112,49.521 L448.731,33.636 C448.689,31.452 448.356,30.822 447.471,30.486 C446.928,30.276 446.043,30.276 445.539,30.276 C445.077,30.276 444.951,30.108 444.951,29.898 C444.951,29.604 445.329,29.562 445.878,29.562 C447.81,29.562 449.784,29.643 450.582,29.643 C451.002,29.643 452.388,29.562 454.197,29.562 C454.701,29.562 455.037,29.604 455.037,29.898 C455.037,30.108 454.824,30.276 454.407,30.276 C454.029,30.276 453.735,30.276 453.273,30.402 C452.265,30.696 451.968,31.326 451.929,33.342 L451.509,55.866 C451.509,56.664 451.212,57.003 450.918,57.003 C450.291,57.003 449.784,56.622 449.406,56.247 C447.093,54.102 442.473,49.689 438.606,45.948 C434.571,42.084 430.665,37.755 429.948,37.125 L429.822,37.125 L430.245,51.705" id="Fill-18" fill="#1A1918"></path>
            <path d="M459.891,53.892 C459.891,52.842 460.647,51.327 462.453,51.327 C463.884,51.327 465.018,52.296 465.018,53.766 C465.018,55.236 464.007,56.454 462.414,56.454 C460.647,56.454 459.891,55.068 459.891,53.892" id="Fill-19" fill="#1A1918"></path>
            <path d="M471.735,56.118 C471.147,55.866 471.021,55.698 471.021,54.9 C471.021,52.965 471.189,50.739 471.231,50.154 C471.231,49.605 471.399,49.227 471.693,49.227 C472.029,49.227 472.071,49.56 472.071,49.812 C472.071,50.277 472.197,51.033 472.41,51.666 C473.205,54.312 475.977,55.191 478.293,55.191 C481.485,55.191 483.42,53.178 483.42,50.658 C483.42,49.101 483.039,47.547 479.763,45.612 L477.618,44.352 C473.247,41.79 471.816,39.396 471.816,36.243 C471.816,31.872 476.022,29.058 481.149,29.058 C483.543,29.058 485.436,29.391 486.402,29.643 C486.735,29.73 486.906,29.856 486.906,30.108 C486.906,30.567 486.78,31.578 486.78,34.392 C486.78,35.148 486.612,35.529 486.318,35.529 C486.063,35.529 485.937,35.316 485.937,34.896 C485.937,34.56 485.772,33.468 484.971,32.544 C484.428,31.872 483.249,30.864 480.852,30.864 C478.206,30.864 475.812,32.25 475.812,34.686 C475.812,36.285 476.4,37.545 479.721,39.396 L481.233,40.233 C486.108,42.924 487.62,45.654 487.62,48.891 C487.62,51.54 486.612,53.682 483.924,55.572 C482.157,56.832 479.721,57.045 477.744,57.045 C475.602,57.045 473.331,56.832 471.735,56.118" id="Fill-20" fill="#1A1918"></path>
            <path d="M495.594,39.9 C495.594,34.476 495.594,33.468 495.552,32.334 C495.465,31.116 495.132,30.738 493.953,30.402 C493.662,30.315 493.029,30.276 492.483,30.276 C492.105,30.276 491.853,30.15 491.853,29.898 C491.853,29.643 492.15,29.562 492.693,29.562 C494.628,29.562 496.98,29.643 498.033,29.643 C499.206,29.643 507.402,29.688 508.116,29.643 C508.791,29.604 509.376,29.478 509.67,29.436 C509.88,29.391 510.09,29.265 510.261,29.265 C510.468,29.265 510.513,29.436 510.513,29.604 C510.513,29.856 510.303,30.276 510.216,31.914 C510.177,32.292 510.09,33.846 510.009,34.266 C509.964,34.434 509.88,34.854 509.586,34.854 C509.334,34.854 509.295,34.686 509.295,34.392 C509.295,34.14 509.25,33.51 509.043,33.09 C508.746,32.46 508.449,31.956 506.604,31.788 C505.971,31.704 501.561,31.62 500.805,31.62 C500.637,31.62 500.553,31.746 500.553,31.956 L500.553,40.782 C500.553,40.989 500.592,41.16 500.805,41.16 C501.645,41.16 506.436,41.16 507.276,41.073 C508.158,40.989 508.704,40.908 509.043,40.527 C509.334,40.275 509.46,40.065 509.628,40.065 C509.799,40.065 509.922,40.233 509.922,40.443 C509.922,40.656 509.838,41.241 509.628,43.053 C509.547,43.764 509.46,45.192 509.46,45.444 C509.46,45.741 509.418,46.245 509.082,46.245 C508.83,46.245 508.746,46.116 508.746,45.948 C508.704,45.57 508.704,45.108 508.62,44.646 C508.41,43.932 507.945,43.386 506.562,43.26 C505.89,43.176 501.687,43.092 500.763,43.092 C500.592,43.092 500.553,43.26 500.553,43.47 L500.553,46.326 C500.553,47.547 500.511,50.571 500.553,51.624 C500.637,54.06 501.771,54.606 505.554,54.606 C506.52,54.606 508.074,54.564 509.043,54.144 C509.964,53.721 510.384,52.965 510.636,51.495 C510.72,51.12 510.807,50.949 511.059,50.949 C511.35,50.949 511.395,51.414 511.395,51.792 C511.395,52.59 511.098,55.029 510.888,55.74 C510.636,56.664 510.303,56.664 508.914,56.664 C506.142,56.664 503.916,56.622 502.107,56.541 C500.301,56.499 498.912,56.454 497.82,56.454 C497.4,56.454 496.602,56.499 495.717,56.499 C494.838,56.541 493.914,56.58 493.158,56.58 C492.693,56.58 492.441,56.454 492.441,56.202 C492.441,56.037 492.567,55.824 493.029,55.824 C493.575,55.824 493.995,55.785 494.331,55.698 C495.09,55.533 495.3,54.858 495.426,53.808 C495.594,52.296 495.594,49.479 495.594,46.2 L495.594,39.9" id="Fill-21" fill="#1A1918"></path>
        </g>
    </g>
</svg>