<?xml version="1.0" encoding="UTF-8" standalone="no"?>
<svg width="601px" height="78px" viewBox="0 0 601 78" version="1.1" xmlns="http://www.w3.org/2000/svg" xmlns:xlink="http://www.w3.org/1999/xlink">
    <!-- Generator: Sketch 42 (36781) - http://www.bohemiancoding.com/sketch -->
    <title>Bm Logga EPS Copy</title>
    <desc>Created with Sketch.</desc>
    <defs></defs>
    <g id="Page-1" stroke="none" stroke-width="1" fill="none" fill-rule="evenodd">
        <g id="Bm-Logga-EPS-Copy" transform="translate(1.000000, 2.000000)">
            <g id="Group-4" stroke-width="3.515625" stroke="#FFFFFF">
                <polygon id="Stroke-1" points="0.759077629 73.25 59.2475741 73.25 59.2475741 11.636 0.759077629 11.636"></polygon>
                <path d="M14.102019,30.0495 L29.4134756,57.1045 C29.4134756,57.1045 56.8705655,-8.8355 135.125209,1.3075" id="Stroke-3"></path>
            </g>
            <path d="M90.9973654,45.9185 C89.9620461,45.1835 88.828125,44.844 86.9018677,44.7425 C86.0144512,44.6935 85.521442,44.6935 84.7819282,44.6935 C84.5847245,44.6935 84.4861227,44.795 84.4861227,45.0365 L84.4861227,56.6565 C84.4861227,59.894 84.6340255,60.727 86.2116548,61.364 C87.5463011,61.903 88.6802222,61.952 89.8141434,61.952 C92.0326847,61.952 95.783076,60.776 95.783076,55.6765 C95.783076,52.635 94.7442352,48.5225 90.9973654,45.9185 Z M84.4861227,41.9985 C84.4861227,42.3905 84.6340255,42.4885 84.8312291,42.541 C85.2749374,42.6355 86.0144512,42.6845 87.1483723,42.6845 C88.7788241,42.6845 89.8634443,42.4885 90.7015599,41.7535 C91.9833838,40.7245 92.7228975,38.957 92.7228975,36.556 C92.7228975,33.273 90.8001617,28.9575 86.5567613,28.9575 C85.8665484,28.9575 85.4228402,28.9575 84.929831,29.0555 C84.5847245,29.1535 84.4861227,29.3495 84.4861227,29.8885 L84.4861227,41.9985 Z M78.566491,41.1655 C78.566491,33.714 78.566491,32.342 78.4678892,30.7705 C78.3692874,29.1045 77.97488,28.3205 76.3479497,27.9775 C75.9535424,27.8795 75.1154268,27.8305 74.4216924,27.8305 C73.8793823,27.8305 73.5835768,27.7325 73.5835768,27.386 C73.5835768,27.0465 73.9286832,26.9485 74.668197,26.9485 C77.2846672,26.9485 80.390625,27.0955 81.3801649,27.0955 C83.7959098,27.0955 85.7186457,26.9485 87.3983984,26.9485 C96.3253861,26.9485 97.9030154,31.7015 97.9030154,34.302 C97.9030154,38.32 95.5858723,40.7245 92.8708003,42.8805 C96.9169971,44.256 101.847089,47.735 101.847089,53.4715 C101.847089,58.718 97.7551127,64.157 88.6802222,64.157 C88.0850897,64.157 86.6588846,64.059 85.2256365,64.01 C83.7466089,63.9155 82.2675814,63.863 81.5280676,63.863 C80.982236,63.863 79.8976158,63.863 78.7143938,63.9155 C77.5804727,63.9155 76.2986488,64.01 75.3091089,64.01 C74.668197,64.01 74.3266121,63.863 74.3266121,63.52 C74.3266121,63.275 74.5202942,63.128 75.1154268,63.128 C75.8549405,63.128 76.4465515,63.03 76.8902598,62.932 C77.8762782,62.736 78.1227828,61.658 78.3199864,60.237 C78.566491,58.1755 78.566491,54.3045 78.566491,49.793 L78.566491,41.1655 L78.566491,41.1655 Z" id="Fill-5" fill="#FFFFFF"></path>
            <path d="M111.450203,44.55 C111.450203,38.222 111.450203,37.046 111.400903,35.723 C111.302301,34.302 110.907893,33.861 109.527468,33.469 C109.182361,33.3675 108.442847,33.322 107.798414,33.322 C107.358227,33.322 107.062422,33.175 107.062422,32.881 C107.062422,32.5835 107.407528,32.489 108.04844,32.489 C110.316282,32.489 113.080655,32.5835 114.313178,32.5835 C115.693604,32.5835 125.310804,32.636 126.14892,32.5835 C126.937735,32.538 127.627948,32.391 127.976576,32.342 C128.22308,32.2895 128.469585,32.1425 128.666788,32.1425 C128.913293,32.1425 128.962594,32.342 128.962594,32.538 C128.962594,32.832 128.716089,33.322 128.617487,35.233 C128.568187,35.674 128.469585,37.487 128.370983,37.977 C128.321682,38.173 128.22308,38.663 127.877974,38.663 C127.582168,38.663 127.529346,38.467 127.529346,38.124 C127.529346,37.83 127.480045,37.095 127.237062,36.605 C126.888434,35.87 126.543327,35.282 124.374087,35.086 C123.634573,34.988 118.454455,34.89 117.567039,34.89 C117.369835,34.89 117.271233,35.037 117.271233,35.282 L117.271233,45.579 C117.271233,45.8205 117.320534,46.02 117.567039,46.02 C118.553057,46.02 124.176883,46.02 125.162902,45.9185 C126.201742,45.8205 126.842654,45.726 127.237062,45.2815 C127.582168,44.9875 127.730071,44.7425 127.927275,44.7425 C128.124478,44.7425 128.26886,44.9385 128.26886,45.1835 C128.26886,45.432 128.173779,46.1145 127.927275,48.2285 C127.825151,49.058 127.730071,50.724 127.730071,51.018 C127.730071,51.3645 127.677249,51.9525 127.286363,51.9525 C126.990557,51.9525 126.888434,51.802 126.888434,51.606 C126.842654,51.165 126.842654,50.626 126.740531,50.087 C126.497548,49.254 125.951716,48.617 124.324786,48.47 C123.535971,48.372 118.602358,48.274 117.517738,48.274 C117.320534,48.274 117.271233,48.47 117.271233,48.715 L117.271233,52.047 C117.271233,53.4715 117.221932,56.9995 117.271233,58.228 C117.369835,61.07 118.70096,61.707 123.141564,61.707 C124.275485,61.707 126.099619,61.658 127.237062,61.168 C128.321682,60.6745 128.814691,59.7925 129.110497,58.0775 C129.209098,57.64 129.3077,57.4405 129.603506,57.4405 C129.948612,57.4405 129.997913,57.983 129.997913,58.424 C129.997913,59.355 129.652807,62.2005 129.406302,63.03 C129.110497,64.108 128.716089,64.108 127.085638,64.108 C123.831777,64.108 121.215307,64.059 119.095367,63.9645 C116.975428,63.9155 115.348497,63.863 114.063152,63.863 C113.573664,63.863 112.636947,63.9155 111.598106,63.9155 C110.562787,63.9645 109.478167,64.01 108.59075,64.01 C108.04844,64.01 107.749113,63.863 107.749113,63.569 C107.749113,63.3765 107.900537,63.128 108.442847,63.128 C109.083759,63.128 109.576769,63.0825 109.971176,62.981 C110.858592,62.7885 111.105097,62.001 111.253,60.776 C111.450203,59.012 111.450203,55.7255 111.450203,51.9 L111.450203,44.55" id="Fill-6" fill="#FFFFFF"></path>
            <path d="M137.477567,63.471 C136.787354,63.177 136.639451,62.981 136.639451,62.05 C136.639451,59.7925 136.836655,57.1955 136.885956,56.513 C136.885956,55.8725 137.083159,55.4315 137.428266,55.4315 C137.822673,55.4315 137.871974,55.82 137.871974,56.114 C137.871974,56.6565 138.023398,57.5385 138.266381,58.277 C139.203099,61.364 142.460481,62.3895 145.172032,62.3895 C148.922423,62.3895 151.190265,60.041 151.190265,57.101 C151.190265,55.2845 150.746557,53.4715 146.901085,51.214 L144.383217,49.744 C139.255921,46.755 137.576169,43.962 137.576169,40.2835 C137.576169,35.184 142.509782,31.901 148.528015,31.901 C151.338168,31.901 153.560231,32.2895 154.694152,32.5835 C155.088559,32.685 155.285763,32.832 155.285763,33.126 C155.285763,33.6615 155.13786,34.841 155.13786,38.124 C155.13786,39.006 154.940656,39.4505 154.59555,39.4505 C154.299744,39.4505 154.151842,39.202 154.151842,38.712 C154.151842,38.32 153.954638,37.046 153.01792,35.968 C152.377009,35.184 150.993061,34.008 148.182909,34.008 C145.07343,34.008 142.263277,35.625 142.263277,38.467 C142.263277,40.3325 142.95349,41.8025 146.851784,43.962 L148.626617,44.9385 C154.349045,48.078 156.123878,51.263 156.123878,55.0395 C156.123878,58.13 154.940656,60.629 151.781876,62.834 C149.711237,64.304 146.851784,64.5525 144.53112,64.5525 C142.016773,64.5525 139.351002,64.304 137.477567,63.471" id="Fill-7" fill="#FFFFFF"></path>
            <path d="M165.48401,44.55 C165.48401,38.222 165.48401,37.046 165.434709,35.723 C165.336107,34.302 164.892399,33.812 163.955681,33.5145 C163.462672,33.3675 162.916841,33.322 162.378052,33.322 C161.934344,33.322 161.684318,33.2205 161.684318,32.832 C161.684318,32.5835 162.029424,32.489 162.719637,32.489 C164.350089,32.489 167.308144,32.5835 168.544188,32.5835 C169.628808,32.5835 172.438961,32.489 174.115192,32.489 C174.657502,32.489 175.002609,32.5835 175.002609,32.832 C175.002609,33.2205 174.756104,33.322 174.312396,33.322 C173.868687,33.322 173.523581,33.3675 173.030572,33.469 C171.84735,33.6615 171.502243,34.253 171.403641,35.723 C171.30504,37.046 171.30504,38.222 171.30504,44.55 L171.30504,51.9 C171.30504,55.925 171.30504,59.2535 171.502243,61.021 C171.650146,62.148 171.945952,62.7885 173.227775,62.981 C173.819386,63.0825 174.805405,63.128 175.446317,63.128 C175.942847,63.128 176.140051,63.3765 176.140051,63.569 C176.140051,63.863 175.794945,64.01 175.298414,64.01 C172.438961,64.01 169.480906,63.863 168.294162,63.863 C167.308144,63.863 164.350089,64.01 162.621035,64.01 C162.082246,64.01 161.782919,63.863 161.782919,63.569 C161.782919,63.3765 161.934344,63.128 162.473132,63.128 C163.114044,63.128 163.610575,63.0825 164.001461,62.981 C164.892399,62.7885 165.138903,62.2005 165.286806,60.9685 C165.48401,59.2535 165.48401,55.925 165.48401,51.9 L165.48401,44.55" id="Fill-8" fill="#FFFFFF"></path>
            <path d="M191.219089,46.4085 L191.419814,46.4085 C192.898842,44.844 199.209359,38.663 200.494705,37.242 C201.727228,35.87 202.663945,34.89 202.663945,34.155 C202.663945,33.714 202.466741,33.42 202.072334,33.322 C201.677927,33.2205 201.480723,33.126 201.480723,32.881 C201.480723,32.5835 201.727228,32.489 202.170936,32.489 C203.107653,32.489 205.477619,32.5835 206.660841,32.5835 C207.991966,32.5835 210.407711,32.489 211.742357,32.489 C212.186065,32.489 212.481871,32.5835 212.481871,32.881 C212.481871,33.175 212.235366,33.322 211.837437,33.322 C211.200047,33.322 210.111905,33.5145 209.323091,33.812 C207.942665,34.302 206.562239,35.184 204.734584,36.899 C203.354158,38.173 196.892216,44.256 195.561091,45.7715 C197.08942,47.735 205.625522,56.5585 207.301753,58.13 C209.224489,59.845 210.90072,61.658 213.221385,62.589 C214.503208,63.128 215.390625,63.128 215.883634,63.128 C216.232262,63.128 216.475245,63.324 216.475245,63.569 C216.475245,63.863 216.232262,64.01 215.439926,64.01 L211.643755,64.01 C210.35841,64.01 209.569595,64.01 208.632878,63.9155 C206.315735,63.716 204.886008,62.834 203.009052,61.2135 C201.135617,59.6 192.80024,49.989 191.863523,48.715 L191.419814,48.1235 L191.219089,48.1235 L191.219089,51.9 C191.219089,55.7255 191.219089,59.012 191.317691,60.825 C191.419814,62.001 191.8107,62.7885 192.898842,62.981 C193.490453,63.0825 194.476471,63.128 195.018781,63.128 C195.363888,63.128 195.610392,63.3765 195.610392,63.569 C195.610392,63.863 195.265286,64.01 194.772277,64.01 C192.356532,64.01 189.247052,63.863 188.162432,63.863 C187.176414,63.863 184.412041,64.01 182.686509,64.01 C182.144199,64.01 181.848393,63.863 181.848393,63.569 C181.848393,63.3765 181.996296,63.128 182.538606,63.128 C183.179518,63.128 183.672527,63.0825 184.066934,62.981 C184.957872,62.7885 185.200856,62.001 185.35228,60.776 C185.549484,59.012 185.549484,55.7255 185.549484,51.9 L185.549484,44.55 C185.549484,38.222 185.549484,37.046 185.496661,35.723 C185.401581,34.302 185.003652,33.861 183.623226,33.469 C183.27812,33.3675 182.538606,33.322 181.897694,33.322 C181.453986,33.322 181.15818,33.175 181.15818,32.881 C181.15818,32.5835 181.503287,32.489 182.144199,32.489 C184.412041,32.489 187.176414,32.5835 188.211733,32.5835 C189.247052,32.5835 192.356532,32.489 193.786258,32.489 C194.42717,32.489 194.722976,32.5835 194.722976,32.881 C194.722976,33.175 194.476471,33.322 194.131365,33.322 C193.687657,33.322 193.441152,33.3675 192.898842,33.469 C191.71562,33.6615 191.366992,34.253 191.271912,35.723 C191.219089,37.046 191.219089,38.222 191.219089,44.55 L191.219089,46.4085" id="Fill-9" fill="#FFFFFF"></path>
            <path d="M225.092341,35.037 L218.6304,35.184 C216.112531,35.233 215.077212,35.527 214.4363,36.458 C213.992592,37.046 213.795388,37.5885 213.696786,37.879 C213.598184,38.222 213.499583,38.418 213.203777,38.418 C212.907972,38.418 212.80937,38.173 212.80937,37.732 C212.80937,37.046 213.647485,33.028 213.746087,32.685 C213.844689,32.1425 213.992592,31.901 214.239096,31.901 C214.584203,31.901 215.027911,32.244 216.112531,32.391 C217.397877,32.538 219.024807,32.5835 220.454534,32.5835 L238.065526,32.5835 C239.445952,32.5835 240.382669,32.489 241.027102,32.391 C241.713794,32.2895 242.0589,32.195 242.206803,32.195 C242.502609,32.195 242.555431,32.4365 242.555431,33.0735 C242.555431,33.959 242.453308,37.046 242.453308,38.124 C242.407528,38.5685 242.305405,38.8135 242.0589,38.8135 C241.713794,38.8135 241.615192,38.614 241.565891,37.977 L241.51659,37.536 C241.417988,36.458 240.284067,35.184 236.389295,35.135 L230.913371,35.037 L230.913371,51.9 C230.913371,55.7255 230.962672,59.012 231.159876,60.825 C231.307779,62.001 231.554283,62.7885 232.836107,62.981 C233.427718,63.0825 234.413736,63.128 235.054648,63.128 C235.547658,63.128 235.744861,63.3765 235.744861,63.569 C235.744861,63.863 235.399755,64.01 234.906746,64.01 C232.047292,64.01 229.135017,63.863 227.902494,63.863 C226.916475,63.863 223.95842,64.01 222.232888,64.01 C221.687057,64.01 221.391251,63.863 221.391251,63.569 C221.391251,63.3765 221.539154,63.128 222.084985,63.128 C222.722376,63.128 223.264686,63.0825 223.613314,62.981 C224.50073,62.7885 224.747235,62.001 224.895138,60.776 C225.092341,59.012 225.092341,55.7255 225.092341,51.9 L225.092341,35.037" id="Fill-10" fill="#FFFFFF"></path>
            <path d="M253.239644,58.3225 C253.338246,61.56 253.880556,62.54 254.718672,62.834 C255.461707,63.0825 256.296301,63.128 256.990035,63.128 C257.483045,63.128 257.729549,63.324 257.729549,63.569 C257.729549,63.9155 257.335142,64.01 256.743531,64.01 C253.929857,64.01 251.908519,63.863 251.119705,63.863 C250.725297,63.863 248.654659,64.01 246.432596,64.01 C245.840985,64.01 245.446578,63.9645 245.446578,63.569 C245.446578,63.324 245.742383,63.128 246.13679,63.128 C246.728402,63.128 247.517216,63.0825 248.108827,62.932 C249.24627,62.638 249.390651,61.5075 249.443473,57.8815 L249.834359,33.175 C249.834359,32.342 250.130165,31.754 250.577395,31.754 C251.119705,31.754 251.711316,32.391 252.45083,33.126 C252.99314,33.6615 259.504382,40.2835 265.818421,46.4085 C268.776476,49.303 274.548205,55.1865 275.192639,55.7745 L275.386321,55.7745 L274.942613,37.242 C274.896833,34.694 274.498904,33.959 273.463585,33.567 C272.822673,33.322 271.787354,33.322 271.195743,33.322 C270.653433,33.322 270.50553,33.126 270.50553,32.881 C270.50553,32.538 270.949238,32.489 271.59015,32.489 C273.857992,32.489 276.178657,32.5835 277.115375,32.5835 C277.608384,32.5835 279.235314,32.489 281.358775,32.489 C281.950386,32.489 282.341272,32.538 282.341272,32.881 C282.341272,33.126 282.098289,33.322 281.60528,33.322 C281.161571,33.322 280.812943,33.322 280.270633,33.469 C279.087411,33.812 278.742305,34.547 278.693004,36.899 L278.199995,63.177 C278.199995,64.108 277.854888,64.5035 277.509782,64.5035 C276.770268,64.5035 276.178657,64.059 275.734949,63.6215 C273.019877,61.119 267.593254,55.9705 263.05757,51.606 C258.32116,47.098 253.732653,42.0475 252.894538,41.3125 L252.746635,41.3125 L253.239644,58.3225" id="Fill-11" fill="#FFFFFF"></path>
            <path d="M291.990166,44.55 C291.990166,38.222 291.990166,37.046 291.940865,35.723 C291.842263,34.302 291.398555,33.812 290.461837,33.5145 C289.965307,33.3675 289.422997,33.322 288.880687,33.322 C288.436978,33.322 288.190474,33.2205 288.190474,32.832 C288.190474,32.5835 288.53558,32.489 289.225793,32.489 C290.852723,32.489 293.8143,32.5835 295.046823,32.5835 C296.131443,32.5835 298.945117,32.489 300.621348,32.489 C301.163658,32.489 301.508765,32.5835 301.508765,32.832 C301.508765,33.2205 301.26226,33.322 300.818552,33.322 C300.374843,33.322 300.029737,33.3675 299.536728,33.469 C298.353506,33.6615 298.008399,34.253 297.909798,35.723 C297.811196,37.046 297.811196,38.222 297.811196,44.55 L297.811196,51.9 C297.811196,55.925 297.811196,59.2535 298.008399,61.021 C298.156302,62.148 298.452108,62.7885 299.733932,62.981 C300.325543,63.0825 301.311561,63.128 301.952473,63.128 C302.445482,63.128 302.646207,63.3765 302.646207,63.569 C302.646207,63.863 302.297579,64.01 301.80457,64.01 C298.945117,64.01 295.98354,63.863 294.800318,63.863 C293.8143,63.863 290.852723,64.01 289.127191,64.01 C288.584881,64.01 288.289076,63.863 288.289076,63.569 C288.289076,63.3765 288.436978,63.128 288.979288,63.128 C289.6202,63.128 290.116731,63.0825 290.507617,62.981 C291.398555,62.7885 291.645059,62.2005 291.792962,60.9685 C291.990166,59.2535 291.990166,55.925 291.990166,51.9 L291.990166,44.55" id="Fill-12" fill="#FFFFFF"></path>
            <path d="M314.76719,58.3225 C314.865792,61.56 315.408102,62.54 316.246218,62.834 C316.985731,63.0825 317.823847,63.128 318.51406,63.128 C319.007069,63.128 319.253574,63.324 319.253574,63.569 C319.253574,63.9155 318.859166,64.01 318.271077,64.01 C315.457403,64.01 313.432544,63.863 312.643729,63.863 C312.252843,63.863 310.178683,64.01 307.960142,64.01 C307.368531,64.01 306.974124,63.9645 306.974124,63.569 C306.974124,63.324 307.269929,63.128 307.664336,63.128 C308.255947,63.128 309.044762,63.0825 309.636373,62.932 C310.770294,62.638 310.918197,61.5075 310.967498,57.8815 L311.361905,33.175 C311.361905,32.342 311.657711,31.754 312.104941,31.754 C312.643729,31.754 313.23534,32.391 313.978375,33.126 C314.520686,33.6615 321.031928,40.2835 327.345967,46.4085 C330.304022,49.303 336.075751,55.1865 336.716663,55.7745 L336.913867,55.7745 L336.470159,37.242 C336.420858,34.694 336.02645,33.959 334.991131,33.567 C334.350219,33.322 333.3149,33.322 332.723289,33.322 C332.177457,33.322 332.029554,33.126 332.029554,32.881 C332.029554,32.538 332.476784,32.489 333.117696,32.489 C335.385538,32.489 337.706203,32.5835 338.64292,32.5835 C339.132408,32.5835 340.76286,32.489 342.882799,32.489 C343.47441,32.489 343.868818,32.538 343.868818,32.881 C343.868818,33.126 343.622313,33.322 343.129304,33.322 C342.685596,33.322 342.340489,33.322 341.798179,33.469 C340.614957,33.812 340.269851,34.547 340.22055,36.899 L339.727541,63.177 C339.727541,64.108 339.382434,64.5035 339.037328,64.5035 C338.297814,64.5035 337.706203,64.059 337.258973,63.6215 C334.547423,61.119 329.1208,55.9705 324.581594,51.606 C319.848706,47.098 315.260199,42.0475 314.422084,41.3125 L314.274181,41.3125 L314.76719,58.3225" id="Fill-13" fill="#FFFFFF"></path>
            <path d="M379.50986,61.2135 C379.50986,62.344 379.50986,62.3895 378.96755,62.687 C376.058796,64.108 371.766095,64.5525 368.364331,64.5525 C357.70829,64.5525 348.284771,59.747 348.284771,48.2285 C348.284771,41.554 351.88726,36.899 355.884156,34.596 C360.025433,32.195 363.923727,31.901 367.575516,31.901 C370.582872,31.901 374.382565,32.391 375.269981,32.5835 C376.157398,32.7305 377.685726,32.979 378.721045,33.028 C379.214055,33.0735 379.312657,33.2205 379.312657,33.5145 C379.312657,34.008 379.016851,35.135 379.016851,40.378 C379.016851,41.0185 378.770346,41.3125 378.42524,41.3125 C378.129434,41.3125 378.030833,41.1165 377.981532,40.7735 C377.88293,39.839 377.636425,38.5195 376.502504,37.34 C375.217159,36.017 371.963298,34.155 367.078986,34.155 C364.712542,34.155 361.705186,34.204 358.694308,36.605 C356.278563,38.5685 354.697412,41.659 354.697412,46.755 C354.697412,55.7255 360.518442,62.246 369.794058,62.246 C370.927979,62.246 371.815395,62.246 372.850715,61.8015 C373.491627,61.5075 373.68883,61.07 373.68883,60.335 L373.68883,56.513 C373.68883,54.4515 373.68883,52.8835 373.639529,51.606 C373.59375,50.185 373.14652,49.744 371.766095,49.352 C371.420988,49.254 370.681474,49.205 370.089863,49.205 C369.695456,49.205 369.39965,49.009 369.39965,48.764 C369.39965,48.4175 369.744757,48.372 370.336368,48.372 C372.60421,48.372 375.713689,48.47 376.995513,48.47 C378.375939,48.47 380.643781,48.372 382.077029,48.372 C382.66864,48.372 382.964446,48.4175 382.964446,48.764 C382.964446,49.009 382.717941,49.205 382.422136,49.205 C382.077029,49.205 381.731923,49.254 381.235392,49.352 C380.05217,49.5445 379.611984,50.136 379.559161,51.606 C379.50986,52.8835 379.50986,54.5495 379.50986,56.6075 L379.50986,61.2135" id="Fill-14" fill="#FFFFFF"></path>
            <path d="M389.257356,63.471 C388.563622,63.177 388.415719,62.981 388.415719,62.05 C388.415719,59.7925 388.616444,57.1955 388.665745,56.513 C388.665745,55.8725 388.862949,55.4315 389.208055,55.4315 C389.602462,55.4315 389.651763,55.82 389.651763,56.114 C389.651763,56.6565 389.799666,57.5385 390.046171,58.277 C390.982888,61.364 394.236749,62.3895 396.951821,62.3895 C400.698691,62.3895 402.970054,60.041 402.970054,57.101 C402.970054,55.2845 402.526346,53.4715 398.677353,51.214 L396.163006,49.744 C391.032189,46.755 389.355958,43.962 389.355958,40.2835 C389.355958,35.184 394.28605,31.901 400.304283,31.901 C403.117957,31.901 405.336498,32.2895 406.470419,32.5835 C406.864827,32.685 407.06203,32.832 407.06203,33.126 C407.06203,33.6615 406.914128,34.841 406.914128,38.124 C406.914128,39.006 406.716924,39.4505 406.375339,39.4505 C406.076012,39.4505 405.928109,39.202 405.928109,38.712 C405.928109,38.32 405.730906,37.046 404.794188,35.968 C404.153276,35.184 402.772851,34.008 399.959177,34.008 C396.853219,34.008 394.043067,35.625 394.043067,38.467 C394.043067,40.3325 394.729758,41.8025 398.628052,43.962 L400.402885,44.9385 C406.125313,48.078 407.903668,51.263 407.903668,55.0395 C407.903668,58.13 406.716924,60.629 403.561665,62.834 C401.491027,64.304 398.628052,64.5525 396.310909,64.5525 C393.79304,64.5525 391.130791,64.304 389.257356,63.471" id="Fill-15" fill="#FFFFFF"></path>
            <path d="M421.05997,27.1445 C421.207872,26.308 421.503678,25.867 421.898085,25.867 C422.292493,25.867 422.588298,26.1155 423.22921,27.386 L436.695404,55.0395 L450.112297,27.0465 C450.506704,26.2625 450.753208,25.867 451.196917,25.867 C451.640625,25.867 451.939952,26.3605 452.087855,27.386 L456.574238,57.689 C457.017947,60.776 457.510956,62.2005 458.993505,62.638 C460.423231,63.0825 461.40925,63.128 462.050162,63.128 C462.49387,63.128 462.838976,63.177 462.838976,63.471 C462.838976,63.863 462.247365,64.01 461.557153,64.01 C460.321108,64.01 453.517581,63.863 451.542023,63.716 C450.408102,63.6215 450.112297,63.471 450.112297,63.177 C450.112297,62.932 450.3095,62.7885 450.654607,62.638 C450.950412,62.54 451.098315,61.903 450.901111,60.531 L447.943056,38.957 L447.745852,38.957 L436.991209,61.2135 C435.857288,63.52 435.610784,63.9645 435.167075,63.9645 C434.723367,63.9645 434.230358,62.981 433.441543,61.5075 C432.2548,59.2535 428.360027,51.753 427.768416,50.381 C427.324708,49.352 424.363131,43.1745 422.637599,39.496 L422.440395,39.496 L419.876748,59.012 C419.774624,59.894 419.728845,60.531 419.728845,61.315 C419.728845,62.246 420.369757,62.687 421.207872,62.883 C422.095289,63.0825 422.785502,63.128 423.278511,63.128 C423.672918,63.128 424.018025,63.226 424.018025,63.471 C424.018025,63.9155 423.574317,64.01 422.834803,64.01 C420.764164,64.01 418.542101,63.863 417.654685,63.863 C416.717967,63.863 414.351523,64.01 412.773894,64.01 C412.277363,64.01 411.882956,63.9155 411.882956,63.471 C411.882956,63.226 412.178761,63.128 412.671771,63.128 C413.066178,63.128 413.414806,63.128 414.15432,62.981 C415.534745,62.687 415.929153,60.776 416.175657,59.11 L421.05997,27.1445" id="Fill-16" fill="#FFFFFF"></path>
            <path d="M481.305692,51.214 C481.506417,51.214 481.555718,51.1195 481.506417,50.969 L477.410919,40.378 C477.361618,40.2345 477.312317,39.9895 477.213716,39.9895 C477.065813,39.9895 477.016512,40.2345 476.967211,40.378 L472.773111,50.92 C472.67451,51.1195 472.773111,51.214 472.921014,51.214 L481.305692,51.214 Z M472.033598,53.517 C471.787093,53.517 471.737792,53.5695 471.63919,53.811 L469.322047,59.404 C468.878339,60.433 468.677614,61.462 468.677614,61.952 C468.677614,62.687 469.075543,63.128 470.406667,63.128 L471.047579,63.128 C471.589889,63.128 471.688491,63.324 471.688491,63.569 C471.688491,63.9155 471.441987,64.01 470.998278,64.01 C469.568552,64.01 467.547214,63.863 466.163267,63.863 C465.719559,63.863 463.402415,64.01 461.131052,64.01 C460.592263,64.01 460.342237,63.9155 460.342237,63.569 C460.342237,63.324 460.49014,63.128 460.835246,63.128 C461.233175,63.128 461.722663,63.0825 462.120592,63.0825 C464.092628,62.7885 464.832142,61.5075 465.719559,59.404 L477.065813,33.175 C477.558822,31.9955 477.903928,31.5055 478.347637,31.5055 C478.988549,31.5055 479.185752,31.901 479.629461,32.832 C480.66478,35.135 487.919058,52.194 490.679909,58.522 C492.35614,62.295 493.592185,62.834 494.381,62.981 C495.01839,63.0825 495.514921,63.128 496.00793,63.128 C496.402337,63.128 496.599541,63.275 496.599541,63.569 C496.599541,63.9155 496.353036,64.01 494.722585,64.01 C493.194256,64.01 490.038997,64.01 486.387208,63.9155 C485.598393,63.863 485.105384,63.863 485.105384,63.569 C485.105384,63.324 485.203986,63.177 485.647694,63.128 C485.9435,63.0825 486.239305,62.687 486.042101,62.2005 L482.689639,53.811 C482.591037,53.5695 482.443134,53.517 482.245931,53.517 L472.033598,53.517 L472.033598,53.517 Z" id="Fill-17" fill="#FFFFFF"></path>
            <path d="M504.033415,58.3225 C504.128495,61.56 504.674327,62.54 505.512443,62.834 C506.251956,63.0825 507.086551,63.128 507.780285,63.128 C508.273294,63.128 508.516277,63.324 508.516277,63.569 C508.516277,63.9155 508.125391,64.01 507.53378,64.01 C504.720106,64.01 502.698769,63.863 501.909954,63.863 C501.515547,63.863 499.444908,64.01 497.222845,64.01 C496.631234,64.01 496.236827,63.9645 496.236827,63.569 C496.236827,63.324 496.532633,63.128 496.92704,63.128 C497.518651,63.128 498.310987,63.0825 498.902598,62.932 C500.036519,62.638 500.1809,61.5075 500.233723,57.8815 L500.62813,33.175 C500.62813,32.342 500.923936,31.754 501.367644,31.754 C501.909954,31.754 502.501565,32.391 503.241079,33.126 C503.78691,33.6615 510.294632,40.2835 516.608671,46.4085 C519.570247,49.303 525.341976,55.1865 525.979367,55.7745 L526.180092,55.7745 L525.732862,37.242 C525.683561,34.694 525.292675,33.959 524.253835,33.567 C523.616444,33.322 522.577603,33.322 521.985992,33.322 C521.443682,33.322 521.295779,33.126 521.295779,32.881 C521.295779,32.538 521.739488,32.489 522.383921,32.489 C524.651763,32.489 526.968907,32.5835 527.905624,32.5835 C528.398633,32.5835 530.025563,32.489 532.149024,32.489 C532.740635,32.489 533.135043,32.538 533.135043,32.881 C533.135043,33.126 532.885017,33.322 532.395529,33.322 C531.951821,33.322 531.606714,33.322 531.064404,33.469 C529.881182,33.812 529.532554,34.547 529.486775,36.899 L528.993766,63.177 C528.993766,64.108 528.645138,64.5035 528.300031,64.5035 C527.564039,64.5035 526.968907,64.059 526.525198,63.6215 C523.810126,61.119 518.387025,55.9705 513.847819,51.606 C509.11141,47.098 504.526424,42.0475 503.684787,41.3125 L503.536884,41.3125 L504.033415,58.3225" id="Fill-18" fill="#FFFFFF"></path>
            <path d="M538.83282,60.874 C538.83282,59.649 539.720237,57.8815 541.840176,57.8815 C543.519929,57.8815 544.851054,59.012 544.851054,60.727 C544.851054,62.442 543.66431,63.863 541.794397,63.863 C539.720237,63.863 538.83282,62.246 538.83282,60.874" id="Fill-19" fill="#FFFFFF"></path>
            <path d="M552.735679,63.471 C552.045466,63.177 551.897564,62.981 551.897564,62.05 C551.897564,59.7925 552.094767,57.1955 552.144068,56.513 C552.144068,55.8725 552.341272,55.4315 552.686378,55.4315 C553.080786,55.4315 553.130087,55.82 553.130087,56.114 C553.130087,56.6565 553.277989,57.5385 553.528015,58.277 C554.461211,61.364 557.715072,62.3895 560.433665,62.3895 C564.180535,62.3895 566.451899,60.041 566.451899,57.101 C566.451899,55.2845 566.004669,53.4715 562.159198,51.214 L559.641329,49.744 C554.510512,46.755 552.83076,43.962 552.83076,40.2835 C552.83076,35.184 557.767894,31.901 563.786128,31.901 C566.59628,31.901 568.818343,32.2895 569.952264,32.5835 C570.34315,32.685 570.543875,32.832 570.543875,33.126 C570.543875,33.6615 570.395972,34.841 570.395972,38.124 C570.395972,39.006 570.198769,39.4505 569.853662,39.4505 C569.554335,39.4505 569.406433,39.202 569.406433,38.712 C569.406433,38.32 569.21275,37.046 568.272511,35.968 C567.635121,35.184 566.251174,34.008 563.4375,34.008 C560.331542,34.008 557.52139,35.625 557.52139,38.467 C557.52139,40.3325 558.211603,41.8025 562.109897,43.962 L563.88473,44.9385 C569.607158,48.078 571.381991,51.263 571.381991,55.0395 C571.381991,58.13 570.198769,60.629 567.04351,62.834 C564.96935,64.304 562.109897,64.5525 559.789232,64.5525 C557.274885,64.5525 554.609114,64.304 552.735679,63.471" id="Fill-20" fill="#FFFFFF"></path>
            <path d="M580.742122,44.55 C580.742122,38.222 580.742122,37.046 580.692821,35.723 C580.590698,34.302 580.199812,33.861 578.815865,33.469 C578.47428,33.3675 577.731245,33.322 577.090333,33.322 C576.646625,33.322 576.350819,33.175 576.350819,32.881 C576.350819,32.5835 576.699447,32.489 577.336837,32.489 C579.608201,32.489 582.369053,32.5835 583.605097,32.5835 C584.982001,32.5835 594.602723,32.636 595.440839,32.5835 C596.233175,32.538 596.919866,32.391 597.264973,32.342 C597.511477,32.2895 597.757982,32.1425 597.958707,32.1425 C598.20169,32.1425 598.254513,32.342 598.254513,32.538 C598.254513,32.832 598.008008,33.322 597.905885,35.233 C597.860105,35.674 597.757982,37.487 597.662902,37.977 C597.610079,38.173 597.511477,38.663 597.166371,38.663 C596.870566,38.663 596.824786,38.467 596.824786,38.124 C596.824786,37.83 596.771964,37.095 596.528981,36.605 C596.180353,35.87 595.831725,35.282 593.666006,35.086 C592.922971,34.988 587.746374,34.89 586.858958,34.89 C586.661754,34.89 586.563152,35.037 586.563152,35.282 L586.563152,45.579 C586.563152,45.8205 586.608932,46.02 586.858958,46.02 C587.844976,46.02 593.468802,46.02 594.454821,45.9185 C595.49014,45.8205 596.131052,45.726 596.528981,45.2815 C596.870566,44.9875 597.018468,44.7425 597.215672,44.7425 C597.416397,44.7425 597.560778,44.9385 597.560778,45.1835 C597.560778,45.432 597.462177,46.1145 597.215672,48.2285 C597.120592,49.058 597.018468,50.724 597.018468,51.018 C597.018468,51.3645 596.969167,51.9525 596.57476,51.9525 C596.278955,51.9525 596.180353,51.802 596.180353,51.606 C596.131052,51.165 596.131052,50.626 596.03245,50.087 C595.785945,49.254 595.240114,48.617 593.616705,48.47 C592.82789,48.372 587.894277,48.274 586.809657,48.274 C586.608932,48.274 586.563152,48.47 586.563152,48.715 L586.563152,52.047 C586.563152,53.4715 586.513851,56.9995 586.563152,58.228 C586.661754,61.07 587.992879,61.707 592.433483,61.707 C593.567404,61.707 595.391538,61.658 596.528981,61.168 C597.610079,60.6745 598.103088,59.7925 598.398894,58.0775 C598.497496,57.64 598.599619,57.4405 598.895425,57.4405 C599.23701,57.4405 599.289832,57.983 599.289832,58.424 C599.289832,59.355 598.941204,62.2005 598.694699,63.03 C598.398894,64.108 598.008008,64.108 596.377556,64.108 C593.123696,64.108 590.510747,64.059 588.387286,63.9645 C586.267347,63.9155 584.636895,63.863 583.355071,63.863 C582.862062,63.863 581.925344,63.9155 580.886504,63.9155 C579.854706,63.9645 578.770086,64.01 577.882669,64.01 C577.336837,64.01 577.041032,63.863 577.041032,63.569 C577.041032,63.3765 577.188935,63.128 577.731245,63.128 C578.372157,63.128 578.865166,63.0825 579.259573,62.981 C580.150511,62.7885 580.397016,62.001 580.544919,60.776 C580.742122,59.012 580.742122,55.7255 580.742122,51.9 L580.742122,44.55" id="Fill-21" fill="#FFFFFF"></path>
        </g>
    </g>
</svg>