<?xml version="1.0" encoding="UTF-8"?>
<svg width="493px" height="121px" viewBox="0 0 493 121" version="1.1" xmlns="http://www.w3.org/2000/svg" xmlns:xlink="http://www.w3.org/1999/xlink">
    <!-- Generator: Sketch 43.2 (39069) - http://www.bohemiancoding.com/sketch -->
    <title>bm_logo_top</title>
    <desc>Created with Sketch.</desc>
    <defs></defs>
    <g id="Page-1" stroke="none" stroke-width="1" fill="none" fill-rule="evenodd">
        <g id="besiktningsman_se_image-center" transform="translate(-354.000000, -209.000000)">
            <g id="Group">
                <g id="logo" transform="translate(263.000000, 3.000000)">
                    <g id="bm_logo_top" transform="translate(91.000000, 208.000000)">
                        <g id="SIGN" transform="translate(209.000000, 0.000000)" stroke-width="4" stroke="#FFFFFF">
                            <polygon id="Stroke-1" points="0.646484375 68.3636364 55.3394023 68.3636364 55.3394023 10.7505455 0.646484375 10.7505455"></polygon>
                            <path d="M13.123543,27.9683636 L27.4413711,53.2665455 C27.4413711,53.2665455 53.1166484,-8.39163636 126.293,1.09272727" id="Stroke-3"></path>
                        </g>
                        <g id="BM.SE" transform="translate(0.000000, 82.000000)" fill="#FFFFFF">
                            <path d="M17.0288086,18.8069091 C16.0606758,18.1196364 15.0003398,17.8021818 13.1990859,17.7072727 C12.3692578,17.6614545 11.9082422,17.6614545 11.2167188,17.6614545 C11.0323125,17.6614545 10.9401094,17.7563636 10.9401094,17.9821818 L10.9401094,28.8476364 C10.9401094,31.8749091 11.0784141,32.6538182 12.5536641,33.2494545 C13.8016992,33.7534545 14.8620352,33.7992727 15.9223711,33.7992727 C17.9969414,33.7992727 21.5039531,32.6996364 21.5039531,27.9312727 C21.5039531,25.0872727 20.5325273,21.2418182 17.0288086,18.8069091 Z M10.9401094,15.1414545 C10.9401094,15.508 11.0784141,15.5996364 11.2628203,15.6487273 C11.6777344,15.7370909 12.3692578,15.7829091 13.4295938,15.7829091 C14.9542383,15.7829091 15.9684727,15.5996364 16.7521992,14.9123636 C17.9508398,13.9501818 18.6423633,12.2974545 18.6423633,10.0523636 C18.6423633,6.98254545 16.8444023,2.94727273 12.876375,2.94727273 C12.2309531,2.94727273 11.8160391,2.94727273 11.3550234,3.03890909 C11.0323125,3.13054545 10.9401094,3.31381818 10.9401094,3.81781818 L10.9401094,15.1414545 Z M5.40462891,14.3625455 C5.40462891,7.39490909 5.40462891,6.112 5.31242578,4.64254545 C5.22022266,3.08472727 4.85141016,2.35163636 3.33005859,2.03090909 C2.96124609,1.93927273 2.17751953,1.89345455 1.52880469,1.89345455 C1.0216875,1.89345455 0.745078125,1.80181818 0.745078125,1.47781818 C0.745078125,1.16036364 1.06778906,1.06872727 1.7593125,1.06872727 C4.20598828,1.06872727 7.11038672,1.20618182 8.03571094,1.20618182 C10.2946875,1.20618182 12.0926484,1.06872727 13.6633945,1.06872727 C22.0110703,1.06872727 23.4863203,5.51309091 23.4863203,7.94472727 C23.4863203,11.7018182 21.3195469,13.9501818 18.780668,15.9661818 C22.5642891,17.2523636 27.1744453,20.5054545 27.1744453,25.8694545 C27.1744453,30.7752727 23.3480156,35.8610909 14.8620352,35.8610909 C14.3055234,35.8610909 12.9718711,35.7694545 11.6316328,35.7236364 C10.2485859,35.6352727 8.86553906,35.5861818 8.17401563,35.5861818 C7.66360547,35.5861818 6.64937109,35.5861818 5.54293359,35.6352727 C4.48259766,35.6352727 3.28395703,35.7236364 2.35863281,35.7236364 C1.7593125,35.7236364 1.43989453,35.5861818 1.43989453,35.2654545 C1.43989453,35.0363636 1.62100781,34.8989091 2.17751953,34.8989091 C2.86904297,34.8989091 3.42226172,34.8072727 3.83717578,34.7156364 C4.75920703,34.5323636 4.98971484,33.5243636 5.17412109,32.1956364 C5.40462891,30.268 5.40462891,26.6483636 5.40462891,22.4298182 L5.40462891,14.3625455 L5.40462891,14.3625455 Z" id="Fill-5"></path>
                            <path d="M36.1543711,17.5272727 C36.1543711,11.6101818 36.1543711,10.5105455 36.1082695,9.27345455 C36.0160664,7.94472727 35.6472539,7.53236364 34.3564102,7.16581818 C34.0336992,7.07090909 33.3421758,7.02836364 32.7395625,7.02836364 C32.3279414,7.02836364 32.051332,6.89090909 32.051332,6.616 C32.051332,6.33781818 32.374043,6.24945455 32.9733633,6.24945455 C35.0940352,6.24945455 37.6790156,6.33781818 38.8315547,6.33781818 C40.1223984,6.33781818 49.1154961,6.38690909 49.8992227,6.33781818 C50.6368477,6.29527273 51.2822695,6.15781818 51.6082734,6.112 C51.8387812,6.06290909 52.0692891,5.92545455 52.2536953,5.92545455 C52.4842031,5.92545455 52.5303047,6.112 52.5303047,6.29527273 C52.5303047,6.57018182 52.2997969,7.02836364 52.2075937,8.81527273 C52.1614922,9.22763636 52.0692891,10.9229091 51.9770859,11.3810909 C51.9309844,11.5643636 51.8387812,12.0225455 51.5160703,12.0225455 C51.2394609,12.0225455 51.1900664,11.8392727 51.1900664,11.5185455 C51.1900664,11.2436364 51.1439648,10.5563636 50.91675,10.0981818 C50.5907461,9.41090909 50.2680352,8.86109091 48.2395664,8.67781818 C47.548043,8.58618182 42.7040859,8.49454545 41.8742578,8.49454545 C41.6898516,8.49454545 41.5976484,8.632 41.5976484,8.86109091 L41.5976484,18.4894545 C41.5976484,18.7152727 41.64375,18.9018182 41.8742578,18.9018182 C42.7962891,18.9018182 48.0551602,18.9018182 48.9771914,18.8069091 C49.9486172,18.7152727 50.5479375,18.6269091 50.91675,18.2112727 C51.2394609,17.9363636 51.3777656,17.7072727 51.5621719,17.7072727 C51.7465781,17.7072727 51.8815898,17.8905455 51.8815898,18.1196364 C51.8815898,18.352 51.7926797,18.9901818 51.5621719,20.9669091 C51.4666758,21.7425455 51.3777656,23.3003636 51.3777656,23.5752727 C51.3777656,23.8992727 51.3283711,24.4490909 50.9628516,24.4490909 C50.6862422,24.4490909 50.5907461,24.3083636 50.5907461,24.1250909 C50.5479375,23.7127273 50.5479375,23.2087273 50.4524414,22.7047273 C50.2252266,21.9258182 49.7148164,21.3301818 48.1934648,21.1927273 C47.4558398,21.1010909 42.8423906,21.0094545 41.8281562,21.0094545 C41.64375,21.0094545 41.5976484,21.1927273 41.5976484,21.4218182 L41.5976484,24.5374545 C41.5976484,25.8694545 41.5515469,29.1683636 41.5976484,30.3170909 C41.6898516,32.9745455 42.9345937,33.5701818 47.0870273,33.5701818 C48.1473633,33.5701818 49.8531211,33.5243636 50.91675,33.0661818 C51.9309844,32.6047273 52.392,31.78 52.6686094,30.1763636 C52.7608125,29.7672727 52.8530156,29.5807273 53.129625,29.5807273 C53.4523359,29.5807273 53.4984375,30.088 53.4984375,30.5003636 C53.4984375,31.3709091 53.1757266,34.0316364 52.9452187,34.8072727 C52.6686094,35.8152727 52.2997969,35.8152727 50.7751523,35.8152727 C47.7324492,35.8152727 45.2857734,35.7694545 43.3034062,35.6810909 C41.3210391,35.6352727 39.7996875,35.5861818 38.5977539,35.5861818 C38.1400312,35.5861818 37.2641016,35.6352727 36.2926758,35.6352727 C35.324543,35.6810909 34.3103086,35.7236364 33.4804805,35.7236364 C32.9733633,35.7236364 32.6934609,35.5861818 32.6934609,35.3112727 C32.6934609,35.1312727 32.8350586,34.8989091 33.3421758,34.8989091 C33.9414961,34.8989091 34.4025117,34.8563636 34.7713242,34.7614545 C35.6011523,34.5814545 35.8316602,33.8450909 35.9699648,32.6996364 C36.1543711,31.0501818 36.1543711,27.9770909 36.1543711,24.4 L36.1543711,17.5272727" id="Fill-6"></path>
                            <path d="M60.4927031,35.2196364 C59.8472813,34.9447273 59.7089766,34.7614545 59.7089766,33.8909091 C59.7089766,31.78 59.8933828,29.3516364 59.9394844,28.7134545 C59.9394844,28.1145455 60.1238906,27.7021818 60.4466016,27.7021818 C60.8154141,27.7021818 60.8615156,28.0654545 60.8615156,28.3403636 C60.8615156,28.8476364 61.0031133,29.6723636 61.2303281,30.3629091 C62.1062578,33.2494545 65.1522539,34.2083636 67.6878398,34.2083636 C71.1948516,34.2083636 73.3155234,32.0123636 73.3155234,29.2632727 C73.3155234,27.5647273 72.9006094,25.8694545 69.3046875,23.7585455 L66.9502148,22.384 C62.1556523,19.5890909 60.5849063,16.9774545 60.5849063,13.5378182 C60.5849063,8.76945455 65.1983555,5.69963636 70.8260391,5.69963636 C73.4538281,5.69963636 75.5316914,6.06290909 76.5920273,6.33781818 C76.9608398,6.43272727 77.1452461,6.57018182 77.1452461,6.84509091 C77.1452461,7.34581818 77.0069414,8.44872727 77.0069414,11.5185455 C77.0069414,12.3432727 76.8225352,12.7589091 76.4998242,12.7589091 C76.2232148,12.7589091 76.0849102,12.5265455 76.0849102,12.0683636 C76.0849102,11.7018182 75.9005039,10.5105455 75.0245742,9.50254545 C74.4252539,8.76945455 73.1311172,7.66981818 70.5033281,7.66981818 C67.5956367,7.66981818 64.9678477,9.18181818 64.9678477,11.8392727 C64.9678477,13.5836364 65.6132695,14.9581818 69.2585859,16.9774545 L70.9182422,17.8905455 C76.2693164,20.8261818 77.9289727,23.8043636 77.9289727,27.3356364 C77.9289727,30.2254545 76.8225352,32.5621818 73.8687422,34.624 C71.9324766,35.9985455 69.2585859,36.2309091 67.0885195,36.2309091 C64.7373398,36.2309091 62.2445625,35.9985455 60.4927031,35.2196364" id="Fill-7"></path>
                            <path d="M86.6816836,17.5272727 C86.6816836,11.6101818 86.6816836,10.5105455 86.635582,9.27345455 C86.5433789,7.94472727 86.1284648,7.48654545 85.2525352,7.20836364 C84.7915195,7.07090909 84.2811094,7.02836364 83.7772852,7.02836364 C83.3623711,7.02836364 83.1285703,6.93345455 83.1285703,6.57018182 C83.1285703,6.33781818 83.4512812,6.24945455 84.0967031,6.24945455 C85.6213477,6.24945455 88.3874414,6.33781818 89.5432734,6.33781818 C90.5575078,6.33781818 93.1852969,6.24945455 94.75275,6.24945455 C95.2598672,6.24945455 95.5825781,6.33781818 95.5825781,6.57018182 C95.5825781,6.93345455 95.3520703,7.02836364 94.9371562,7.02836364 C94.5222422,7.02836364 94.1995312,7.07090909 93.7385156,7.16581818 C92.6320781,7.34581818 92.3093672,7.89890909 92.2171641,9.27345455 C92.1249609,10.5105455 92.1249609,11.6101818 92.1249609,17.5272727 L92.1249609,24.4 C92.1249609,28.1636364 92.1249609,31.276 92.3093672,32.9287273 C92.4476719,33.9825455 92.7242812,34.5814545 93.9229219,34.7614545 C94.4761406,34.8563636 95.3981719,34.8989091 95.9974922,34.8989091 C96.4618008,34.8989091 96.646207,35.1312727 96.646207,35.3112727 C96.646207,35.5861818 96.3234961,35.7236364 95.8591875,35.7236364 C93.1852969,35.7236364 90.4192031,35.5861818 89.3094727,35.5861818 C88.3874414,35.5861818 85.6213477,35.7236364 84.0045,35.7236364 C83.5006758,35.7236364 83.2207734,35.5861818 83.2207734,35.3112727 C83.2207734,35.1312727 83.3623711,34.8989091 83.8661953,34.8989091 C84.4655156,34.8989091 84.9298242,34.8563636 85.2953437,34.7614545 C86.1284648,34.5814545 86.3589727,34.0316364 86.4972773,32.8796364 C86.6816836,31.276 86.6816836,28.1636364 86.6816836,24.4 L86.6816836,17.5272727" id="Fill-8"></path>
                            <path d="M110.746699,19.2650909 L110.934398,19.2650909 C112.317445,17.8021818 118.218445,12.0225455 119.420379,10.6938182 C120.572918,9.41090909 121.448848,8.49454545 121.448848,7.80727273 C121.448848,7.39490909 121.264441,7.12 120.895629,7.02836364 C120.526816,6.93345455 120.34241,6.84509091 120.34241,6.616 C120.34241,6.33781818 120.572918,6.24945455 120.987832,6.24945455 C121.863762,6.24945455 124.07993,6.33781818 125.186367,6.33781818 C126.431109,6.33781818 128.690086,6.24945455 129.938121,6.24945455 C130.353035,6.24945455 130.629645,6.33781818 130.629645,6.616 C130.629645,6.89090909 130.399137,7.02836364 130.027031,7.02836364 C129.431004,7.02836364 128.413477,7.20836364 127.675852,7.48654545 C126.385008,7.94472727 125.094164,8.76945455 123.385113,10.3730909 C122.09427,11.5643636 116.051672,17.2523636 114.80693,18.6694545 C116.236078,20.5054545 124.218234,28.756 125.785687,30.2254545 C127.583648,31.8290909 129.151102,33.5243636 131.321168,34.3949091 C132.519809,34.8989091 133.349637,34.8989091 133.810652,34.8989091 C134.136656,34.8989091 134.363871,35.0821818 134.363871,35.3112727 C134.363871,35.5861818 134.136656,35.7236364 133.395738,35.7236364 L129.845918,35.7236364 C128.643984,35.7236364 127.906359,35.7236364 127.03043,35.6352727 C124.863656,35.4487273 123.526711,34.624 121.771559,33.1087273 C120.019699,31.6 112.225242,22.6130909 111.349312,21.4218182 L110.934398,20.8687273 L110.746699,20.8687273 L110.746699,24.4 C110.746699,27.9770909 110.746699,31.0501818 110.838902,32.7454545 C110.934398,33.8450909 111.299918,34.5814545 112.317445,34.7614545 C112.870664,34.8563636 113.792695,34.8989091 114.299812,34.8989091 C114.622523,34.8989091 114.853031,35.1312727 114.853031,35.3112727 C114.853031,35.5861818 114.53032,35.7236364 114.069305,35.7236364 C111.810328,35.7236364 108.902637,35.5861818 107.888402,35.5861818 C106.966371,35.5861818 104.381391,35.7236364 102.767836,35.7236364 C102.260719,35.7236364 101.984109,35.5861818 101.984109,35.3112727 C101.984109,35.1312727 102.122414,34.8989091 102.629531,34.8989091 C103.228852,34.8989091 103.689867,34.8563636 104.05868,34.7614545 C104.891801,34.5814545 105.119016,33.8450909 105.260613,32.6996364 C105.44502,31.0501818 105.44502,27.9770909 105.44502,24.4 L105.44502,17.5272727 C105.44502,11.6101818 105.44502,10.5105455 105.395625,9.27345455 C105.306715,7.94472727 104.934609,7.53236364 103.643766,7.16581818 C103.321055,7.07090909 102.629531,7.02836364 102.030211,7.02836364 C101.615297,7.02836364 101.338687,6.89090909 101.338687,6.616 C101.338687,6.33781818 101.661398,6.24945455 102.260719,6.24945455 C104.381391,6.24945455 106.966371,6.33781818 107.934504,6.33781818 C108.902637,6.33781818 111.810328,6.24945455 113.147273,6.24945455 C113.746594,6.24945455 114.023203,6.33781818 114.023203,6.616 C114.023203,6.89090909 113.792695,7.02836364 113.469984,7.02836364 C113.05507,7.02836364 112.824562,7.07090909 112.317445,7.16581818 C111.211008,7.34581818 110.885004,7.89890909 110.796094,9.27345455 C110.746699,10.5105455 110.746699,11.6101818 110.746699,17.5272727 L110.746699,19.2650909" id="Fill-9"></path>
                            <path d="M142.421766,8.632 L136.379168,8.76945455 C134.024695,8.81527273 133.056563,9.09018182 132.457242,9.96072727 C132.042328,10.5105455 131.857922,11.0178182 131.765719,11.2894545 C131.673516,11.6101818 131.581312,11.7934545 131.304703,11.7934545 C131.028094,11.7934545 130.935891,11.5643636 130.935891,11.152 C130.935891,10.5105455 131.719617,6.75345455 131.81182,6.43272727 C131.904023,5.92545455 132.042328,5.69963636 132.272836,5.69963636 C132.595547,5.69963636 133.010461,6.02036364 134.024695,6.15781818 C135.226629,6.29527273 136.74798,6.33781818 138.084926,6.33781818 L154.553063,6.33781818 C155.843906,6.33781818 156.719836,6.24945455 157.322449,6.15781818 C157.964578,6.06290909 158.287289,5.97454545 158.425594,5.97454545 C158.702203,5.97454545 158.751598,6.20036364 158.751598,6.796 C158.751598,7.624 158.656102,10.5105455 158.656102,11.5185455 C158.613293,11.9341818 158.517797,12.1632727 158.287289,12.1632727 C157.964578,12.1632727 157.872375,11.9767273 157.826273,11.3810909 L157.780172,10.9687273 C157.687969,9.96072727 156.627633,8.76945455 152.985609,8.72363636 L147.865043,8.632 L147.865043,24.4 C147.865043,27.9770909 147.911145,31.0501818 148.095551,32.7454545 C148.233855,33.8450909 148.464363,34.5814545 149.663004,34.7614545 C150.216223,34.8563636 151.138254,34.8989091 151.737574,34.8989091 C152.19859,34.8989091 152.382996,35.1312727 152.382996,35.3112727 C152.382996,35.5861818 152.060285,35.7236364 151.59927,35.7236364 C148.925379,35.7236364 146.202094,35.5861818 145.049555,35.5861818 C144.127523,35.5861818 141.36143,35.7236364 139.747875,35.7236364 C139.237465,35.7236364 138.960855,35.5861818 138.960855,35.3112727 C138.960855,35.1312727 139.09916,34.8989091 139.60957,34.8989091 C140.205598,34.8989091 140.712715,34.8563636 141.038719,34.7614545 C141.868547,34.5814545 142.099055,33.8450909 142.237359,32.6996364 C142.421766,31.0501818 142.421766,27.9770909 142.421766,24.4 L142.421766,8.632" id="Fill-10"></path>
                            <path d="M168.742465,30.4054545 C168.834668,33.4327273 169.341785,34.3490909 170.125512,34.624 C170.820328,34.8563636 171.600762,34.8989091 172.249477,34.8989091 C172.710492,34.8989091 172.941,35.0821818 172.941,35.3112727 C172.941,35.6352727 172.572188,35.7236364 172.018969,35.7236364 C169.387887,35.7236364 167.497723,35.5861818 166.760098,35.5861818 C166.391285,35.5861818 164.45502,35.7236364 162.377156,35.7236364 C161.823938,35.7236364 161.455125,35.6810909 161.455125,35.3112727 C161.455125,35.0821818 161.731734,34.8989091 162.100547,34.8989091 C162.653766,34.8989091 163.391391,34.8563636 163.944609,34.7156364 C165.008238,34.4407273 165.14325,33.3836364 165.192645,29.9930909 L165.558164,6.89090909 C165.558164,6.112 165.834773,5.56218182 166.25298,5.56218182 C166.760098,5.56218182 167.313316,6.15781818 168.00484,6.84509091 C168.511957,7.34581818 174.600656,13.5378182 180.504949,19.2650909 C183.271043,21.9716364 188.668219,27.4730909 189.270832,28.0229091 L189.451945,28.0229091 L189.037031,10.6938182 C188.994223,8.31127273 188.622117,7.624 187.653984,7.25745455 C187.054664,7.02836364 186.086531,7.02836364 185.533313,7.02836364 C185.026195,7.02836364 184.887891,6.84509091 184.887891,6.616 C184.887891,6.29527273 185.302805,6.24945455 185.902125,6.24945455 C188.022797,6.24945455 190.192863,6.33781818 191.068793,6.33781818 C191.529809,6.33781818 193.05116,6.24945455 195.03682,6.24945455 C195.590039,6.24945455 195.955559,6.29527273 195.955559,6.616 C195.955559,6.84509091 195.728344,7.02836364 195.267328,7.02836364 C194.852414,7.02836364 194.52641,7.02836364 194.019293,7.16581818 C192.912855,7.48654545 192.590145,8.17381818 192.544043,10.3730909 L192.083027,34.9447273 C192.083027,35.8152727 191.760316,36.1850909 191.437605,36.1850909 C190.746082,36.1850909 190.192863,35.7694545 189.777949,35.3603636 C187.23907,33.0203636 182.164605,28.2061818 177.923262,24.1250909 C173.494219,19.9098182 169.20348,15.1872727 168.419754,14.5 L168.281449,14.5 L168.742465,30.4054545" id="Fill-11"></path>
                            <path d="M204.978293,17.5272727 C204.978293,11.6101818 204.978293,10.5105455 204.932191,9.27345455 C204.839988,7.94472727 204.425074,7.48654545 203.549145,7.20836364 C203.084836,7.07090909 202.577719,7.02836364 202.070602,7.02836364 C201.655687,7.02836364 201.42518,6.93345455 201.42518,6.57018182 C201.42518,6.33781818 201.747891,6.24945455 202.393312,6.24945455 C203.914664,6.24945455 206.684051,6.33781818 207.83659,6.33781818 C208.850824,6.33781818 211.481906,6.24945455 213.049359,6.24945455 C213.556477,6.24945455 213.879187,6.33781818 213.879187,6.57018182 C213.879187,6.93345455 213.64868,7.02836364 213.233766,7.02836364 C212.818852,7.02836364 212.496141,7.07090909 212.035125,7.16581818 C210.928687,7.34581818 210.605977,7.89890909 210.513773,9.27345455 C210.42157,10.5105455 210.42157,11.6101818 210.42157,17.5272727 L210.42157,24.4 C210.42157,28.1636364 210.42157,31.276 210.605977,32.9287273 C210.744281,33.9825455 211.020891,34.5814545 212.219531,34.7614545 C212.77275,34.8563636 213.694781,34.8989091 214.294102,34.8989091 C214.755117,34.8989091 214.942816,35.1312727 214.942816,35.3112727 C214.942816,35.5861818 214.616812,35.7236364 214.155797,35.7236364 C211.481906,35.7236364 208.71252,35.5861818 207.606082,35.5861818 C206.684051,35.5861818 203.914664,35.7236364 202.301109,35.7236364 C201.793992,35.7236364 201.517383,35.5861818 201.517383,35.3112727 C201.517383,35.1312727 201.655687,34.8989091 202.162805,34.8989091 C202.762125,34.8989091 203.226434,34.8563636 203.591953,34.7614545 C204.425074,34.5814545 204.655582,34.0316364 204.793887,32.8796364 C204.978293,31.276 204.978293,28.1636364 204.978293,24.4 L204.978293,17.5272727" id="Fill-12"></path>
                            <path d="M226.277215,30.4054545 C226.369418,33.4327273 226.876535,34.3490909 227.660262,34.624 C228.351785,34.8563636 229.135512,34.8989091 229.780934,34.8989091 C230.241949,34.8989091 230.472457,35.0821818 230.472457,35.3112727 C230.472457,35.6352727 230.103645,35.7236364 229.553719,35.7236364 C226.922637,35.7236364 225.02918,35.5861818 224.291555,35.5861818 C223.926035,35.5861818 221.986477,35.7236364 219.911906,35.7236364 C219.358687,35.7236364 218.989875,35.6810909 218.989875,35.3112727 C218.989875,35.0821818 219.266484,34.8989091 219.635297,34.8989091 C220.188516,34.8989091 220.926141,34.8563636 221.479359,34.7156364 C222.539695,34.4407273 222.678,33.3836364 222.724102,29.9930909 L223.092914,6.89090909 C223.092914,6.112 223.369523,5.56218182 223.78773,5.56218182 C224.291555,5.56218182 224.844773,6.15781818 225.53959,6.84509091 C226.046707,7.34581818 232.135406,13.5378182 238.039699,19.2650909 C240.805793,21.9716364 246.202969,27.4730909 246.802289,28.0229091 L246.986695,28.0229091 L246.571781,10.6938182 C246.52568,8.31127273 246.156867,7.624 245.188734,7.25745455 C244.589414,7.02836364 243.621281,7.02836364 243.068062,7.02836364 C242.557652,7.02836364 242.419348,6.84509091 242.419348,6.616 C242.419348,6.29527273 242.837555,6.24945455 243.436875,6.24945455 C245.557547,6.24945455 247.727613,6.33781818 248.603543,6.33781818 C249.061266,6.33781818 250.58591,6.24945455 252.568277,6.24945455 C253.121496,6.24945455 253.490309,6.29527273 253.490309,6.616 C253.490309,6.84509091 253.259801,7.02836364 252.798785,7.02836364 C252.383871,7.02836364 252.06116,7.02836364 251.554043,7.16581818 C250.447605,7.48654545 250.124895,8.17381818 250.078793,10.3730909 L249.617777,34.9447273 C249.617777,35.8152727 249.295066,36.1850909 248.972355,36.1850909 C248.280832,36.1850909 247.727613,35.7694545 247.309406,35.3603636 C244.77382,33.0203636 239.699355,28.2061818 235.454719,24.1250909 C231.028969,19.9098182 226.73823,15.1872727 225.954504,14.5 L225.816199,14.5 L226.277215,30.4054545" id="Fill-13"></path>
                            <path d="M286.818445,33.1087273 C286.818445,34.1658182 286.818445,34.2083636 286.311328,34.4865455 C283.591336,35.8152727 279.577207,36.2309091 276.396199,36.2309091 C266.431676,36.2309091 257.619691,31.7374545 257.619691,20.9669091 C257.619691,14.7258182 260.988398,10.3730909 264.725918,8.21963636 C268.598449,5.97454545 272.243766,5.69963636 275.658574,5.69963636 C278.47077,5.69963636 282.023883,6.15781818 282.853711,6.33781818 C283.683539,6.47527273 285.112687,6.70763636 286.08082,6.75345455 C286.541836,6.796 286.634039,6.93345455 286.634039,7.20836364 C286.634039,7.66981818 286.35743,8.72363636 286.35743,13.6261818 C286.35743,14.2250909 286.126922,14.5 285.804211,14.5 C285.527602,14.5 285.435398,14.3167273 285.389297,13.996 C285.297094,13.1221818 285.066586,11.8883636 284.00625,10.7854545 C282.804316,9.54836364 279.761613,7.80727273 275.194266,7.80727273 C272.981391,7.80727273 270.169195,7.85309091 267.353707,10.0981818 C265.09473,11.9341818 263.616187,14.824 263.616187,19.5890909 C263.616187,27.9770909 269.059465,34.0741818 277.733145,34.0741818 C278.79348,34.0741818 279.623309,34.0741818 280.591441,33.6585455 C281.190762,33.3836364 281.375168,32.9745455 281.375168,32.2872727 L281.375168,28.7134545 C281.375168,26.7858182 281.375168,25.3196364 281.329066,24.1250909 C281.286258,22.7963636 280.868051,22.384 279.577207,22.0174545 C279.254496,21.9258182 278.562973,21.88 278.009754,21.88 C277.640941,21.88 277.364332,21.6967273 277.364332,21.4676364 C277.364332,21.1436364 277.687043,21.1010909 278.240262,21.1010909 C280.360934,21.1010909 283.268625,21.1927273 284.467266,21.1927273 C285.758109,21.1927273 287.878781,21.1010909 289.21902,21.1010909 C289.772238,21.1010909 290.048848,21.1436364 290.048848,21.4676364 C290.048848,21.6967273 289.81834,21.88 289.54173,21.88 C289.21902,21.88 288.896309,21.9258182 288.432,22.0174545 C287.325562,22.1974545 286.913941,22.7505455 286.864547,24.1250909 C286.818445,25.3196364 286.818445,26.8774545 286.818445,28.8018182 L286.818445,33.1087273" id="Fill-14"></path>
                            <path d="M295.933383,35.2196364 C295.284668,34.9447273 295.146363,34.7614545 295.146363,33.8909091 C295.146363,31.78 295.334063,29.3516364 295.380164,28.7134545 C295.380164,28.1145455 295.56457,27.7021818 295.887281,27.7021818 C296.256094,27.7021818 296.302195,28.0654545 296.302195,28.3403636 C296.302195,28.8476364 296.4405,29.6723636 296.671008,30.3629091 C297.546938,33.2494545 300.589641,34.2083636 303.12852,34.2083636 C306.632238,34.2083636 308.756203,32.0123636 308.756203,29.2632727 C308.756203,27.5647273 308.341289,25.8694545 304.742074,23.7585455 L302.390895,22.384 C297.593039,19.5890909 296.025586,16.9774545 296.025586,13.5378182 C296.025586,8.76945455 300.635742,5.69963636 306.263426,5.69963636 C308.894508,5.69963636 310.969078,6.06290909 312.029414,6.33781818 C312.398227,6.43272727 312.582633,6.57018182 312.582633,6.84509091 C312.582633,7.34581818 312.444328,8.44872727 312.444328,11.5185455 C312.444328,12.3432727 312.259922,12.7589091 311.940504,12.7589091 C311.660602,12.7589091 311.522297,12.5265455 311.522297,12.0683636 C311.522297,11.7018182 311.337891,10.5105455 310.461961,9.50254545 C309.862641,8.76945455 308.571797,7.66981818 305.940715,7.66981818 C303.036316,7.66981818 300.408527,9.18181818 300.408527,11.8392727 C300.408527,13.5836364 301.050656,14.9581818 304.695973,16.9774545 L306.355629,17.8905455 C311.706703,20.8261818 313.369652,23.8043636 313.369652,27.3356364 C313.369652,30.2254545 312.259922,32.5621818 309.309422,34.624 C307.373156,35.9985455 304.695973,36.2309091 302.529199,36.2309091 C300.174727,36.2309091 297.685242,35.9985455 295.933383,35.2196364" id="Fill-15"></path>
                            <path d="M325.672184,1.252 C325.810488,0.469818182 326.087098,0.0574545455 326.45591,0.0574545455 C326.824723,0.0574545455 327.101332,0.289818182 327.700652,1.47781818 L340.292965,27.3356364 L352.839176,1.16036364 C353.207988,0.427272727 353.438496,0.0574545455 353.85341,0.0574545455 C354.268324,0.0574545455 354.548227,0.518909091 354.686531,1.47781818 L358.881773,29.8130909 C359.296687,32.6996364 359.757703,34.0316364 361.144043,34.4407273 C362.480988,34.8563636 363.40302,34.8989091 364.00234,34.8989091 C364.417254,34.8989091 364.739965,34.9447273 364.739965,35.2196364 C364.739965,35.5861818 364.186746,35.7236364 363.541324,35.7236364 C362.385492,35.7236364 356.023477,35.5861818 354.176121,35.4487273 C353.115785,35.3603636 352.839176,35.2196364 352.839176,34.9447273 C352.839176,34.7156364 353.023582,34.5814545 353.346293,34.4407273 C353.622902,34.3490909 353.761207,33.7534545 353.576801,32.4705455 L350.810707,12.2974545 L350.626301,12.2974545 L340.569574,33.1087273 C339.509238,35.2654545 339.27873,35.6810909 338.863816,35.6810909 C338.448902,35.6810909 337.987887,34.7614545 337.250262,33.3836364 C336.140531,31.276 332.498508,24.2625455 331.945289,22.9796364 C331.530375,22.0174545 328.760988,16.2410909 327.147434,12.8014545 L326.963027,12.8014545 L324.565746,31.0501818 C324.47025,31.8749091 324.427441,32.4705455 324.427441,33.2036364 C324.427441,34.0741818 325.026762,34.4865455 325.810488,34.6698182 C326.640316,34.8563636 327.285738,34.8989091 327.746754,34.8989091 C328.115566,34.8989091 328.438277,34.9905455 328.438277,35.2196364 C328.438277,35.6352727 328.023363,35.7236364 327.33184,35.7236364 C325.395574,35.7236364 323.317711,35.5861818 322.487883,35.5861818 C321.611953,35.5861818 319.399078,35.7236364 317.923828,35.7236364 C317.45952,35.7236364 317.090707,35.6352727 317.090707,35.2196364 C317.090707,34.9905455 317.367316,34.8989091 317.828332,34.8989091 C318.197145,34.8989091 318.523148,34.8989091 319.214672,34.7614545 C320.505516,34.4865455 320.874328,32.6996364 321.104836,31.1418182 L325.672184,1.252" id="Fill-16"></path>
                            <path d="M382.008293,23.7585455 C382.195992,23.7585455 382.242094,23.6701818 382.195992,23.5294545 L378.36627,13.6261818 C378.320168,13.492 378.274066,13.2629091 378.181863,13.2629091 C378.043559,13.2629091 377.997457,13.492 377.951355,13.6261818 L374.02943,23.4836364 C373.937227,23.6701818 374.02943,23.7585455 374.167734,23.7585455 L382.008293,23.7585455 Z M373.337906,25.912 C373.107398,25.912 373.061297,25.9610909 372.969094,26.1869091 L370.80232,31.4167273 C370.387406,32.3789091 370.199707,33.3410909 370.199707,33.7992727 C370.199707,34.4865455 370.571812,34.8989091 371.816555,34.8989091 L372.415875,34.8989091 C372.922992,34.8989091 373.015195,35.0821818 373.015195,35.3112727 C373.015195,35.6352727 372.784687,35.7236364 372.369773,35.7236364 C371.032828,35.7236364 369.142664,35.5861818 367.848527,35.5861818 C367.433613,35.5861818 365.26684,35.7236364 363.142875,35.7236364 C362.639051,35.7236364 362.40525,35.6352727 362.40525,35.3112727 C362.40525,35.0821818 362.543555,34.8989091 362.866266,34.8989091 C363.238371,34.8989091 363.696094,34.8563636 364.068199,34.8563636 C365.912262,34.5814545 366.603785,33.3836364 367.433613,31.4167273 L378.043559,6.89090909 C378.504574,5.788 378.827285,5.32981818 379.242199,5.32981818 C379.84152,5.32981818 380.025926,5.69963636 380.44084,6.57018182 C381.408973,8.72363636 388.192488,24.6749091 390.774176,30.592 C392.341629,34.12 393.497461,34.624 394.235086,34.7614545 C394.831113,34.8563636 395.295422,34.8989091 395.756437,34.8989091 C396.12525,34.8989091 396.309656,35.0363636 396.309656,35.3112727 C396.309656,35.6352727 396.079148,35.7236364 394.554504,35.7236364 C393.125355,35.7236364 390.174855,35.7236364 386.760047,35.6352727 C386.022422,35.5861818 385.561406,35.5861818 385.561406,35.3112727 C385.561406,35.0821818 385.653609,34.9447273 386.068523,34.8989091 C386.345133,34.8563636 386.621742,34.4865455 386.437336,34.0316364 L383.30243,26.1869091 C383.210227,25.9610909 383.071922,25.912 382.887516,25.912 L373.337906,25.912 L373.337906,25.912 Z" id="Fill-17"></path>
                            <path d="M403.261113,30.4054545 C403.350023,33.4327273 403.860434,34.3490909 404.64416,34.624 C405.335684,34.8563636 406.116117,34.8989091 406.764832,34.8989091 C407.225848,34.8989091 407.453062,35.0821818 407.453062,35.3112727 C407.453062,35.6352727 407.087543,35.7236364 406.534324,35.7236364 C403.903242,35.7236364 402.013078,35.5861818 401.275453,35.5861818 C400.906641,35.5861818 398.970375,35.7236364 396.892512,35.7236364 C396.339293,35.7236364 395.97048,35.6810909 395.97048,35.3112727 C395.97048,35.0821818 396.24709,34.8989091 396.615902,34.8989091 C397.169121,34.8989091 397.910039,34.8563636 398.463258,34.7156364 C399.523594,34.4407273 399.658605,33.3836364 399.708,29.9930909 L400.076812,6.89090909 C400.076812,6.112 400.353422,5.56218182 400.768336,5.56218182 C401.275453,5.56218182 401.828672,6.15781818 402.520195,6.84509091 C403.030605,7.34581818 409.116012,13.5378182 415.020305,19.2650909 C417.789691,21.9716364 423.186867,27.4730909 423.782895,28.0229091 L423.970594,28.0229091 L423.552387,10.6938182 C423.506285,8.31127273 423.140766,7.624 422.16934,7.25745455 C421.573312,7.02836364 420.601887,7.02836364 420.048668,7.02836364 C419.541551,7.02836364 419.403246,6.84509091 419.403246,6.616 C419.403246,6.29527273 419.81816,6.24945455 420.420773,6.24945455 C422.541445,6.24945455 424.708219,6.33781818 425.584148,6.33781818 C426.045164,6.33781818 427.566516,6.24945455 429.552176,6.24945455 C430.105395,6.24945455 430.474207,6.29527273 430.474207,6.616 C430.474207,6.84509091 430.240406,7.02836364 429.782684,7.02836364 C429.36777,7.02836364 429.045059,7.02836364 428.537941,7.16581818 C427.431504,7.48654545 427.1055,8.17381818 427.062691,10.3730909 L426.601676,34.9447273 C426.601676,35.8152727 426.275672,36.1850909 425.952961,36.1850909 C425.26473,36.1850909 424.708219,35.7694545 424.293305,35.3603636 C421.754426,33.0203636 416.683254,28.2061818 412.438617,24.1250909 C408.009574,19.9098182 403.722129,15.1872727 402.935109,14.5 L402.796805,14.5 L403.261113,30.4054545" id="Fill-18"></path>
                            <path d="M435.80223,32.7912727 C435.80223,31.6458182 436.632059,29.9930909 438.614426,29.9930909 C440.185172,29.9930909 441.429914,31.0501818 441.429914,32.6538182 C441.429914,34.2574545 440.320184,35.5861818 438.571617,35.5861818 C436.632059,35.5861818 435.80223,34.0741818 435.80223,32.7912727" id="Fill-19"></path>
                            <path d="M448.802871,35.2196364 C448.157449,34.9447273 448.019145,34.7614545 448.019145,33.8909091 C448.019145,31.78 448.203551,29.3516364 448.249652,28.7134545 C448.249652,28.1145455 448.434059,27.7021818 448.75677,27.7021818 C449.125582,27.7021818 449.171684,28.0654545 449.171684,28.3403636 C449.171684,28.8476364 449.309988,29.6723636 449.543789,30.3629091 C450.416426,33.2494545 453.459129,34.2083636 456.001301,34.2083636 C459.50502,34.2083636 461.628984,32.0123636 461.628984,29.2632727 C461.628984,27.5647273 461.210777,25.8694545 457.614855,23.7585455 L455.260383,22.384 C450.462527,19.5890909 448.891781,16.9774545 448.891781,13.5378182 C448.891781,8.76945455 453.508523,5.69963636 459.136207,5.69963636 C461.763996,5.69963636 463.841859,6.06290909 464.902195,6.33781818 C465.267715,6.43272727 465.455414,6.57018182 465.455414,6.84509091 C465.455414,7.34581818 465.317109,8.44872727 465.317109,11.5185455 C465.317109,12.3432727 465.132703,12.7589091 464.809992,12.7589091 C464.53009,12.7589091 464.391785,12.5265455 464.391785,12.0683636 C464.391785,11.7018182 464.210672,10.5105455 463.331449,9.50254545 C462.735422,8.76945455 461.441285,7.66981818 458.810203,7.66981818 C455.905805,7.66981818 453.278016,9.18181818 453.278016,11.8392727 C453.278016,13.5836364 453.923438,14.9581818 457.568754,16.9774545 L459.22841,17.8905455 C464.579484,20.8261818 466.239141,23.8043636 466.239141,27.3356364 C466.239141,30.2254545 465.132703,32.5621818 462.182203,34.624 C460.242645,35.9985455 457.568754,36.2309091 455.398688,36.2309091 C453.047508,36.2309091 450.55473,35.9985455 448.802871,35.2196364" id="Fill-20"></path>
                            <path d="M474.991852,17.5272727 C474.991852,11.6101818 474.991852,10.5105455 474.94575,9.27345455 C474.850254,7.94472727 474.484734,7.53236364 473.190598,7.16581818 C472.87118,7.07090909 472.176363,7.02836364 471.577043,7.02836364 C471.162129,7.02836364 470.88552,6.89090909 470.88552,6.616 C470.88552,6.33781818 471.211523,6.24945455 471.807551,6.24945455 C473.931516,6.24945455 476.513203,6.33781818 477.669035,6.33781818 C478.956586,6.33781818 487.952977,6.38690909 488.736703,6.33781818 C489.477621,6.29527273 490.11975,6.15781818 490.442461,6.112 C490.672969,6.06290909 490.903477,5.92545455 491.091176,5.92545455 C491.318391,5.92545455 491.367785,6.112 491.367785,6.29527273 C491.367785,6.57018182 491.137277,7.02836364 491.041781,8.81527273 C490.998973,9.22763636 490.903477,10.9229091 490.814566,11.3810909 C490.765172,11.5643636 490.672969,12.0225455 490.350258,12.0225455 C490.073648,12.0225455 490.03084,11.8392727 490.03084,11.5185455 C490.03084,11.2436364 489.981445,10.5563636 489.75423,10.0981818 C489.428227,9.41090909 489.102223,8.86109091 487.077047,8.67781818 C486.38223,8.58618182 481.541566,8.49454545 480.711738,8.49454545 C480.527332,8.49454545 480.435129,8.632 480.435129,8.86109091 L480.435129,18.4894545 C480.435129,18.7152727 480.477937,18.9018182 480.711738,18.9018182 C481.63377,18.9018182 486.892641,18.9018182 487.814672,18.8069091 C488.782805,18.7152727 489.382125,18.6269091 489.75423,18.2112727 C490.073648,17.9363636 490.211953,17.7072727 490.396359,17.7072727 C490.584059,17.7072727 490.71907,17.8905455 490.71907,18.1196364 C490.71907,18.352 490.626867,18.9901818 490.396359,20.9669091 C490.307449,21.7425455 490.211953,23.3003636 490.211953,23.5752727 C490.211953,23.8992727 490.165852,24.4490909 489.797039,24.4490909 C489.52043,24.4490909 489.428227,24.3083636 489.428227,24.1250909 C489.382125,23.7127273 489.382125,23.2087273 489.289922,22.7047273 C489.059414,21.9258182 488.549004,21.3301818 487.030945,21.1927273 C486.29332,21.1010909 481.679871,21.0094545 480.665637,21.0094545 C480.477937,21.0094545 480.435129,21.1927273 480.435129,21.4218182 L480.435129,24.5374545 C480.435129,25.8694545 480.389027,29.1683636 480.435129,30.3170909 C480.527332,32.9745455 481.772074,33.5701818 485.924508,33.5701818 C486.984844,33.5701818 488.690602,33.5243636 489.75423,33.0661818 C490.765172,32.6047273 491.226187,31.78 491.502797,30.1763636 C491.595,29.7672727 491.690496,29.5807273 491.967105,29.5807273 C492.286523,29.5807273 492.335918,30.088 492.335918,30.5003636 C492.335918,31.3709091 492.009914,34.0316364 491.779406,34.8072727 C491.502797,35.8152727 491.137277,35.8152727 489.612633,35.8152727 C486.56993,35.8152727 484.126547,35.7694545 482.140887,35.6810909 C480.15852,35.6352727 478.633875,35.5861818 477.435234,35.5861818 C476.974219,35.5861818 476.098289,35.6352727 475.126863,35.6352727 C474.162023,35.6810909 473.147789,35.7236364 472.317961,35.7236364 C471.807551,35.7236364 471.530941,35.5861818 471.530941,35.3112727 C471.530941,35.1312727 471.669246,34.8989091 472.176363,34.8989091 C472.775684,34.8989091 473.236699,34.8563636 473.605512,34.7614545 C474.438633,34.5814545 474.669141,33.8450909 474.807445,32.6996364 C474.991852,31.0501818 474.991852,27.9770909 474.991852,24.4 L474.991852,17.5272727" id="Fill-21"></path>
                        </g>
                    </g>
                </g>
            </g>
        </g>
    </g>
</svg>