<?xml version="1.0" encoding="UTF-8" standalone="no"?>
<svg width="247px" height="61px" viewBox="0 0 247 61" version="1.1" xmlns="http://www.w3.org/2000/svg" xmlns:xlink="http://www.w3.org/1999/xlink">
    <!-- Generator: Sketch 43.1 (39012) - http://www.bohemiancoding.com/sketch -->
    <title>bm_logo_top</title>
    <desc>Created with Sketch.</desc>
    <defs></defs>
    <g id="Page-1" stroke="none" stroke-width="1" fill="none" fill-rule="evenodd">
        <g id="bm_logo_top" transform="translate(0.000000, 1.000000)">
            <g id="SIGN" transform="translate(92.000000, 0.000000)" stroke-width="2">
                <polygon id="Stroke-1" stroke="#6A8893" points="0.823242188 34.1818182 28.1697012 34.1818182 28.1697012 5.37527273 0.823242188 5.37527273"></polygon>
                <path d="M7.06177148,13.9841818 L14.2206855,26.6332727 C14.2206855,26.6332727 27.0583242,-4.19581818 63.6465,0.546363636" id="Stroke-3" stroke="#0067A5"></path>
            </g>
            <g id="BM.SE" transform="translate(0.000000, 41.000000)" fill="#1A1918">
                <path d="M9.0144043,9.40345455 C8.53033789,9.05981818 8.00016992,8.90109091 7.09954297,8.85363636 C6.68462891,8.83072727 6.45412109,8.83072727 6.10835938,8.83072727 C6.01615625,8.83072727 5.97005469,8.87818182 5.97005469,8.99109091 L5.97005469,14.4238182 C5.97005469,15.9374545 6.03920703,16.3269091 6.77683203,16.6247273 C7.40084961,16.8767273 7.93101758,16.8996364 8.46118555,16.8996364 C9.4984707,16.8996364 11.2519766,16.3498182 11.2519766,13.9656364 C11.2519766,12.5436364 10.7662637,10.6209091 9.0144043,9.40345455 Z M5.97005469,7.57072727 C5.97005469,7.754 6.03920703,7.79981818 6.13141016,7.82436364 C6.33886719,7.86854545 6.68462891,7.89145455 7.21479688,7.89145455 C7.97711914,7.89145455 8.48423633,7.79981818 8.87609961,7.45618182 C9.47541992,6.97509091 9.82118164,6.14872727 9.82118164,5.02618182 C9.82118164,3.49127273 8.92220117,1.47363636 6.9381875,1.47363636 C6.61547656,1.47363636 6.40801953,1.47363636 6.17751172,1.51945455 C6.01615625,1.56527273 5.97005469,1.65690909 5.97005469,1.90890909 L5.97005469,7.57072727 Z M3.20231445,7.18127273 C3.20231445,3.69745455 3.20231445,3.056 3.15621289,2.32127273 C3.11011133,1.54236364 2.92570508,1.17581818 2.1650293,1.01545455 C1.98062305,0.969636364 1.58875977,0.946727273 1.26440234,0.946727273 C1.01084375,0.946727273 0.872539063,0.900909091 0.872539063,0.738909091 C0.872539063,0.580181818 1.03389453,0.534363636 1.37965625,0.534363636 C2.60299414,0.534363636 4.05519336,0.603090909 4.51785547,0.603090909 C5.64734375,0.603090909 6.54632422,0.534363636 7.33169727,0.534363636 C11.5055352,0.534363636 12.2431602,2.75654545 12.2431602,3.97236364 C12.2431602,5.85090909 11.1597734,6.97509091 9.89033398,7.98309091 C11.7821445,8.62618182 14.0872227,10.2527273 14.0872227,12.9347273 C14.0872227,15.3876364 12.1740078,17.9305455 7.93101758,17.9305455 C7.65276172,17.9305455 6.98593555,17.8847273 6.31581641,17.8618182 C5.62429297,17.8176364 4.93276953,17.7930909 4.58700781,17.7930909 C4.33180273,17.7930909 3.82468555,17.7930909 3.2714668,17.8176364 C2.74129883,17.8176364 2.14197852,17.8618182 1.67931641,17.8618182 C1.37965625,17.8618182 1.21994727,17.7930909 1.21994727,17.6327273 C1.21994727,17.5181818 1.31050391,17.4494545 1.58875977,17.4494545 C1.93452148,17.4494545 2.21113086,17.4036364 2.41858789,17.3578182 C2.87960352,17.2661818 2.99485742,16.7621818 3.08706055,16.0978182 C3.20231445,15.134 3.20231445,13.3241818 3.20231445,11.2149091 L3.20231445,7.18127273 L3.20231445,7.18127273 Z" id="Fill-5"></path>
                <path d="M18.5771855,8.76363636 C18.5771855,5.80509091 18.5771855,5.25527273 18.5541348,4.63672727 C18.5080332,3.97236364 18.323627,3.76618182 17.6782051,3.58290909 C17.5168496,3.53545455 17.1710879,3.51418182 16.8697812,3.51418182 C16.6639707,3.51418182 16.525666,3.44545455 16.525666,3.308 C16.525666,3.16890909 16.6870215,3.12472727 16.9866816,3.12472727 C18.0470176,3.12472727 19.3395078,3.16890909 19.9157773,3.16890909 C20.5611992,3.16890909 25.057748,3.19345455 25.4496113,3.16890909 C25.8184238,3.14763636 26.1411348,3.07890909 26.3041367,3.056 C26.4193906,3.03145455 26.5346445,2.96272727 26.6268477,2.96272727 C26.7421016,2.96272727 26.7651523,3.056 26.7651523,3.14763636 C26.7651523,3.28509091 26.6498984,3.51418182 26.6037969,4.40763636 C26.5807461,4.61381818 26.5346445,5.46145455 26.488543,5.69054545 C26.4654922,5.78218182 26.4193906,6.01127273 26.2580352,6.01127273 C26.1197305,6.01127273 26.0950332,5.91963636 26.0950332,5.75927273 C26.0950332,5.62181818 26.0719824,5.27818182 25.958375,5.04909091 C25.795373,4.70545455 25.6340176,4.43054545 24.6197832,4.33890909 C24.2740215,4.29309091 21.852043,4.24727273 21.4371289,4.24727273 C21.3449258,4.24727273 21.2988242,4.316 21.2988242,4.43054545 L21.2988242,9.24472727 C21.2988242,9.35763636 21.321875,9.45090909 21.4371289,9.45090909 C21.8981445,9.45090909 24.5275801,9.45090909 24.9885957,9.40345455 C25.4743086,9.35763636 25.7739687,9.31345455 25.958375,9.10563636 C26.1197305,8.96818182 26.1888828,8.85363636 26.2810859,8.85363636 C26.3732891,8.85363636 26.4407949,8.94527273 26.4407949,9.05981818 C26.4407949,9.176 26.3963398,9.49509091 26.2810859,10.4834545 C26.2333379,10.8712727 26.1888828,11.6501818 26.1888828,11.7876364 C26.1888828,11.9496364 26.1641855,12.2245455 25.9814258,12.2245455 C25.8431211,12.2245455 25.795373,12.1541818 25.795373,12.0625455 C25.7739687,11.8563636 25.7739687,11.6043636 25.7262207,11.3523636 C25.6126133,10.9629091 25.3574082,10.6650909 24.5967324,10.5963636 C24.2279199,10.5505455 21.9211953,10.5047273 21.4140781,10.5047273 C21.321875,10.5047273 21.2988242,10.5963636 21.2988242,10.7109091 L21.2988242,12.2687273 C21.2988242,12.9347273 21.2757734,14.5841818 21.2988242,15.1585455 C21.3449258,16.4872727 21.9672969,16.7850909 24.0435137,16.7850909 C24.5736816,16.7850909 25.4265605,16.7621818 25.958375,16.5330909 C26.4654922,16.3023636 26.696,15.89 26.8343047,15.0881818 C26.8804062,14.8836364 26.9265078,14.7903636 27.0648125,14.7903636 C27.226168,14.7903636 27.2492187,15.044 27.2492187,15.2501818 C27.2492187,15.6854545 27.0878633,17.0158182 26.9726094,17.4036364 C26.8343047,17.9076364 26.6498984,17.9076364 25.8875762,17.9076364 C24.3662246,17.9076364 23.1428867,17.8847273 22.1517031,17.8405455 C21.1605195,17.8176364 20.3998437,17.7930909 19.798877,17.7930909 C19.5700156,17.7930909 19.1320508,17.8176364 18.6463379,17.8176364 C18.1622715,17.8405455 17.6551543,17.8618182 17.2402402,17.8618182 C16.9866816,17.8618182 16.8467305,17.7930909 16.8467305,17.6556364 C16.8467305,17.5656364 16.9175293,17.4494545 17.1710879,17.4494545 C17.470748,17.4494545 17.7012559,17.4281818 17.8856621,17.3807273 C18.3005762,17.2907273 18.4158301,16.9225455 18.4849824,16.3498182 C18.5771855,15.5250909 18.5771855,13.9885455 18.5771855,12.2 L18.5771855,8.76363636" id="Fill-6"></path>
                <path d="M30.7463516,17.6098182 C30.4236406,17.4723636 30.3544883,17.3807273 30.3544883,16.9454545 C30.3544883,15.89 30.4466914,14.6758182 30.4697422,14.3567273 C30.4697422,14.0572727 30.5619453,13.8510909 30.7233008,13.8510909 C30.907707,13.8510909 30.9307578,14.0327273 30.9307578,14.1701818 C30.9307578,14.4238182 31.0015566,14.8361818 31.1151641,15.1814545 C31.5531289,16.6247273 33.076127,17.1041818 34.3439199,17.1041818 C36.0974258,17.1041818 37.1577617,16.0061818 37.1577617,14.6316364 C37.1577617,13.7823636 36.9503047,12.9347273 35.1523438,11.8792727 L33.9751074,11.192 C31.5778262,9.79454545 30.7924531,8.48872727 30.7924531,6.76890909 C30.7924531,4.38472727 33.0991777,2.84981818 35.9130195,2.84981818 C37.2269141,2.84981818 38.2658457,3.03145455 38.7960137,3.16890909 C38.9804199,3.21636364 39.072623,3.28509091 39.072623,3.42254545 C39.072623,3.67290909 39.0034707,4.22436364 39.0034707,5.75927273 C39.0034707,6.17163636 38.9112676,6.37945455 38.7499121,6.37945455 C38.6116074,6.37945455 38.5424551,6.26327273 38.5424551,6.03418182 C38.5424551,5.85090909 38.450252,5.25527273 38.0122871,4.75127273 C37.712627,4.38472727 37.0655586,3.83490909 35.7516641,3.83490909 C34.2978184,3.83490909 32.9839238,4.59090909 32.9839238,5.91963636 C32.9839238,6.79181818 33.3066348,7.47909091 35.129293,8.48872727 L35.9591211,8.94527273 C38.6346582,10.4130909 39.4644863,11.9021818 39.4644863,13.6678182 C39.4644863,15.1127273 38.9112676,16.2810909 37.4343711,17.312 C36.4662383,17.9992727 35.129293,18.1154545 34.0442598,18.1154545 C32.8686699,18.1154545 31.6222813,17.9992727 30.7463516,17.6098182" id="Fill-7"></path>
                <path d="M43.8408418,8.76363636 C43.8408418,5.80509091 43.8408418,5.25527273 43.817791,4.63672727 C43.7716895,3.97236364 43.5642324,3.74327273 43.1262676,3.60418182 C42.8957598,3.53545455 42.6405547,3.51418182 42.3886426,3.51418182 C42.1811855,3.51418182 42.0642852,3.46672727 42.0642852,3.28509091 C42.0642852,3.16890909 42.2256406,3.12472727 42.5483516,3.12472727 C43.3106738,3.12472727 44.6937207,3.16890909 45.2716367,3.16890909 C45.7787539,3.16890909 47.0926484,3.12472727 47.876375,3.12472727 C48.1299336,3.12472727 48.2912891,3.16890909 48.2912891,3.28509091 C48.2912891,3.46672727 48.1760352,3.51418182 47.9685781,3.51418182 C47.7611211,3.51418182 47.5997656,3.53545455 47.3692578,3.58290909 C46.8160391,3.67290909 46.6546836,3.94945455 46.608582,4.63672727 C46.5624805,5.25527273 46.5624805,5.80509091 46.5624805,8.76363636 L46.5624805,12.2 C46.5624805,14.0818182 46.5624805,15.638 46.6546836,16.4643636 C46.7238359,16.9912727 46.8621406,17.2907273 47.4614609,17.3807273 C47.7380703,17.4281818 48.1990859,17.4494545 48.4987461,17.4494545 C48.7309004,17.4494545 48.8231035,17.5656364 48.8231035,17.6556364 C48.8231035,17.7930909 48.661748,17.8618182 48.4295937,17.8618182 C47.0926484,17.8618182 45.7096016,17.7930909 45.1547363,17.7930909 C44.6937207,17.7930909 43.3106738,17.8618182 42.50225,17.8618182 C42.2503379,17.8618182 42.1103867,17.7930909 42.1103867,17.6556364 C42.1103867,17.5656364 42.1811855,17.4494545 42.4330977,17.4494545 C42.7327578,17.4494545 42.9649121,17.4281818 43.1476719,17.3807273 C43.5642324,17.2907273 43.6794863,17.0158182 43.7486387,16.4398182 C43.8408418,15.638 43.8408418,14.0818182 43.8408418,12.2 L43.8408418,8.76363636" id="Fill-8"></path>
                <path d="M55.8733496,9.63254545 L55.9671992,9.63254545 C56.6587227,8.90109091 59.6092227,6.01127273 60.2101895,5.34690909 C60.786459,4.70545455 61.2244238,4.24727273 61.2244238,3.90363636 C61.2244238,3.69745455 61.1322207,3.56 60.9478145,3.51418182 C60.7634082,3.46672727 60.6712051,3.42254545 60.6712051,3.308 C60.6712051,3.16890909 60.786459,3.12472727 60.993916,3.12472727 C61.4318809,3.12472727 62.5399648,3.16890909 63.0931836,3.16890909 C63.7155547,3.16890909 64.845043,3.12472727 65.4690605,3.12472727 C65.6765176,3.12472727 65.8148223,3.16890909 65.8148223,3.308 C65.8148223,3.44545455 65.6995684,3.51418182 65.5135156,3.51418182 C65.215502,3.51418182 64.7067383,3.60418182 64.3379258,3.74327273 C63.6925039,3.97236364 63.047082,4.38472727 62.1925566,5.18654545 C61.5471348,5.78218182 58.5258359,8.62618182 57.9034648,9.33472727 C58.6180391,10.2527273 62.6091172,14.378 63.3928437,15.1127273 C64.2918242,15.9145455 65.0755508,16.7621818 66.160584,17.1974545 C66.7599043,17.4494545 67.1748184,17.4494545 67.4053262,17.4494545 C67.5683281,17.4494545 67.6819355,17.5410909 67.6819355,17.6556364 C67.6819355,17.7930909 67.5683281,17.8618182 67.1978691,17.8618182 L65.422959,17.8618182 C64.8219922,17.8618182 64.4531797,17.8618182 64.0152148,17.8176364 C62.9318281,17.7243636 62.2633555,17.312 61.3857793,16.5543636 C60.5098496,15.8 56.6126211,11.3065455 56.1746562,10.7109091 L55.9671992,10.4343636 L55.8733496,10.4343636 L55.8733496,12.2 C55.8733496,13.9885455 55.8733496,15.5250909 55.9194512,16.3727273 C55.9671992,16.9225455 56.149959,17.2907273 56.6587227,17.3807273 C56.935332,17.4281818 57.3963477,17.4494545 57.6499062,17.4494545 C57.8112617,17.4494545 57.9265156,17.5656364 57.9265156,17.6556364 C57.9265156,17.7930909 57.7651602,17.8618182 57.5346523,17.8618182 C56.4051641,17.8618182 54.9513184,17.7930909 54.4442012,17.7930909 C53.9831855,17.7930909 52.6906953,17.8618182 51.883918,17.8618182 C51.6303594,17.8618182 51.4920547,17.7930909 51.4920547,17.6556364 C51.4920547,17.5656364 51.561207,17.4494545 51.8147656,17.4494545 C52.1144258,17.4494545 52.3449336,17.4281818 52.5293398,17.3807273 C52.9459004,17.2907273 53.0595078,16.9225455 53.1303066,16.3498182 C53.2225098,15.5250909 53.2225098,13.9885455 53.2225098,12.2 L53.2225098,8.76363636 C53.2225098,5.80509091 53.2225098,5.25527273 53.1978125,4.63672727 C53.1533574,3.97236364 52.9673047,3.76618182 52.3218828,3.58290909 C52.1605273,3.53545455 51.8147656,3.51418182 51.5151055,3.51418182 C51.3076484,3.51418182 51.1693437,3.44545455 51.1693437,3.308 C51.1693437,3.16890909 51.3306992,3.12472727 51.6303594,3.12472727 C52.6906953,3.12472727 53.9831855,3.16890909 54.467252,3.16890909 C54.9513184,3.16890909 56.4051641,3.12472727 57.0736367,3.12472727 C57.3732969,3.12472727 57.5116016,3.16890909 57.5116016,3.308 C57.5116016,3.44545455 57.3963477,3.51418182 57.2349922,3.51418182 C57.0275352,3.51418182 56.9122812,3.53545455 56.6587227,3.58290909 C56.1055039,3.67290909 55.942502,3.94945455 55.8980469,4.63672727 C55.8733496,5.25527273 55.8733496,5.80509091 55.8733496,8.76363636 L55.8733496,9.63254545" id="Fill-9"></path>
                <path d="M71.7108828,4.316 L68.689584,4.38472727 C67.5123477,4.40763636 67.0282812,4.54509091 66.7286211,4.98036364 C66.5211641,5.25527273 66.4289609,5.50890909 66.3828594,5.64472727 C66.3367578,5.80509091 66.2906562,5.89672727 66.1523516,5.89672727 C66.0140469,5.89672727 65.9679453,5.78218182 65.9679453,5.576 C65.9679453,5.25527273 66.3598086,3.37672727 66.4059102,3.21636364 C66.4520117,2.96272727 66.5211641,2.84981818 66.636418,2.84981818 C66.7977734,2.84981818 67.0052305,3.01018182 67.5123477,3.07890909 C68.1133145,3.14763636 68.8739902,3.16890909 69.5424629,3.16890909 L77.7765312,3.16890909 C78.4219531,3.16890909 78.859918,3.12472727 79.1612246,3.07890909 C79.4822891,3.03145455 79.6436445,2.98727273 79.7127969,2.98727273 C79.8511016,2.98727273 79.8757988,3.10018182 79.8757988,3.398 C79.8757988,3.812 79.8280508,5.25527273 79.8280508,5.75927273 C79.8066465,5.96709091 79.7588984,6.08163636 79.6436445,6.08163636 C79.4822891,6.08163636 79.4361875,5.98836364 79.4131367,5.69054545 L79.3900859,5.48436364 C79.3439844,4.98036364 78.8138164,4.38472727 76.9928047,4.36181818 L74.4325215,4.316 L74.4325215,12.2 C74.4325215,13.9885455 74.4555723,15.5250909 74.5477754,16.3727273 C74.6169277,16.9225455 74.7321816,17.2907273 75.331502,17.3807273 C75.6081113,17.4281818 76.069127,17.4494545 76.3687871,17.4494545 C76.5992949,17.4494545 76.691498,17.5656364 76.691498,17.6556364 C76.691498,17.7930909 76.5301426,17.8618182 76.2996348,17.8618182 C74.9626895,17.8618182 73.6010469,17.7930909 73.0247773,17.7930909 C72.5637617,17.7930909 71.1807148,17.8618182 70.3739375,17.8618182 C70.1187324,17.8618182 69.9804277,17.7930909 69.9804277,17.6556364 C69.9804277,17.5656364 70.0495801,17.4494545 70.3047852,17.4494545 C70.6027988,17.4494545 70.8563574,17.4281818 71.0193594,17.3807273 C71.4342734,17.2907273 71.5495273,16.9225455 71.6186797,16.3498182 C71.7108828,15.5250909 71.7108828,13.9885455 71.7108828,12.2 L71.7108828,4.316" id="Fill-10"></path>
                <path d="M84.8712324,15.2027273 C84.917334,16.7163636 85.1708926,17.1745455 85.5627559,17.312 C85.9101641,17.4281818 86.3003809,17.4494545 86.6247383,17.4494545 C86.8552461,17.4494545 86.9705,17.5410909 86.9705,17.6556364 C86.9705,17.8176364 86.7860938,17.8618182 86.5094844,17.8618182 C85.1939434,17.8618182 84.2488613,17.7930909 83.8800488,17.7930909 C83.6956426,17.7930909 82.7275098,17.8618182 81.6885781,17.8618182 C81.4119688,17.8618182 81.2275625,17.8405455 81.2275625,17.6556364 C81.2275625,17.5410909 81.3658672,17.4494545 81.5502734,17.4494545 C81.8268828,17.4494545 82.1956953,17.4281818 82.4723047,17.3578182 C83.0041191,17.2203636 83.071625,16.6918182 83.0963223,14.9965455 L83.279082,3.44545455 C83.279082,3.056 83.4173867,2.78109091 83.6264902,2.78109091 C83.8800488,2.78109091 84.1566582,3.07890909 84.5024199,3.42254545 C84.7559785,3.67290909 87.8003281,6.76890909 90.7524746,9.63254545 C92.1355215,10.9858182 94.8341094,13.7365455 95.135416,14.0114545 L95.2259727,14.0114545 L95.0185156,5.34690909 C94.9971113,4.15563636 94.8110586,3.812 94.3269922,3.62872727 C94.027332,3.51418182 93.5432656,3.51418182 93.2666563,3.51418182 C93.0130977,3.51418182 92.9439453,3.42254545 92.9439453,3.308 C92.9439453,3.14763636 93.1514023,3.12472727 93.4510625,3.12472727 C94.5113984,3.12472727 95.5964316,3.16890909 96.0343965,3.16890909 C96.2649043,3.16890909 97.0255801,3.12472727 98.0184102,3.12472727 C98.2950195,3.12472727 98.4777793,3.14763636 98.4777793,3.308 C98.4777793,3.42254545 98.3641719,3.51418182 98.1336641,3.51418182 C97.926207,3.51418182 97.7632051,3.51418182 97.5096465,3.58290909 C96.9564277,3.74327273 96.7950723,4.08690909 96.7720215,5.18654545 L96.5415137,17.4723636 C96.5415137,17.9076364 96.3801582,18.0925455 96.2188027,18.0925455 C95.873041,18.0925455 95.5964316,17.8847273 95.3889746,17.6801818 C94.1195352,16.5101818 91.5823027,14.1030909 89.4616309,12.0625455 C87.2471094,9.95490909 85.1017402,7.59363636 84.709877,7.25 L84.6407246,7.25 L84.8712324,15.2027273" id="Fill-11"></path>
                <path d="M102.989146,8.76363636 C102.989146,5.80509091 102.989146,5.25527273 102.966096,4.63672727 C102.919994,3.97236364 102.712537,3.74327273 102.274572,3.60418182 C102.042418,3.53545455 101.788859,3.51418182 101.535301,3.51418182 C101.327844,3.51418182 101.21259,3.46672727 101.21259,3.28509091 C101.21259,3.16890909 101.373945,3.12472727 101.696656,3.12472727 C102.457332,3.12472727 103.842025,3.16890909 104.418295,3.16890909 C104.925412,3.16890909 106.240953,3.12472727 107.02468,3.12472727 C107.278238,3.12472727 107.439594,3.16890909 107.439594,3.28509091 C107.439594,3.46672727 107.32434,3.51418182 107.116883,3.51418182 C106.909426,3.51418182 106.74807,3.53545455 106.517562,3.58290909 C105.964344,3.67290909 105.802988,3.94945455 105.756887,4.63672727 C105.710785,5.25527273 105.710785,5.80509091 105.710785,8.76363636 L105.710785,12.2 C105.710785,14.0818182 105.710785,15.638 105.802988,16.4643636 C105.872141,16.9912727 106.010445,17.2907273 106.609766,17.3807273 C106.886375,17.4281818 107.347391,17.4494545 107.647051,17.4494545 C107.877559,17.4494545 107.971408,17.5656364 107.971408,17.6556364 C107.971408,17.7930909 107.808406,17.8618182 107.577898,17.8618182 C106.240953,17.8618182 104.85626,17.7930909 104.303041,17.7930909 C103.842025,17.7930909 102.457332,17.8618182 101.650555,17.8618182 C101.396996,17.8618182 101.258691,17.7930909 101.258691,17.6556364 C101.258691,17.5656364 101.327844,17.4494545 101.581402,17.4494545 C101.881062,17.4494545 102.113217,17.4281818 102.295977,17.3807273 C102.712537,17.2907273 102.827791,17.0158182 102.896943,16.4398182 C102.989146,15.638 102.989146,14.0818182 102.989146,12.2 L102.989146,8.76363636" id="Fill-12"></path>
                <path d="M113.638607,15.2027273 C113.684709,16.7163636 113.938268,17.1745455 114.330131,17.312 C114.675893,17.4281818 115.067756,17.4494545 115.390467,17.4494545 C115.620975,17.4494545 115.736229,17.5410909 115.736229,17.6556364 C115.736229,17.8176364 115.551822,17.8618182 115.276859,17.8618182 C113.961318,17.8618182 113.01459,17.7930909 112.645777,17.7930909 C112.463018,17.7930909 111.493238,17.8618182 110.455953,17.8618182 C110.179344,17.8618182 109.994937,17.8405455 109.994937,17.6556364 C109.994937,17.5410909 110.133242,17.4494545 110.317648,17.4494545 C110.594258,17.4494545 110.96307,17.4281818 111.23968,17.3578182 C111.769848,17.2203636 111.839,16.6918182 111.862051,14.9965455 L112.046457,3.44545455 C112.046457,3.056 112.184762,2.78109091 112.393865,2.78109091 C112.645777,2.78109091 112.922387,3.07890909 113.269795,3.42254545 C113.523354,3.67290909 116.567703,6.76890909 119.51985,9.63254545 C120.902896,10.9858182 123.601484,13.7365455 123.901145,14.0114545 L123.993348,14.0114545 L123.785891,5.34690909 C123.76284,4.15563636 123.578434,3.812 123.094367,3.62872727 C122.794707,3.51418182 122.310641,3.51418182 122.034031,3.51418182 C121.778826,3.51418182 121.709674,3.42254545 121.709674,3.308 C121.709674,3.14763636 121.918777,3.12472727 122.218437,3.12472727 C123.278773,3.12472727 124.363807,3.16890909 124.801771,3.16890909 C125.030633,3.16890909 125.792955,3.12472727 126.784139,3.12472727 C127.060748,3.12472727 127.245154,3.14763636 127.245154,3.308 C127.245154,3.42254545 127.1299,3.51418182 126.899393,3.51418182 C126.691936,3.51418182 126.53058,3.51418182 126.277021,3.58290909 C125.723803,3.74327273 125.562447,4.08690909 125.539396,5.18654545 L125.308889,17.4723636 C125.308889,17.9076364 125.147533,18.0925455 124.986178,18.0925455 C124.640416,18.0925455 124.363807,17.8847273 124.154703,17.6801818 C122.88691,16.5101818 120.349678,14.1030909 118.227359,12.0625455 C116.014484,9.95490909 113.869115,7.59363636 113.477252,7.25 L113.4081,7.25 L113.638607,15.2027273" id="Fill-13"></path>
                <path d="M143.909223,16.5543636 C143.909223,17.0829091 143.909223,17.1041818 143.655664,17.2432727 C142.295668,17.9076364 140.288604,18.1154545 138.6981,18.1154545 C133.715838,18.1154545 129.309846,15.8687273 129.309846,10.4834545 C129.309846,7.36290909 130.994199,5.18654545 132.862959,4.10981818 C134.799225,2.98727273 136.621883,2.84981818 138.329287,2.84981818 C139.735385,2.84981818 141.511941,3.07890909 141.926855,3.16890909 C142.34177,3.23763636 143.056344,3.35381818 143.54041,3.37672727 C143.770918,3.398 143.81702,3.46672727 143.81702,3.60418182 C143.81702,3.83490909 143.678715,4.36181818 143.678715,6.81309091 C143.678715,7.11254545 143.563461,7.25 143.402105,7.25 C143.263801,7.25 143.217699,7.15836364 143.194648,6.998 C143.148547,6.56109091 143.033293,5.94418182 142.503125,5.39272727 C141.902158,4.77418182 140.380807,3.90363636 138.097133,3.90363636 C136.990695,3.90363636 135.584598,3.92654545 134.176854,5.04909091 C133.047365,5.96709091 132.308094,7.412 132.308094,9.79454545 C132.308094,13.9885455 135.029732,17.0370909 139.366572,17.0370909 C139.89674,17.0370909 140.311654,17.0370909 140.795721,16.8292727 C141.095381,16.6918182 141.187584,16.4872727 141.187584,16.1436364 L141.187584,14.3567273 C141.187584,13.3929091 141.187584,12.6598182 141.164533,12.0625455 C141.143129,11.3981818 140.934025,11.192 140.288604,11.0087273 C140.127248,10.9629091 139.781486,10.94 139.504877,10.94 C139.320471,10.94 139.182166,10.8483636 139.182166,10.7338182 C139.182166,10.5718182 139.343521,10.5505455 139.620131,10.5505455 C140.680467,10.5505455 142.134312,10.5963636 142.733633,10.5963636 C143.379055,10.5963636 144.439391,10.5505455 145.10951,10.5505455 C145.386119,10.5505455 145.524424,10.5718182 145.524424,10.7338182 C145.524424,10.8483636 145.40917,10.94 145.270865,10.94 C145.10951,10.94 144.948154,10.9629091 144.716,11.0087273 C144.162781,11.0987273 143.956971,11.3752727 143.932273,12.0625455 C143.909223,12.6598182 143.909223,13.4387273 143.909223,14.4009091 L143.909223,16.5543636" id="Fill-14"></path>
                <path d="M148.466691,17.6098182 C148.142334,17.4723636 148.073182,17.3807273 148.073182,16.9454545 C148.073182,15.89 148.167031,14.6758182 148.190082,14.3567273 C148.190082,14.0572727 148.282285,13.8510909 148.443641,13.8510909 C148.628047,13.8510909 148.651098,14.0327273 148.651098,14.1701818 C148.651098,14.4238182 148.72025,14.8361818 148.835504,15.1814545 C149.273469,16.6247273 150.79482,17.1041818 152.06426,17.1041818 C153.816119,17.1041818 154.878102,16.0061818 154.878102,14.6316364 C154.878102,13.7823636 154.670645,12.9347273 152.871037,11.8792727 L151.695447,11.192 C149.29652,9.79454545 148.512793,8.48872727 148.512793,6.76890909 C148.512793,4.38472727 150.817871,2.84981818 153.631713,2.84981818 C154.947254,2.84981818 155.984539,3.03145455 156.514707,3.16890909 C156.699113,3.21636364 156.791316,3.28509091 156.791316,3.42254545 C156.791316,3.67290909 156.722164,4.22436364 156.722164,5.75927273 C156.722164,6.17163636 156.629961,6.37945455 156.470252,6.37945455 C156.330301,6.37945455 156.261148,6.26327273 156.261148,6.03418182 C156.261148,5.85090909 156.168945,5.25527273 155.73098,4.75127273 C155.43132,4.38472727 154.785898,3.83490909 153.470357,3.83490909 C152.018158,3.83490909 150.704264,4.59090909 150.704264,5.91963636 C150.704264,6.79181818 151.025328,7.47909091 152.847986,8.48872727 L153.677814,8.94527273 C156.353352,10.4130909 157.184826,11.9021818 157.184826,13.6678182 C157.184826,15.1127273 156.629961,16.2810909 155.154711,17.312 C154.186578,17.9992727 152.847986,18.1154545 151.7646,18.1154545 C150.587363,18.1154545 149.342621,17.9992727 148.466691,17.6098182" id="Fill-15"></path>
                <path d="M163.336092,0.626 C163.405244,0.234909091 163.543549,0.0287272727 163.727955,0.0287272727 C163.912361,0.0287272727 164.050666,0.144909091 164.350326,0.738909091 L170.646482,13.6678182 L176.919588,0.580181818 C177.103994,0.213636364 177.219248,0.0287272727 177.426705,0.0287272727 C177.634162,0.0287272727 177.774113,0.259454545 177.843266,0.738909091 L179.940887,14.9065455 C180.148344,16.3498182 180.378852,17.0158182 181.072021,17.2203636 C181.740494,17.4281818 182.20151,17.4494545 182.50117,17.4494545 C182.708627,17.4494545 182.869982,17.4723636 182.869982,17.6098182 C182.869982,17.7930909 182.593373,17.8618182 182.270662,17.8618182 C181.692746,17.8618182 178.511738,17.7930909 177.588061,17.7243636 C177.057893,17.6801818 176.919588,17.6098182 176.919588,17.4723636 C176.919588,17.3578182 177.011791,17.2907273 177.173146,17.2203636 C177.311451,17.1745455 177.380604,16.8767273 177.2884,16.2352727 L175.905354,6.14872727 L175.81315,6.14872727 L170.784787,16.5543636 C170.254619,17.6327273 170.139365,17.8405455 169.931908,17.8405455 C169.724451,17.8405455 169.493943,17.3807273 169.125131,16.6918182 C168.570266,15.638 166.749254,12.1312727 166.472645,11.4898182 C166.265187,11.0087273 164.880494,8.12054545 164.073717,6.40072727 L163.981514,6.40072727 L162.782873,15.5250909 C162.735125,15.9374545 162.713721,16.2352727 162.713721,16.6018182 C162.713721,17.0370909 163.013381,17.2432727 163.405244,17.3349091 C163.820158,17.4281818 164.142869,17.4494545 164.373377,17.4494545 C164.557783,17.4494545 164.719139,17.4952727 164.719139,17.6098182 C164.719139,17.8176364 164.511682,17.8618182 164.16592,17.8618182 C163.197787,17.8618182 162.158855,17.7930909 161.743941,17.7930909 C161.305977,17.7930909 160.199539,17.8618182 159.461914,17.8618182 C159.22976,17.8618182 159.045354,17.8176364 159.045354,17.6098182 C159.045354,17.4952727 159.183658,17.4494545 159.414166,17.4494545 C159.598572,17.4494545 159.761574,17.4494545 160.107336,17.3807273 C160.752758,17.2432727 160.937164,16.3498182 161.052418,15.5709091 L163.336092,0.626" id="Fill-16"></path>
                <path d="M191.504146,11.8792727 C191.597996,11.8792727 191.621047,11.8350909 191.597996,11.7647273 L189.683135,6.81309091 C189.660084,6.746 189.637033,6.63145455 189.590932,6.63145455 C189.521779,6.63145455 189.498729,6.746 189.475678,6.81309091 L187.514715,11.7418182 C187.468613,11.8350909 187.514715,11.8792727 187.583867,11.8792727 L191.504146,11.8792727 Z M187.168953,12.956 C187.053699,12.956 187.030648,12.9805455 186.984547,13.0934545 L185.90116,15.7083636 C185.693703,16.1894545 185.599854,16.6705455 185.599854,16.8996364 C185.599854,17.2432727 185.785906,17.4494545 186.408277,17.4494545 L186.707937,17.4494545 C186.961496,17.4494545 187.007598,17.5410909 187.007598,17.6556364 C187.007598,17.8176364 186.892344,17.8618182 186.684887,17.8618182 C186.016414,17.8618182 185.071332,17.7930909 184.424264,17.7930909 C184.216807,17.7930909 183.13342,17.8618182 182.071437,17.8618182 C181.819525,17.8618182 181.702625,17.8176364 181.702625,17.6556364 C181.702625,17.5410909 181.771777,17.4494545 181.933133,17.4494545 C182.119186,17.4494545 182.348047,17.4281818 182.5341,17.4281818 C183.456131,17.2907273 183.801893,16.6918182 184.216807,15.7083636 L189.521779,3.44545455 C189.752287,2.894 189.913643,2.66490909 190.1211,2.66490909 C190.42076,2.66490909 190.512963,2.84981818 190.72042,3.28509091 C191.204486,4.36181818 194.596244,12.3374545 195.887088,15.296 C196.670814,17.06 197.24873,17.312 197.617543,17.3807273 C197.915557,17.4281818 198.147711,17.4494545 198.378219,17.4494545 C198.562625,17.4494545 198.654828,17.5181818 198.654828,17.6556364 C198.654828,17.8176364 198.539574,17.8618182 197.777252,17.8618182 C197.062678,17.8618182 195.587428,17.8618182 193.880023,17.8176364 C193.511211,17.7930909 193.280703,17.7930909 193.280703,17.6556364 C193.280703,17.5410909 193.326805,17.4723636 193.534262,17.4494545 C193.672566,17.4281818 193.810871,17.2432727 193.718668,17.0158182 L192.151215,13.0934545 C192.105113,12.9805455 192.035961,12.956 191.943758,12.956 L187.168953,12.956 L187.168953,12.956 Z" id="Fill-17"></path>
                <path d="M202.130557,15.2027273 C202.175012,16.7163636 202.430217,17.1745455 202.82208,17.312 C203.167842,17.4281818 203.558059,17.4494545 203.882416,17.4494545 C204.112924,17.4494545 204.226531,17.5410909 204.226531,17.6556364 C204.226531,17.8176364 204.043771,17.8618182 203.767162,17.8618182 C202.451621,17.8618182 201.506539,17.7930909 201.137727,17.7930909 C200.95332,17.7930909 199.985187,17.8618182 198.946256,17.8618182 C198.669646,17.8618182 198.48524,17.8405455 198.48524,17.6556364 C198.48524,17.5410909 198.623545,17.4494545 198.807951,17.4494545 C199.084561,17.4494545 199.45502,17.4281818 199.731629,17.3578182 C200.261797,17.2203636 200.329303,16.6918182 200.354,14.9965455 L200.538406,3.44545455 C200.538406,3.056 200.676711,2.78109091 200.884168,2.78109091 C201.137727,2.78109091 201.414336,3.07890909 201.760098,3.42254545 C202.015303,3.67290909 205.058006,6.76890909 208.010152,9.63254545 C209.394846,10.9858182 212.093434,13.7365455 212.391447,14.0114545 L212.485297,14.0114545 L212.276193,5.34690909 C212.253143,4.15563636 212.070383,3.812 211.58467,3.62872727 C211.286656,3.51418182 210.800943,3.51418182 210.524334,3.51418182 C210.270775,3.51418182 210.201623,3.42254545 210.201623,3.308 C210.201623,3.14763636 210.40908,3.12472727 210.710387,3.12472727 C211.770723,3.12472727 212.854109,3.16890909 213.292074,3.16890909 C213.522582,3.16890909 214.283258,3.12472727 215.276088,3.12472727 C215.552697,3.12472727 215.737104,3.14763636 215.737104,3.308 C215.737104,3.42254545 215.620203,3.51418182 215.391342,3.51418182 C215.183885,3.51418182 215.022529,3.51418182 214.768971,3.58290909 C214.215752,3.74327273 214.05275,4.08690909 214.031346,5.18654545 L213.800838,17.4723636 C213.800838,17.9076364 213.637836,18.0925455 213.47648,18.0925455 C213.132365,18.0925455 212.854109,17.8847273 212.646652,17.6801818 C211.377213,16.5101818 208.841627,14.1030909 206.719309,12.0625455 C204.504787,9.95490909 202.361064,7.59363636 201.967555,7.25 L201.898402,7.25 L202.130557,15.2027273" id="Fill-18"></path>
                <path d="M218.401115,16.3956364 C218.401115,15.8229091 218.816029,14.9965455 219.807213,14.9965455 C220.592586,14.9965455 221.214957,15.5250909 221.214957,16.3269091 C221.214957,17.1287273 220.660092,17.7930909 219.785809,17.7930909 C218.816029,17.7930909 218.401115,17.0370909 218.401115,16.3956364" id="Fill-19"></path>
                <path d="M224.901436,17.6098182 C224.578725,17.4723636 224.509572,17.3807273 224.509572,16.9454545 C224.509572,15.89 224.601775,14.6758182 224.624826,14.3567273 C224.624826,14.0572727 224.717029,13.8510909 224.878385,13.8510909 C225.062791,13.8510909 225.085842,14.0327273 225.085842,14.1701818 C225.085842,14.4238182 225.154994,14.8361818 225.271895,15.1814545 C225.708213,16.6247273 227.229564,17.1041818 228.50065,17.1041818 C230.25251,17.1041818 231.314492,16.0061818 231.314492,14.6316364 C231.314492,13.7823636 231.105389,12.9347273 229.307428,11.8792727 L228.130191,11.192 C225.731264,9.79454545 224.945891,8.48872727 224.945891,6.76890909 C224.945891,4.38472727 227.254262,2.84981818 230.068104,2.84981818 C231.381998,2.84981818 232.42093,3.03145455 232.951098,3.16890909 C233.133857,3.21636364 233.227707,3.28509091 233.227707,3.42254545 C233.227707,3.67290909 233.158555,4.22436364 233.158555,5.75927273 C233.158555,6.17163636 233.066352,6.37945455 232.904996,6.37945455 C232.765045,6.37945455 232.695893,6.26327273 232.695893,6.03418182 C232.695893,5.85090909 232.605336,5.25527273 232.165725,4.75127273 C231.867711,4.38472727 231.220643,3.83490909 229.905102,3.83490909 C228.452902,3.83490909 227.139008,4.59090909 227.139008,5.91963636 C227.139008,6.79181818 227.461719,7.47909091 229.284377,8.48872727 L230.114205,8.94527273 C232.789742,10.4130909 233.61957,11.9021818 233.61957,13.6678182 C233.61957,15.1127273 233.066352,16.2810909 231.591102,17.312 C230.621322,17.9992727 229.284377,18.1154545 228.199344,18.1154545 C227.023754,18.1154545 225.777365,17.9992727 224.901436,17.6098182" id="Fill-20"></path>
                <path d="M237.995926,8.76363636 C237.995926,5.80509091 237.995926,5.25527273 237.972875,4.63672727 C237.925127,3.97236364 237.742367,3.76618182 237.095299,3.58290909 C236.93559,3.53545455 236.588182,3.51418182 236.288521,3.51418182 C236.081064,3.51418182 235.94276,3.44545455 235.94276,3.308 C235.94276,3.16890909 236.105762,3.12472727 236.403775,3.12472727 C237.465758,3.12472727 238.756602,3.16890909 239.334518,3.16890909 C239.978293,3.16890909 244.476488,3.19345455 244.868352,3.16890909 C245.238811,3.14763636 245.559875,3.07890909 245.72123,3.056 C245.836484,3.03145455 245.951738,2.96272727 246.045588,2.96272727 C246.159195,2.96272727 246.183893,3.056 246.183893,3.14763636 C246.183893,3.28509091 246.068639,3.51418182 246.020891,4.40763636 C245.999486,4.61381818 245.951738,5.46145455 245.907283,5.69054545 C245.882586,5.78218182 245.836484,6.01127273 245.675129,6.01127273 C245.536824,6.01127273 245.51542,5.91963636 245.51542,5.75927273 C245.51542,5.62181818 245.490723,5.27818182 245.377115,5.04909091 C245.214113,4.70545455 245.051111,4.43054545 244.038523,4.33890909 C243.691115,4.29309091 241.270783,4.24727273 240.855869,4.24727273 C240.763666,4.24727273 240.717564,4.316 240.717564,4.43054545 L240.717564,9.24472727 C240.717564,9.35763636 240.738969,9.45090909 240.855869,9.45090909 C241.316885,9.45090909 243.94632,9.45090909 244.407336,9.40345455 C244.891402,9.35763636 245.191062,9.31345455 245.377115,9.10563636 C245.536824,8.96818182 245.605977,8.85363636 245.69818,8.85363636 C245.792029,8.85363636 245.859535,8.94527273 245.859535,9.05981818 C245.859535,9.176 245.813434,9.49509091 245.69818,10.4834545 C245.653725,10.8712727 245.605977,11.6501818 245.605977,11.7876364 C245.605977,11.9496364 245.582926,12.2245455 245.39852,12.2245455 C245.260215,12.2245455 245.214113,12.1541818 245.214113,12.0625455 C245.191062,11.8563636 245.191062,11.6043636 245.144961,11.3523636 C245.029707,10.9629091 244.774502,10.6650909 244.015473,10.5963636 C243.64666,10.5505455 241.339936,10.5047273 240.832818,10.5047273 C240.738969,10.5047273 240.717564,10.5963636 240.717564,10.7109091 L240.717564,12.2687273 C240.717564,12.9347273 240.694514,14.5841818 240.717564,15.1585455 C240.763666,16.4872727 241.386037,16.7850909 243.462254,16.7850909 C243.992422,16.7850909 244.845301,16.7621818 245.377115,16.5330909 C245.882586,16.3023636 246.113094,15.89 246.251398,15.0881818 C246.2975,14.8836364 246.345248,14.7903636 246.483553,14.7903636 C246.643262,14.7903636 246.667959,15.044 246.667959,15.2501818 C246.667959,15.6854545 246.504957,17.0158182 246.389703,17.4036364 C246.251398,17.9076364 246.068639,17.9076364 245.306316,17.9076364 C243.784965,17.9076364 242.563273,17.8847273 241.570443,17.8405455 C240.57926,17.8176364 239.816937,17.7930909 239.217617,17.7930909 C238.987109,17.7930909 238.549145,17.8176364 238.063432,17.8176364 C237.581012,17.8405455 237.073895,17.8618182 236.65898,17.8618182 C236.403775,17.8618182 236.265471,17.7930909 236.265471,17.6556364 C236.265471,17.5656364 236.334623,17.4494545 236.588182,17.4494545 C236.887842,17.4494545 237.11835,17.4281818 237.302756,17.3807273 C237.719316,17.2907273 237.83457,16.9225455 237.903723,16.3498182 C237.995926,15.5250909 237.995926,13.9885455 237.995926,12.2 L237.995926,8.76363636" id="Fill-21"></path>
            </g>
        </g>
    </g>
</svg>