<?xml version="1.0" encoding="UTF-8"?>
<svg width="400px" height="99px" viewBox="0 0 400 99" version="1.1" xmlns="http://www.w3.org/2000/svg" xmlns:xlink="http://www.w3.org/1999/xlink">
    <!-- Generator: Sketch 47 (45396) - http://www.bohemiancoding.com/sketch -->
    <title>bm_logo_top</title>
    <desc>Created with Sketch.</desc>
    <defs></defs>
    <g id="guide" stroke="none" stroke-width="1" fill="none" fill-rule="evenodd">
        <g id="besiktningsman.se-stilguide" transform="translate(-167.000000, -746.000000)">
            <g id="full-white-logo" transform="translate(102.000000, 724.000000)">
                <g id="bm_logo_top" transform="translate(65.000000, 24.000000)">
                    <g id="SIGN" transform="translate(177.664936, 0.000000)" stroke-width="3" stroke="#FFFFFF">
                        <polygon id="Stroke-1" points="0 55 44 55 44 8 0 8"></polygon>
                        <path d="M10,22.8195233 L21.644327,43.5351547 C21.644327,43.5351547 42.5253799,-6.95417202 102.037853,0.812179824" id="Stroke-3"></path>
                    </g>
                    <g id="BM.SE" transform="translate(0.000000, 67.000000)" fill="#FFFFFF">
                        <path d="M13.4068807,15.4001975 C12.6195228,14.8374184 11.7571784,14.577468 10.2922642,14.4997509 C9.61738603,14.4622323 9.2424537,14.4622323 8.6800552,14.4622323 C8.53008227,14.4622323 8.4550958,14.5399494 8.4550958,14.7248626 L8.4550958,23.6221324 C8.4550958,26.1010405 8.5675755,26.7388568 9.76735897,27.2265987 C10.7823544,27.6393034 11.6446987,27.676822 12.5070431,27.676822 C14.1942386,27.676822 17.0464024,26.7763754 17.0464024,22.8717603 C17.0464024,20.5429267 16.2563664,17.3940435 13.4068807,15.4001975 Z M8.4550958,12.3987089 C8.4550958,12.6988577 8.5675755,12.7738949 8.71754843,12.8140935 C9.05498753,12.8864508 9.61738603,12.9239694 10.4797304,12.9239694 C11.7196852,12.9239694 12.5445363,12.7738949 13.1819213,12.2111158 C14.1567454,11.4232251 14.7191439,10.0698753 14.7191439,8.23146348 C14.7191439,5.71771675 13.2569078,2.41339935 10.0298116,2.41339935 C9.50490633,2.41339935 9.16746723,2.41339935 8.7925349,2.48843656 C8.53008227,2.56347378 8.4550958,2.71354821 8.4550958,3.1262529 L8.4550958,12.3987089 Z M3.95322972,11.7608925 C3.95322972,6.05538422 3.95322972,5.00486319 3.87824325,3.80158784 C3.80325678,2.52595517 3.50331092,1.92565744 2.26603422,1.66302719 C1.96608835,1.58798997 1.32870339,1.55047136 0.801120032,1.55047136 C0.388694465,1.55047136 0.163735066,1.47543415 0.163735066,1.21012399 C0.163735066,0.950173635 0.426187699,0.875136419 0.988586198,0.875136419 C2.97840565,0.875136419 5.34047935,0.987692243 6.0930221,0.987692243 C7.93019054,0.987692243 9.39242663,0.875136419 10.6698747,0.875136419 C17.458828,0.875136419 18.6586114,4.51444139 18.6586114,6.50560751 C18.6586114,9.58213336 16.8964295,11.4232251 14.8316236,13.0740438 C17.9087468,14.1272447 21.6580701,16.7910659 21.6580701,21.1834229 C21.6580701,25.2005939 18.5461317,29.3651594 11.6446987,29.3651594 C11.1921018,29.3651594 10.1074762,29.2901221 9.0174943,29.2526035 C7.8926973,29.1802462 6.7679003,29.1400477 6.2055018,29.1400477 C5.79039815,29.1400477 4.96554702,29.1400477 4.06570942,29.1802462 C3.20336505,29.1802462 2.22854099,29.2526035 1.47599823,29.2526035 C0.988586198,29.2526035 0.728811653,29.1400477 0.728811653,28.8774175 C0.728811653,28.6898244 0.876106498,28.5772686 1.32870339,28.5772686 C1.89110189,28.5772686 2.34102069,28.5022314 2.67845978,28.4271942 C3.42832445,28.2771197 3.61579062,27.4517104 3.76576355,26.3636707 C3.95322972,24.7852093 3.95322972,21.8212393 3.95322972,18.3668474 L3.95322972,11.7608925 L3.95322972,11.7608925 Z" id="Fill-5"></path>
                        <path d="M28.9612163,14.3523564 C28.9612163,9.50709615 28.9612163,8.60664956 28.9237231,7.59364714 C28.8487366,6.50560751 28.5487908,6.16794004 27.4989802,5.86779118 C27.2365276,5.79007406 26.6741291,5.75523535 26.184039,5.75523535 C25.849278,5.75523535 25.6243186,5.64267953 25.6243186,5.41756788 C25.6243186,5.18977633 25.8867712,5.11741902 26.3741832,5.11741902 C28.098872,5.11741902 30.2011711,5.18977633 31.1385019,5.18977633 C32.1883125,5.18977633 39.5021711,5.22997484 40.139556,5.18977633 C40.7394478,5.15493763 41.264353,5.0423818 41.5294837,5.00486319 C41.7169499,4.96466469 41.9044161,4.85210886 42.054389,4.85210886 C42.2418552,4.85210886 42.2793484,5.00486319 42.2793484,5.15493763 C42.2793484,5.38004927 42.0918822,5.75523535 42.0168958,7.21846106 C41.9794025,7.55612854 41.9044161,8.94431703 41.8294296,9.31950311 C41.7919364,9.46957754 41.7169499,9.84476362 41.4544973,9.84476362 C41.2295379,9.84476362 41.1893666,9.69468919 41.1893666,9.43205893 C41.1893666,9.20694729 41.1518733,8.64416817 40.9670852,8.26898209 C40.7019545,7.70620297 40.4395019,7.25597967 38.7897996,7.10590524 C38.2274011,7.03086802 34.2879335,6.95583081 33.6130553,6.95583081 C33.4630824,6.95583081 33.3880959,7.06838663 33.3880959,7.25597967 L33.3880959,15.1402471 C33.3880959,15.3251603 33.4255892,15.4779146 33.6130553,15.4779146 C34.36292,15.4779146 38.6398267,15.4779146 39.3896914,15.4001975 C40.1797273,15.3251603 40.6671394,15.252803 40.9670852,14.9124556 C41.2295379,14.6873439 41.3420176,14.4997509 41.4919905,14.4997509 C41.6419634,14.4997509 41.7517651,14.6498253 41.7517651,14.8374184 C41.7517651,15.0276913 41.6794567,15.5502719 41.4919905,17.1689319 C41.414326,17.8040683 41.3420176,19.079701 41.3420176,19.3048126 C41.3420176,19.5701228 41.3018463,20.0203461 41.0045785,20.0203461 C40.7796191,20.0203461 40.7019545,19.9051104 40.7019545,19.7550359 C40.6671394,19.4173685 40.6671394,19.0046638 40.5894748,18.5919591 C40.4046867,17.9541427 39.9895831,17.4664008 38.7523064,17.353845 C38.1524147,17.2788078 34.4004132,17.2037706 33.5755621,17.2037706 C33.4255892,17.2037706 33.3880959,17.353845 33.3880959,17.5414381 L33.3880959,20.0927034 C33.3880959,21.1834229 33.3506027,23.8847627 33.3880959,24.8254078 C33.4630824,27.0014871 34.4753997,27.489229 37.8524688,27.489229 C38.7148132,27.489229 40.1020628,27.4517104 40.9670852,27.0765243 C41.7919364,26.6986583 42.1668687,26.0233234 42.3918281,24.7101721 C42.4668146,24.3751845 42.541801,24.2224302 42.7667604,24.2224302 C43.0292131,24.2224302 43.0667063,24.6378148 43.0667063,24.9754822 C43.0667063,25.6883358 42.8042537,27.8670949 42.6167875,28.5022314 C42.3918281,29.3276408 42.0918822,29.3276408 40.8519275,29.3276408 C38.3773741,29.3276408 36.3875546,29.2901221 34.7753456,29.2177648 C33.1631365,29.1802462 31.9258598,29.1400477 30.9483577,29.1400477 C30.5761034,29.1400477 29.863732,29.1802462 29.073696,29.1802462 C28.2863381,29.2177648 27.461487,29.2526035 26.7866088,29.2526035 C26.3741832,29.2526035 26.1465457,29.1400477 26.1465457,28.9149361 C26.1465457,28.7675415 26.2617035,28.5772686 26.6741291,28.5772686 C27.1615411,28.5772686 27.5364735,28.5424299 27.8364193,28.4647128 C28.5112975,28.3173182 28.6987637,27.7143406 28.8112434,26.7763754 C28.9612163,25.4257055 28.9612163,22.9092789 28.9612163,19.9801476 L28.9612163,14.3523564" id="Fill-6"></path>
                        <path d="M48.7549654,28.8398988 C48.2300602,28.6147872 48.1175805,28.4647128 48.1175805,27.7518592 C48.1175805,26.0233234 48.2675534,24.0348371 48.3050466,23.5122565 C48.3050466,23.0218347 48.4550196,22.6841672 48.7174722,22.6841672 C49.0174181,22.6841672 49.0549113,22.9816362 49.0549113,23.2067479 C49.0549113,23.6221324 49.1700691,24.2974674 49.3548572,24.8629264 C50.0672286,27.2265987 52.5444601,28.0118096 54.6065879,28.0118096 C57.4587517,28.0118096 59.1834405,26.2135963 59.1834405,23.9624798 C59.1834405,22.5716114 58.8460014,21.1834229 55.9215292,19.4548871 L54.0066962,18.3293288 C50.1073999,16.0406937 48.8299519,13.9021331 48.8299519,11.0855576 C48.8299519,7.18094246 52.5819533,4.66719572 57.1588059,4.66719572 C59.2959202,4.66719572 60.9857937,4.96466469 61.8481381,5.18977633 C62.148084,5.26749345 62.2980569,5.38004927 62.2980569,5.60516092 C62.2980569,6.01518571 62.1855772,6.9183122 62.1855772,9.43205893 C62.1855772,10.1073939 62.0356043,10.4477412 61.7731516,10.4477412 C61.5481922,10.4477412 61.4357125,10.2574683 61.4357125,9.88228223 C61.4357125,9.58213336 61.2857396,8.60664956 60.5733682,7.78124018 C60.0859561,7.18094246 59.0334675,6.28049586 56.8963532,6.28049586 C54.5316014,6.28049586 52.3944871,7.51860993 52.3944871,9.69468919 C52.3944871,11.1230762 52.9193924,12.2486344 55.8840359,13.9021331 L57.2337923,14.6498253 C61.5856855,17.0536961 62.9354419,19.4924057 62.9354419,22.3840184 C62.9354419,24.7503706 62.0356043,26.6638196 59.6333593,28.3521569 C58.0586435,29.4777152 55.8840359,29.6679881 54.1191759,29.6679881 C52.207021,29.6679881 50.1797083,29.4777152 48.7549654,28.8398988" id="Fill-7"></path>
                        <path d="M70.0538,14.3523564 C70.0538,9.50709615 70.0538,8.60664956 70.0163068,7.59364714 C69.9413203,6.50560751 69.6038812,6.13042143 68.8915098,5.90262988 C68.5165775,5.79007406 68.1014738,5.75523535 67.6917263,5.75523535 C67.3542872,5.75523535 67.164143,5.67751824 67.164143,5.38004927 C67.164143,5.18977633 67.4265956,5.11741902 67.9515009,5.11741902 C69.1914557,5.11741902 71.4410497,5.18977633 72.3810586,5.18977633 C73.2059097,5.18977633 75.343024,5.11741902 76.6177939,5.11741902 C77.0302195,5.11741902 77.2926721,5.18977633 77.2926721,5.38004927 C77.2926721,5.67751824 77.105206,5.75523535 76.7677669,5.75523535 C76.4303278,5.75523535 76.1678751,5.79007406 75.7929428,5.86779118 C74.8931052,6.01518571 74.6306526,6.4680889 74.5556661,7.59364714 C74.4806796,8.60664956 74.4806796,9.50709615 74.4806796,14.3523564 L74.4806796,19.9801476 C74.4806796,23.0620332 74.4806796,25.6106187 74.6306526,26.9639685 C74.7431323,27.8268964 74.9680917,28.3173182 75.9429157,28.4647128 C76.3928345,28.5424299 77.1426992,28.5772686 77.6301112,28.5772686 C78.0077217,28.5772686 78.1576946,28.7675415 78.1576946,28.9149361 C78.1576946,29.1400477 77.895242,29.2526035 77.5176315,29.2526035 C75.343024,29.2526035 73.09343,29.1400477 72.1909143,29.1400477 C71.4410497,29.1400477 69.1914557,29.2526035 67.8765144,29.2526035 C67.4667669,29.2526035 67.2391294,29.1400477 67.2391294,28.9149361 C67.2391294,28.7675415 67.3542872,28.5772686 67.7640347,28.5772686 C68.2514467,28.5772686 68.6290572,28.5424299 68.9263249,28.4647128 C69.6038812,28.3173182 69.7913474,27.8670949 69.9038271,26.9237699 C70.0538,25.6106187 70.0538,23.0620332 70.0538,19.9801476 L70.0538,14.3523564" id="Fill-8"></path>
                        <path d="M89.6252678,15.7753836 L89.7779188,15.7753836 C90.9027158,14.577468 95.7018497,9.84476362 96.6793518,8.75672399 C97.6166827,7.70620297 98.3290541,6.95583081 98.3290541,6.39305169 C98.3290541,6.05538422 98.1790812,5.83027257 97.8791353,5.75523535 C97.5791894,5.67751824 97.4292165,5.60516092 97.4292165,5.41756788 C97.4292165,5.18977633 97.6166827,5.11741902 97.9541218,5.11741902 C98.6664932,5.11741902 100.468846,5.18977633 101.368684,5.18977633 C102.381001,5.18977633 104.21817,5.11741902 105.233165,5.11741902 C105.570604,5.11741902 105.795564,5.18977633 105.795564,5.41756788 C105.795564,5.64267953 105.608098,5.75523535 105.305474,5.75523535 C104.82074,5.75523535 103.99321,5.90262988 103.393319,6.13042143 C102.343508,6.50560751 101.293698,7.18094246 99.9037699,8.49409373 C98.8539594,9.46957754 93.9396677,14.1272447 92.9273504,15.2876417 C94.0896407,16.7910659 100.581326,23.5470952 101.856096,24.7503706 C103.318332,26.0635219 104.593102,27.4517104 106.357962,28.1645639 C107.332786,28.5772686 108.007664,28.5772686 108.382597,28.5772686 C108.647728,28.5772686 108.832516,28.727343 108.832516,28.9149361 C108.832516,29.1400477 108.647728,29.2526035 108.045158,29.2526035 L105.158179,29.2526035 C104.180677,29.2526035 103.580785,29.2526035 102.868413,29.1802462 C101.106231,29.0274919 100.018928,28.3521569 98.5915067,27.111363 C97.1667639,25.8759288 90.8277294,18.5169219 90.1153579,17.5414381 L89.7779188,17.0885349 L89.6252678,17.0885349 L89.6252678,19.9801476 C89.6252678,22.9092789 89.6252678,25.4257055 89.7002543,26.813894 C89.7779188,27.7143406 90.0751866,28.3173182 90.9027158,28.4647128 C91.3526346,28.5424299 92.1024993,28.5772686 92.5149249,28.5772686 C92.7773775,28.5772686 92.9648437,28.7675415 92.9648437,28.9149361 C92.9648437,29.1400477 92.702391,29.2526035 92.3274587,29.2526035 C90.4902903,29.2526035 88.1255385,29.1400477 87.3006873,29.1400477 C86.5508227,29.1400477 84.4485235,29.2526035 83.1362604,29.2526035 C82.7238348,29.2526035 82.4988754,29.1400477 82.4988754,28.9149361 C82.4988754,28.7675415 82.6113551,28.5772686 83.0237807,28.5772686 C83.5111927,28.5772686 83.886125,28.5424299 84.1860709,28.4647128 C84.8636272,28.3173182 85.0484153,27.7143406 85.163573,26.7763754 C85.313546,25.4257055 85.313546,22.9092789 85.313546,19.9801476 L85.313546,14.3523564 C85.313546,9.50709615 85.313546,8.60664956 85.2733747,7.59364714 C85.2010663,6.50560751 84.8984423,6.16794004 83.8486318,5.86779118 C83.5861792,5.79007406 83.0237807,5.75523535 82.5363686,5.75523535 C82.1989295,5.75523535 81.9739701,5.64267953 81.9739701,5.41756788 C81.9739701,5.18977633 82.2364228,5.11741902 82.7238348,5.11741902 C84.4485235,5.11741902 86.5508227,5.18977633 87.3381806,5.18977633 C88.1255385,5.18977633 90.4902903,5.11741902 91.577594,5.11741902 C92.0650061,5.11741902 92.2899655,5.18977633 92.2899655,5.41756788 C92.2899655,5.64267953 92.1024993,5.75523535 91.8400467,5.75523535 C91.5026076,5.75523535 91.3151414,5.79007406 90.9027158,5.86779118 C90.0028782,6.01518571 89.7377475,6.4680889 89.6654391,7.59364714 C89.6252678,8.60664956 89.6252678,9.50709615 89.6252678,14.3523564 L89.6252678,15.7753836" id="Fill-9"></path>
                        <path d="M115.385797,7.06838663 L110.471506,7.18094246 C108.556673,7.21846106 107.769315,7.44357271 107.281903,8.15642626 C106.944464,8.60664956 106.794491,9.02203415 106.719504,9.24446589 C106.644518,9.50709615 106.569531,9.65717058 106.344572,9.65717058 C106.119612,9.65717058 106.044626,9.46957754 106.044626,9.13191007 C106.044626,8.60664956 106.682011,5.53012371 106.756997,5.26749345 C106.831984,4.85210886 106.944464,4.66719572 107.13193,4.66719572 C107.394382,4.66719572 107.731821,4.92982598 108.556673,5.0423818 C109.534175,5.15493763 110.771451,5.18977633 111.858755,5.18977633 L125.251874,5.18977633 C126.301684,5.18977633 127.014056,5.11741902 127.504146,5.0423818 C128.026373,4.96466469 128.288826,4.89230737 128.401305,4.89230737 C128.626265,4.89230737 128.666436,5.07722051 128.666436,5.56496241 C128.666436,6.24297726 128.588771,8.60664956 128.588771,9.43205893 C128.553956,9.77240631 128.476292,9.95999935 128.288826,9.95999935 C128.026373,9.95999935 127.951387,9.80724501 127.913893,9.31950311 L127.8764,8.98183564 C127.801414,8.15642626 126.939069,7.18094246 123.977104,7.14342385 L119.812677,7.06838663 L119.812677,19.9801476 C119.812677,22.9092789 119.85017,25.4257055 120.000143,26.813894 C120.112623,27.7143406 120.300089,28.3173182 121.274913,28.4647128 C121.724832,28.5424299 122.474696,28.5772686 122.962108,28.5772686 C123.337041,28.5772686 123.487014,28.7675415 123.487014,28.9149361 C123.487014,29.1400477 123.224561,29.2526035 122.849629,29.2526035 C120.675021,29.2526035 118.460242,29.1400477 117.522911,29.1400477 C116.773047,29.1400477 114.523453,29.2526035 113.21119,29.2526035 C112.796086,29.2526035 112.571127,29.1400477 112.571127,28.9149361 C112.571127,28.7675415 112.683606,28.5772686 113.09871,28.5772686 C113.583444,28.5772686 113.995869,28.5424299 114.261,28.4647128 C114.935878,28.3173182 115.123345,27.7143406 115.235824,26.7763754 C115.385797,25.4257055 115.385797,22.9092789 115.385797,19.9801476 L115.385797,7.06838663" id="Fill-10"></path>
                        <path d="M136.791755,24.8977651 C136.866742,27.3766731 137.279167,28.1270453 137.916552,28.3521569 C138.481629,28.5424299 139.116336,28.5772686 139.643919,28.5772686 C140.018851,28.5772686 140.206318,28.727343 140.206318,28.9149361 C140.206318,29.1802462 139.906372,29.2526035 139.456453,29.2526035 C137.316661,29.2526035 135.779438,29.1400477 135.179546,29.1400477 C134.8796,29.1400477 133.304885,29.2526035 131.615011,29.2526035 C131.165092,29.2526035 130.865146,29.2177648 130.865146,28.9149361 C130.865146,28.727343 131.090106,28.5772686 131.390052,28.5772686 C131.83997,28.5772686 132.439862,28.5424299 132.889781,28.4271942 C133.754803,28.2020825 133.864605,27.3364746 133.904776,24.5600976 L134.202044,5.64267953 C134.202044,5.00486319 134.427004,4.5546399 134.767121,4.5546399 C135.179546,4.5546399 135.629465,5.0423818 136.191864,5.60516092 C136.604289,6.01518571 141.556074,11.0855576 146.357886,15.7753836 C148.60748,17.9916613 152.996866,22.4965742 153.486956,22.9467975 L153.634251,22.9467975 L153.296812,8.75672399 C153.261997,6.80575638 152.959373,6.24297726 152.172015,5.94282839 C151.684603,5.75523535 150.897245,5.75523535 150.447326,5.75523535 C150.034901,5.75523535 149.922421,5.60516092 149.922421,5.41756788 C149.922421,5.15493763 150.25986,5.11741902 150.747272,5.11741902 C152.471961,5.11741902 154.236821,5.18977633 154.949193,5.18977633 C155.324125,5.18977633 156.561402,5.11741902 158.176289,5.11741902 C158.626208,5.11741902 158.923475,5.15493763 158.923475,5.41756788 C158.923475,5.60516092 158.738687,5.75523535 158.363755,5.75523535 C158.026316,5.75523535 157.761185,5.75523535 157.34876,5.86779118 C156.448922,6.13042143 156.186469,6.69320055 156.148976,8.49409373 L155.774044,28.6147872 C155.774044,29.3276408 155.511591,29.6304695 155.249138,29.6304695 C154.68674,29.6304695 154.236821,29.2901221 153.899382,28.9551346 C151.834576,27.0390057 147.707642,23.0968719 144.258265,19.7550359 C140.656236,16.303324 137.166688,12.4362275 136.529303,11.8734484 L136.416823,11.8734484 L136.791755,24.8977651" id="Fill-11"></path>
                        <path d="M166.261437,14.3523564 C166.261437,9.50709615 166.261437,8.60664956 166.223943,7.59364714 C166.148957,6.50560751 165.811518,6.13042143 165.099146,5.90262988 C164.721536,5.79007406 164.30911,5.75523535 163.896685,5.75523535 C163.559246,5.75523535 163.37178,5.67751824 163.37178,5.38004927 C163.37178,5.18977633 163.634232,5.11741902 164.159138,5.11741902 C165.396414,5.11741902 167.648686,5.18977633 168.586017,5.18977633 C169.410868,5.18977633 171.550661,5.11741902 172.825431,5.11741902 C173.237856,5.11741902 173.500309,5.18977633 173.500309,5.38004927 C173.500309,5.67751824 173.312843,5.75523535 172.975404,5.75523535 C172.637964,5.75523535 172.375512,5.79007406 172.000579,5.86779118 C171.100742,6.01518571 170.838289,6.4680889 170.763303,7.59364714 C170.688316,8.60664956 170.688316,9.50709615 170.688316,14.3523564 L170.688316,19.9801476 C170.688316,23.0620332 170.688316,25.6106187 170.838289,26.9639685 C170.950769,27.8268964 171.175728,28.3173182 172.150552,28.4647128 C172.600471,28.5424299 173.350336,28.5772686 173.837748,28.5772686 C174.21268,28.5772686 174.365331,28.7675415 174.365331,28.9149361 C174.365331,29.1400477 174.100201,29.2526035 173.725268,29.2526035 C171.550661,29.2526035 169.298389,29.1400477 168.398551,29.1400477 C167.648686,29.1400477 165.396414,29.2526035 164.084151,29.2526035 C163.671725,29.2526035 163.446766,29.1400477 163.446766,28.9149361 C163.446766,28.7675415 163.559246,28.5772686 163.971671,28.5772686 C164.459083,28.5772686 164.836694,28.5424299 165.133962,28.4647128 C165.811518,28.3173182 165.998984,27.8670949 166.111464,26.9237699 C166.261437,25.6106187 166.261437,23.0620332 166.261437,19.9801476 L166.261437,14.3523564" id="Fill-12"></path>
                        <path d="M183.58331,24.8977651 C183.658297,27.3766731 184.070722,28.1270453 184.708107,28.3521569 C185.270506,28.5424299 185.907891,28.5772686 186.432796,28.5772686 C186.807729,28.5772686 186.995195,28.727343 186.995195,28.9149361 C186.995195,29.1802462 186.695249,29.2526035 186.248008,29.2526035 C184.108216,29.2526035 182.568315,29.1400477 181.968423,29.1400477 C181.671156,29.1400477 180.093762,29.2526035 178.406566,29.2526035 C177.956647,29.2526035 177.656702,29.2177648 177.656702,28.9149361 C177.656702,28.727343 177.881661,28.5772686 178.181607,28.5772686 C178.631526,28.5772686 179.231417,28.5424299 179.681336,28.4271942 C180.54368,28.2020825 180.65616,27.3364746 180.693653,24.5600976 L180.993599,5.64267953 C180.993599,5.00486319 181.218559,4.5546399 181.558676,4.5546399 C181.968423,4.5546399 182.418342,5.0423818 182.983419,5.60516092 C183.395844,6.01518571 188.347629,11.0855576 193.149441,15.7753836 C195.399035,17.9916613 199.788422,22.4965742 200.275834,22.9467975 L200.425806,22.9467975 L200.088367,8.75672399 C200.050874,6.80575638 199.750928,6.24297726 198.96357,5.94282839 C198.476158,5.75523535 197.6888,5.75523535 197.238882,5.75523535 C196.823778,5.75523535 196.711298,5.60516092 196.711298,5.41756788 C196.711298,5.15493763 197.051415,5.11741902 197.538828,5.11741902 C199.263516,5.11741902 201.028376,5.18977633 201.740748,5.18977633 C202.113002,5.18977633 203.352957,5.11741902 204.965166,5.11741902 C205.415085,5.11741902 205.71503,5.15493763 205.71503,5.41756788 C205.71503,5.60516092 205.527564,5.75523535 205.152632,5.75523535 C204.815193,5.75523535 204.55274,5.75523535 204.140315,5.86779118 C203.240477,6.13042143 202.978024,6.69320055 202.940531,8.49409373 L202.565599,28.6147872 C202.565599,29.3276408 202.303146,29.6304695 202.040694,29.6304695 C201.478295,29.6304695 201.028376,29.2901221 200.688259,28.9551346 C198.626131,27.0390057 194.499198,23.0968719 191.047142,19.7550359 C187.447792,16.303324 183.958243,12.4362275 183.320858,11.8734484 L183.208378,11.8734484 L183.58331,24.8977651" id="Fill-13"></path>
                        <path d="M232.81996,27.111363 C232.81996,27.9769709 232.81996,28.0118096 232.407534,28.2396011 C230.195434,29.3276408 226.930844,29.6679881 224.343811,29.6679881 C216.239917,29.6679881 209.073353,25.9884846 209.073353,17.1689319 C209.073353,12.0583615 211.813037,8.49409373 214.852667,6.73071916 C218.002099,4.89230737 220.966742,4.66719572 223.74392,4.66719572 C226.031007,4.66719572 228.920664,5.0423818 229.595542,5.18977633 C230.27042,5.30233216 231.43271,5.4926051 232.220068,5.53012371 C232.595001,5.56496241 232.669987,5.67751824 232.669987,5.90262988 C232.669987,6.28049586 232.445028,7.14342385 232.445028,11.1579149 C232.445028,11.6483367 232.257562,11.8734484 231.995109,11.8734484 C231.77015,11.8734484 231.695163,11.7233739 231.65767,11.4607437 C231.582683,10.7452102 231.395217,9.7348877 230.532873,8.83176121 C229.555371,7.81875879 227.080817,6.39305169 223.366309,6.39305169 C221.566634,6.39305169 219.279547,6.4305703 216.989781,8.26898209 C215.152613,9.77240631 213.950151,12.1387585 213.950151,16.0406937 C213.950151,22.9092789 218.377031,27.9019336 225.431115,27.9019336 C226.293459,27.9019336 226.968338,27.9019336 227.755695,27.5615863 C228.243107,27.3364746 228.39308,27.0014871 228.39308,26.4387079 L228.39308,23.5122565 C228.39308,21.9337951 228.39308,20.7331996 228.355587,19.7550359 C228.320772,18.6669963 227.980655,18.3293288 226.930844,18.02918 C226.668392,17.9541427 226.105993,17.9166241 225.656074,17.9166241 C225.356129,17.9166241 225.131169,17.7665497 225.131169,17.5789567 C225.131169,17.3136465 225.393622,17.2788078 225.843541,17.2788078 C227.568229,17.2788078 229.932981,17.353845 230.907805,17.353845 C231.957616,17.353845 233.682304,17.2788078 234.772286,17.2788078 C235.222205,17.2788078 235.447164,17.3136465 235.447164,17.5789567 C235.447164,17.7665497 235.259698,17.9166241 235.034739,17.9166241 C234.772286,17.9166241 234.509834,17.9541427 234.132223,18.02918 C233.232386,18.1765745 232.897625,18.6294777 232.857453,19.7550359 C232.81996,20.7331996 232.81996,22.0088323 232.81996,23.5846138 L232.81996,27.111363" id="Fill-14"></path>
                        <path d="M240.232908,28.8398988 C239.705325,28.6147872 239.592845,28.4647128 239.592845,27.7518592 C239.592845,26.0233234 239.745496,24.0348371 239.782989,23.5122565 C239.782989,23.0218347 239.932962,22.6841672 240.195415,22.6841672 C240.495361,22.6841672 240.532854,22.9816362 240.532854,23.2067479 C240.532854,23.6221324 240.645333,24.2974674 240.8328,24.8629264 C241.545171,27.2265987 244.019724,28.0118096 246.08453,28.0118096 C248.934016,28.0118096 250.661383,26.2135963 250.661383,23.9624798 C250.661383,22.5716114 250.323944,21.1834229 247.396794,19.4548871 L245.484639,18.3293288 C241.582664,16.0406937 240.307894,13.9021331 240.307894,11.0855576 C240.307894,7.18094246 244.057218,4.66719572 248.63407,4.66719572 C250.773863,4.66719572 252.461058,4.96466469 253.323402,5.18977633 C253.623348,5.26749345 253.773321,5.38004927 253.773321,5.60516092 C253.773321,6.01518571 253.660842,6.9183122 253.660842,9.43205893 C253.660842,10.1073939 253.510869,10.4477412 253.251094,10.4477412 C253.023457,10.4477412 252.910977,10.2574683 252.910977,9.88228223 C252.910977,9.58213336 252.761004,8.60664956 252.048633,7.78124018 C251.561221,7.18094246 250.51141,6.28049586 248.371618,6.28049586 C246.009544,6.28049586 243.87243,7.51860993 243.87243,9.69468919 C243.87243,11.1230762 244.394657,12.2486344 247.3593,13.9021331 L248.709057,14.6498253 C253.06095,17.0536961 254.413384,19.4924057 254.413384,22.3840184 C254.413384,24.7503706 253.510869,26.6638196 251.111302,28.3521569 C249.536586,29.4777152 247.3593,29.6679881 245.597118,29.6679881 C243.682285,29.6679881 241.657651,29.4777152 240.232908,28.8398988" id="Fill-15"></path>
                        <path d="M264.418721,1.02521085 C264.531201,0.384714615 264.756161,0.0470471433 265.056106,0.0470471433 C265.356052,0.0470471433 265.581012,0.237320084 266.068424,1.21012399 L276.309433,22.3840184 L286.512948,0.950173635 C286.812894,0.349875908 287.00036,0.0470471433 287.337799,0.0470471433 C287.675238,0.0470471433 287.902876,0.424913123 288.015356,1.21012399 L291.42724,24.4127031 C291.764679,26.7763754 292.139611,27.8670949 293.267086,28.2020825 C294.35439,28.5424299 295.104255,28.5772686 295.591667,28.5772686 C295.929106,28.5772686 296.191559,28.6147872 296.191559,28.8398988 C296.191559,29.1400477 295.74164,29.2526035 295.216735,29.2526035 C294.276726,29.2526035 289.102659,29.1400477 287.600252,29.0274919 C286.737908,28.9551346 286.512948,28.8398988 286.512948,28.6147872 C286.512948,28.4271942 286.662921,28.3173182 286.925374,28.2020825 C287.150333,28.1270453 287.262813,27.6393034 287.11284,26.5887824 L284.863246,10.0698753 L284.713273,10.0698753 L276.534392,27.111363 C275.672048,28.8774175 275.484581,29.2177648 275.147142,29.2177648 C274.809703,29.2177648 274.434771,28.4647128 273.834879,27.3364746 C272.932364,25.6106187 269.970398,19.8675917 269.520479,18.8170707 C269.18304,18.02918 266.930768,13.2991555 265.618505,10.48258 L265.468532,10.48258 L263.518884,25.4257055 C263.441219,26.1010405 263.406404,26.5887824 263.406404,27.1890801 C263.406404,27.9019336 263.893816,28.2396011 264.531201,28.3896756 C265.206079,28.5424299 265.730985,28.5772686 266.105917,28.5772686 C266.405863,28.5772686 266.668315,28.6523058 266.668315,28.8398988 C266.668315,29.1802462 266.330876,29.2526035 265.768478,29.2526035 C264.193762,29.2526035 262.503888,29.1400477 261.82901,29.1400477 C261.116639,29.1400477 259.316964,29.2526035 258.11718,29.2526035 C257.73957,29.2526035 257.439624,29.1802462 257.439624,28.8398988 C257.439624,28.6523058 257.664583,28.5772686 258.039516,28.5772686 C258.339461,28.5772686 258.604592,28.5772686 259.166991,28.4647128 C260.216801,28.2396011 260.516747,26.7763754 260.704213,25.5007427 L264.418721,1.02521085" id="Fill-16"></path>
                        <path d="M310.235453,19.4548871 C310.388104,19.4548871 310.425597,19.3825297 310.388104,19.267294 L307.273487,11.1579149 C307.235994,11.048039 307.198501,10.8604459 307.123514,10.8604459 C307.011034,10.8604459 306.973541,11.048039 306.936048,11.1579149 L303.746445,19.2297754 C303.671459,19.3825297 303.746445,19.4548871 303.858925,19.4548871 L310.235453,19.4548871 Z M303.184047,21.2182616 C302.99658,21.2182616 302.959087,21.2584601 302.884101,21.4433733 L301.121919,25.7258544 C300.78448,26.5137452 300.631829,27.3016359 300.631829,27.676822 C300.631829,28.2396011 300.934453,28.5772686 301.94677,28.5772686 L302.434182,28.5772686 C302.846608,28.5772686 302.921594,28.727343 302.921594,28.9149361 C302.921594,29.1802462 302.734128,29.2526035 302.396689,29.2526035 C301.309385,29.2526035 299.772162,29.1400477 298.719674,29.1400477 C298.382235,29.1400477 296.620053,29.2526035 294.892686,29.2526035 C294.482938,29.2526035 294.292794,29.1802462 294.292794,28.9149361 C294.292794,28.727343 294.405274,28.5772686 294.667726,28.5772686 C294.97035,28.5772686 295.342605,28.5424299 295.645229,28.5424299 C297.144958,28.3173182 297.707356,27.3364746 298.382235,25.7258544 L307.011034,5.64267953 C307.385967,4.73955304 307.648419,4.36436696 307.985859,4.36436696 C308.473271,4.36436696 308.623244,4.66719572 308.960683,5.38004927 C309.748041,7.14342385 315.264902,20.2052592 317.364523,25.0505194 C318.639293,27.9394523 319.579302,28.3521569 320.179194,28.4647128 C320.663928,28.5424299 321.041538,28.5772686 321.41647,28.5772686 C321.716416,28.5772686 321.866389,28.6898244 321.866389,28.9149361 C321.866389,29.1802462 321.678923,29.2526035 320.438968,29.2526035 C319.276678,29.2526035 316.877111,29.2526035 314.099934,29.1802462 C313.500042,29.1400477 313.12511,29.1400477 313.12511,28.9149361 C313.12511,28.727343 313.200096,28.6147872 313.537535,28.5772686 C313.762495,28.5424299 313.987454,28.2396011 313.837481,27.8670949 L311.287941,21.4433733 C311.212955,21.2584601 311.100475,21.2182616 310.950502,21.2182616 L303.184047,21.2182616 L303.184047,21.2182616 Z" id="Fill-17"></path>
                        <path d="M327.519833,24.8977651 C327.592141,27.3766731 328.007245,28.1270453 328.64463,28.3521569 C329.207029,28.5424299 329.841735,28.5772686 330.369319,28.5772686 C330.744251,28.5772686 330.929039,28.727343 330.929039,28.9149361 C330.929039,29.1802462 330.631771,29.2526035 330.181853,29.2526035 C328.04206,29.2526035 326.504838,29.1400477 325.904946,29.1400477 C325.605,29.1400477 324.030284,29.2526035 322.340411,29.2526035 C321.890492,29.2526035 321.590546,29.2177648 321.590546,28.9149361 C321.590546,28.727343 321.815505,28.5772686 322.115451,28.5772686 C322.56537,28.5772686 323.16794,28.5424299 323.617859,28.4271942 C324.480203,28.2020825 324.590005,27.3364746 324.630176,24.5600976 L324.930122,5.64267953 C324.930122,5.00486319 325.155081,4.5546399 325.49252,4.5546399 C325.904946,4.5546399 326.354865,5.0423818 326.917263,5.60516092 C327.332367,6.01518571 332.281474,11.0855576 337.083286,15.7753836 C339.335558,17.9916613 343.724944,22.4965742 344.209678,22.9467975 L344.362329,22.9467975 L344.022212,8.75672399 C343.984719,6.80575638 343.687451,6.24297726 342.897415,5.94282839 C342.412681,5.75523535 341.622645,5.75523535 341.172726,5.75523535 C340.760301,5.75523535 340.647821,5.60516092 340.647821,5.41756788 C340.647821,5.15493763 340.98526,5.11741902 341.47535,5.11741902 C343.200039,5.11741902 344.962221,5.18977633 345.674592,5.18977633 C346.049525,5.18977633 347.286801,5.11741902 348.901688,5.11741902 C349.351607,5.11741902 349.651553,5.15493763 349.651553,5.41756788 C349.651553,5.60516092 349.461409,5.75523535 349.089155,5.75523535 C348.751716,5.75523535 348.489263,5.75523535 348.076837,5.86779118 C347.177,6.13042143 346.911869,6.69320055 346.877054,8.49409373 L346.502122,28.6147872 C346.502122,29.3276408 346.236991,29.6304695 345.974538,29.6304695 C345.414818,29.6304695 344.962221,29.2901221 344.624782,28.9551346 C342.559976,27.0390057 338.43572,23.0968719 334.983665,19.7550359 C331.381636,16.303324 327.894765,12.4362275 327.254702,11.8734484 L327.142223,11.8734484 L327.519833,24.8977651" id="Fill-18"></path>
                        <path d="M353.9847,26.8514126 C353.9847,25.9134474 354.659578,24.5600976 356.271787,24.5600976 C357.549235,24.5600976 358.561552,25.4257055 358.561552,26.7388568 C358.561552,28.0520081 357.659036,29.1400477 356.236972,29.1400477 C354.659578,29.1400477 353.9847,27.9019336 353.9847,26.8514126" id="Fill-19"></path>
                        <path d="M364.557791,28.8398988 C364.032886,28.6147872 363.920406,28.4647128 363.920406,27.7518592 C363.920406,26.0233234 364.070379,24.0348371 364.107873,23.5122565 C364.107873,23.0218347 364.257846,22.6841672 364.520298,22.6841672 C364.820244,22.6841672 364.857737,22.9816362 364.857737,23.2067479 C364.857737,23.6221324 364.970217,24.2974674 365.160361,24.8629264 C365.870055,27.2265987 368.344608,28.0118096 370.412092,28.0118096 C373.261578,28.0118096 374.988945,26.2135963 374.988945,23.9624798 C374.988945,22.5716114 374.648827,21.1834229 371.724355,19.4548871 L369.809522,18.3293288 C365.907548,16.0406937 364.6301,13.9021331 364.6301,11.0855576 C364.6301,7.18094246 368.384779,4.66719572 372.961632,4.66719572 C375.098746,4.66719572 376.78862,4.96466469 377.650964,5.18977633 C377.948232,5.26749345 378.100883,5.38004927 378.100883,5.60516092 C378.100883,6.01518571 377.988403,6.9183122 377.988403,9.43205893 C377.988403,10.1073939 377.83843,10.4477412 377.575978,10.4477412 C377.34834,10.4477412 377.23586,10.2574683 377.23586,9.88228223 C377.23586,9.58213336 377.088566,8.60664956 376.373516,7.78124018 C375.888782,7.18094246 374.836294,6.28049586 372.696501,6.28049586 C370.334427,6.28049586 368.197313,7.51860993 368.197313,9.69468919 C368.197313,11.1230762 368.722218,12.2486344 371.686862,13.9021331 L373.036618,14.6498253 C377.388511,17.0536961 378.738268,19.4924057 378.738268,22.3840184 C378.738268,24.7503706 377.83843,26.6638196 375.438863,28.3521569 C373.861469,29.4777152 371.686862,29.6679881 369.922002,29.6679881 C368.009847,29.6679881 365.982534,29.4777152 364.557791,28.8398988" id="Fill-20"></path>
                        <path d="M385.856626,14.3523564 C385.856626,9.50709615 385.856626,8.60664956 385.819133,7.59364714 C385.741468,6.50560751 385.4442,6.16794004 384.391712,5.86779118 C384.131937,5.79007406 383.566861,5.75523535 383.079449,5.75523535 C382.74201,5.75523535 382.51705,5.64267953 382.51705,5.41756788 C382.51705,5.18977633 382.782181,5.11741902 383.266915,5.11741902 C384.994282,5.11741902 387.093903,5.18977633 388.033912,5.18977633 C389.081044,5.18977633 396.397581,5.22997484 397.034966,5.18977633 C397.637536,5.15493763 398.159763,5.0423818 398.422215,5.00486319 C398.609682,4.96466469 398.797148,4.85210886 398.949799,4.85210886 C399.134587,4.85210886 399.174758,5.00486319 399.174758,5.15493763 C399.174758,5.38004927 398.987292,5.75523535 398.909627,7.21846106 C398.874812,7.55612854 398.797148,8.94431703 398.724839,9.31950311 C398.684668,9.46957754 398.609682,9.84476362 398.347229,9.84476362 C398.122269,9.84476362 398.087454,9.69468919 398.087454,9.43205893 C398.087454,9.20694729 398.047283,8.64416817 397.862495,8.26898209 C397.597364,7.70620297 397.332234,7.25597967 395.685209,7.10590524 C395.120133,7.03086802 391.183343,6.95583081 390.508465,6.95583081 C390.358492,6.95583081 390.283506,7.06838663 390.283506,7.25597967 L390.283506,15.1402471 C390.283506,15.3251603 390.318321,15.4779146 390.508465,15.4779146 C391.25833,15.4779146 395.535236,15.4779146 396.285101,15.4001975 C397.072459,15.3251603 397.559871,15.252803 397.862495,14.9124556 C398.122269,14.6873439 398.234749,14.4997509 398.384722,14.4997509 C398.537373,14.4997509 398.647175,14.6498253 398.647175,14.8374184 C398.647175,15.0276913 398.572188,15.5502719 398.384722,17.1689319 C398.312414,17.8040683 398.234749,19.079701 398.234749,19.3048126 C398.234749,19.5701228 398.197256,20.0203461 397.89731,20.0203461 C397.672351,20.0203461 397.597364,19.9051104 397.597364,19.7550359 C397.559871,19.4173685 397.559871,19.0046638 397.484885,18.5919591 C397.297418,17.9541427 396.882315,17.4664008 395.647716,17.353845 C395.047824,17.2788078 391.295823,17.2037706 390.470972,17.2037706 C390.318321,17.2037706 390.283506,17.353845 390.283506,17.5414381 L390.283506,20.0927034 C390.283506,21.1834229 390.246012,23.8847627 390.283506,24.8254078 C390.358492,27.0014871 391.370809,27.489229 394.747878,27.489229 C395.610223,27.489229 396.997472,27.4517104 397.862495,27.0765243 C398.684668,26.6986583 399.0596,26.0233234 399.28456,24.7101721 C399.359546,24.3751845 399.437211,24.2224302 399.66217,24.2224302 C399.921945,24.2224302 399.962116,24.6378148 399.962116,24.9754822 C399.962116,25.6883358 399.696985,27.8670949 399.509519,28.5022314 C399.28456,29.3276408 398.987292,29.3276408 397.747337,29.3276408 C395.272784,29.3276408 393.285642,29.2901221 391.670755,29.2177648 C390.058546,29.1802462 388.818591,29.1400477 387.843767,29.1400477 C387.468835,29.1400477 386.756464,29.1802462 385.966428,29.1802462 C385.181748,29.2177648 384.356897,29.2526035 383.682018,29.2526035 C383.266915,29.2526035 383.041955,29.1400477 383.041955,28.9149361 C383.041955,28.7675415 383.154435,28.5772686 383.566861,28.5772686 C384.054273,28.5772686 384.429205,28.5424299 384.729151,28.4647128 C385.406707,28.3173182 385.594173,27.7143406 385.706653,26.7763754 C385.856626,25.4257055 385.856626,22.9092789 385.856626,19.9801476 L385.856626,14.3523564" id="Fill-21"></path>
                    </g>
                </g>
            </g>
        </g>
    </g>
</svg>