<?xml version="1.0" encoding="UTF-8"?>
<svg width="168px" height="168px" viewBox="0 0 168 168" version="1.1" xmlns="http://www.w3.org/2000/svg" xmlns:xlink="http://www.w3.org/1999/xlink">
    <!-- Generator: Sketch 60 (88103) - https://sketch.com -->
    <title>cal_icon</title>
    <desc>Created with Sketch.</desc>
    <defs>
        <path d="M6.409713,-2.58960077e-16 L143.590287,2.58960077e-16 C145.819084,-1.50463262e-16 146.627299,0.232064028 147.442114,0.667831759 C148.256929,1.10359949 148.896401,1.74307093 149.332168,2.55788574 C149.767936,3.37270056 150,4.18091615 150,6.409713 L150,143.590287 C150,145.819084 149.767936,146.627299 149.332168,147.442114 C148.896401,148.256929 148.256929,148.896401 147.442114,149.332168 C146.627299,149.767936 145.819084,150 143.590287,150 L6.409713,150 C4.18091615,150 3.37270056,149.767936 2.55788574,149.332168 C1.74307093,148.896401 1.10359949,148.256929 0.667831759,147.442114 C0.232064028,146.627299 1.00308841e-16,145.819084 -1.72640051e-16,143.590287 L1.72640051e-16,6.409713 C-1.00308841e-16,4.18091615 0.232064028,3.37270056 0.667831759,2.55788574 C1.10359949,1.74307093 1.74307093,1.10359949 2.55788574,0.667831759 C3.37270056,0.232064028 4.18091615,1.50463262e-16 6.409713,-2.58960077e-16 Z" id="path-1"></path>
        <filter x="-9.7%" y="-8.3%" width="119.3%" height="119.3%" filterUnits="objectBoundingBox" id="filter-2">
            <feOffset dx="0" dy="2" in="SourceAlpha" result="shadowOffsetOuter1"></feOffset>
            <feGaussianBlur stdDeviation="4.5" in="shadowOffsetOuter1" result="shadowBlurOuter1"></feGaussianBlur>
            <feColorMatrix values="0 0 0 0 0.196078431   0 0 0 0 0.196078431   0 0 0 0 0.364705882  0 0 0 0.200549139 0" type="matrix" in="shadowBlurOuter1"></feColorMatrix>
        </filter>
    </defs>
    <g id="general-styling-and-website-material" stroke="none" stroke-width="1" fill="none" fill-rule="evenodd">
        <g id="Artboard-9-Copy" transform="translate(-881.000000, -207.000000)">
            <g id="cal_icon" transform="translate(890.000000, 214.000000)">
                <g id="calBG">
                    <use fill="black" fill-opacity="1" filter="url(#filter-2)" xlink:href="#path-1"></use>
                    <use fill="#1072BB" fill-rule="evenodd" xlink:href="#path-1"></use>
                </g>
                <path d="M103.305288,78.9326923 L72.5360577,109.701923 C72.1354167,110.0625 71.6746795,110.242788 71.1538462,110.242788 C70.6330128,110.242788 70.1722756,110.0625 69.7716346,109.701923 L52.4639423,92.3942308 C52.1033654,91.9935897 51.9230769,91.5328526 51.9230769,91.0120192 C51.9230769,90.4911859 52.1033654,90.0504808 52.4639423,89.6899038 L55.2283654,86.9254808 C55.5889423,86.5649038 56.0296474,86.3846154 56.5504808,86.3846154 C57.0713141,86.3846154 57.5320513,86.5649038 57.9326923,86.9254808 L71.1538462,100.146635 L97.8365385,73.4639423 C98.2371795,73.1033654 98.6979167,72.9230769 99.21875,72.9230769 C99.7395833,72.9230769 100.180288,73.1033654 100.540865,73.4639423 L103.305288,76.2283654 C103.665865,76.5889423 103.846154,77.0296474 103.846154,77.5504808 C103.846154,78.0713141 103.665865,78.5320513 103.305288,78.9326923 Z M32.6923077,121 L117.307692,121 L117.307692,55 L32.6923077,55 L32.6923077,121 Z M55.7692308,47.9230769 L55.7692308,30.6153846 C55.7692308,30.0544872 55.5889423,29.59375 55.2283654,29.2331731 C54.8677885,28.8725962 54.4070513,28.6923077 53.8461538,28.6923077 L50,28.6923077 C49.4391026,28.6923077 48.9783654,28.8725962 48.6177885,29.2331731 C48.2572115,29.59375 48.0769231,30.0544872 48.0769231,30.6153846 L48.0769231,47.9230769 C48.0769231,48.4839744 48.2572115,48.9447115 48.6177885,49.3052885 C48.9783654,49.6658654 49.4391026,49.8461538 50,49.8461538 L53.8461538,49.8461538 C54.4070513,49.8461538 54.8677885,49.6658654 55.2283654,49.3052885 C55.5889423,48.9447115 55.7692308,48.4839744 55.7692308,47.9230769 Z M101.923077,47.9230769 L101.923077,30.6153846 C101.923077,30.0544872 101.742788,29.59375 101.382212,29.2331731 C101.021635,28.8725962 100.560897,28.6923077 100,28.6923077 L96.1538462,28.6923077 C95.5929487,28.6923077 95.1322115,28.8725962 94.7716346,29.2331731 C94.4110577,29.59375 94.2307692,30.0544872 94.2307692,30.6153846 L94.2307692,47.9230769 C94.2307692,48.4839744 94.4110577,48.9447115 94.7716346,49.3052885 C95.1322115,49.6658654 95.5929487,49.8461538 96.1538462,49.8461538 L100,49.8461538 C100.560897,49.8461538 101.021635,49.6658654 101.382212,49.3052885 C101.742788,48.9447115 101.923077,48.4839744 101.923077,47.9230769 Z M125,44.0769231 L125,121 C125,123.083333 124.238782,124.886218 122.716346,126.408654 C121.19391,127.93109 119.391026,128.692308 117.307692,128.692308 L32.6923077,128.692308 C30.6089744,128.692308 28.8060897,127.93109 27.2836538,126.408654 C25.7612179,124.886218 25,123.083333 25,121 L25,44.0769231 C25,41.9935897 25.7612179,40.1907051 27.2836538,38.6682692 C28.8060897,37.1458333 30.6089744,36.3846154 32.6923077,36.3846154 L40.3846154,36.3846154 L40.3846154,30.6153846 C40.3846154,27.9711538 41.3261218,25.7075321 43.2091346,23.8245192 C45.0921474,21.9415064 47.3557692,21 50,21 L53.8461538,21 C56.4903846,21 58.7540064,21.9415064 60.6370192,23.8245192 C62.5200321,25.7075321 63.4615385,27.9711538 63.4615385,30.6153846 L63.4615385,36.3846154 L86.5384615,36.3846154 L86.5384615,30.6153846 C86.5384615,27.9711538 87.4799679,25.7075321 89.3629808,23.8245192 C91.2459936,21.9415064 93.5096154,21 96.1538462,21 L100,21 C102.644231,21 104.907853,21.9415064 106.790865,23.8245192 C108.673878,25.7075321 109.615385,27.9711538 109.615385,30.6153846 L109.615385,36.3846154 L117.307692,36.3846154 C119.391026,36.3846154 121.19391,37.1458333 122.716346,38.6682692 C124.238782,40.1907051 125,41.9935897 125,44.0769231 Z" id="Shape" fill="#FFFFFF" fill-rule="nonzero"></path>
            </g>
        </g>
    </g>
</svg>