<?xml version="1.0" encoding="UTF-8"?>
<svg version="1.1" viewBox="0 0 168 168" xmlns="http://www.w3.org/2000/svg" xmlns:xlink="http://www.w3.org/1999/xlink">
<title>digitalHead_icon</title>
<desc>Created with Sketch.</desc>
<defs>
<rect id="a" width="150" height="150" rx="5"/>
<filter id="b" x="-9.7%" y="-8.3%" width="119.3%" height="119.3%">
<feOffset dx="0" dy="2" in="SourceAlpha" result="shadowOffsetOuter1"/>
<feGaussianBlur in="shadowOffsetOuter1" result="shadowBlurOuter1" stdDeviation="4.5"/>
<feColorMatrix in="shadowBlurOuter1" values="0 0 0 0 0.196078431   0 0 0 0 0.196078431   0 0 0 0 0.364705882  0 0 0 0.200549139 0"/>
</filter>
</defs>
<g fill="none" fill-rule="evenodd">
<g transform="translate(-57 -200)">
<g transform="translate(66 207)">
<use fill="black" filter="url(#b)" xlink:href="#a"/>
<use fill="#61BFAD" fill-rule="evenodd" xlink:href="#a"/>
<g transform="translate(31 23)" fill="#fff" fill-rule="nonzero">
<path d="m59.917 16.252c-0.40689-0.40756-0.97329-0.6564-1.5992-0.6564-0.62644 0-1.1892 0.24909-1.6 0.6564-0.40998 0.40756-0.66045 0.96694-0.66045 1.589 0 0.6011 0.23656 1.1467 0.62257 1.5542l0.03788 0.034561c0.37597 0.37326 0.88001 0.61493 1.4436 0.64923 0.048445-0.0064002 0.10385-0.013568 0.15642-0.013568 0.052053 0 0.10385 0.0069121 0.15616 0.013568 0.56331-0.034305 1.0673-0.27598 1.4431-0.64923 0.40663-0.40782 0.66071-0.96719 0.66071-1.5888 2.577e-4 -0.6221-0.25408-1.1815-0.66071-1.589zm-12.719 20.208c-0.41024-0.40091-0.97329-0.6564-1.5992-0.6564-0.62592 0-1.1926 0.24909-1.5995 0.6564-0.41024 0.40756-0.66432 0.96719-0.66432 1.589 0 0.6011 0.24017 1.1536 0.62567 1.5542l0.038396 0.034817c0.40328 0.40039 0.95628 0.64949 1.568 0.65614h0.0066999 0.02448 0.020615 0.0072153c0.61175-0.0064001 1.1678-0.25549 1.5683-0.65614 0.40998-0.40807 0.66355-0.96745 0.66355-1.589 5.153e-4 -0.62158-0.25305-1.1815-0.65994-1.589zm19.583 14.149c-0.40689-0.40039-0.97355-0.65614-1.5992-0.65614-0.62283 0-1.1892 0.25575-1.5995 0.65614-0.41076 0.40782-0.66045 0.97436-0.66045 1.5893 0 0.60802 0.2363 1.1536 0.62206 1.5542l0.038396 0.034561c0.40328 0.40065 0.95963 0.64949 1.5714 0.6564h0.0072153 0.020873 0.020615 0.0066999c0.61227-0.0069122 1.1684-0.25575 1.5719-0.6564 0.40689-0.40756 0.66045-0.96694 0.66045-1.5888 0-0.61493-0.25357-1.1815-0.66045-1.5893zm-36.52 6.9022c-0.41359-0.40807-0.98025-0.6564-1.6026-0.6564-0.60505 0-1.1581 0.23501-1.5649 0.61467l-0.034788 0.041729c-0.40998 0.40756-0.66045 0.96694-0.66045 1.5888s0.25047 1.1812 0.66045 1.5893c0.40328 0.40039 0.96015 0.64898 1.5719 0.65614h0.028088 0.020873c0.61845-0.0069122 1.1751-0.25549 1.5786-0.65614 0.40663-0.40807 0.66045-0.96745 0.66045-1.5893s-0.25073-1.1812-0.65762-1.5888zm-1.6026-2.3699c1.0846 0 2.079 0.44904 2.8021 1.1676 0.72359 0.72552 1.1753 1.7132 1.1753 2.791s-0.45173 2.0657-1.1753 2.7843c-0.511 0.51099-1.2065 0.89807-1.961 1.0844v8.5117l9.0232 15.496v-60.728c0-0.47643 0.35819-0.83612 0.8447-0.83612 0.48033 0 0.84161 0.35943 0.84161 0.83612v43.014l4.5271-7.7654v-19.6c-0.75451-0.15207-1.4183-0.53889-1.961-1.0501-0.72307-0.78108-1.1472-1.7411-1.1472-2.791 0-1.078 0.45173-2.0657 1.1472-2.7846 0.72359-0.71861 1.7177-1.1676 2.8371-1.1676 1.0849 0 2.079 0.44904 2.7748 1.1676 0.72359 0.69096 1.1753 1.6791 1.1753 2.7846 0 1.0844-0.45173 2.0726-1.1472 2.791-0.54243 0.51099-1.2031 0.89807-1.961 1.0501v19.807c0 0.17972-0.059011 0.33178-0.14946 0.48385l-6.0954 10.46v31.352h17.26v-55.989l-8.3586-14.356c-0.090448-0.12416-0.14972-0.30414-0.14972-0.4836v-18.129c0-0.45595 0.39297-0.84303 0.87279-0.84303 0.45559 0 0.84496 0.38708 0.84496 0.84303v17.921l6.7906 11.662v-22.93c-0.75425-0.15232-1.4186-0.53889-1.961-1.0501-0.72668-0.78108-1.1472-1.7411-1.1472-2.8191 0-1.0775 0.42055-2.0657 1.1472-2.7567 0.72359-0.71861 1.718-1.1676 2.8026-1.1676 1.0885 0 2.0826 0.44904 2.8065 1.14 0.72642 0.71835 1.1782 1.7065 1.1782 2.7841 0 1.1054-0.45173 2.1003-1.1782 2.8191-0.51151 0.51099-1.207 0.89781-1.9301 1.0501v65.785l5.1285-5.1263v-26.315c-0.75451-0.14464-1.4183-0.53864-1.9296-1.0432-0.75451-0.78056-1.1753-1.7408-1.1753-2.791 0-1.0778 0.45198-2.0655 1.1753-2.7841s1.6902-1.1746 2.8062-1.1746c1.0849 0 2.0826 0.45595 2.8057 1.1746 0.72385 0.71861 1.1439 1.7063 1.1439 2.7841 0 1.078-0.42029 2.0655-1.1439 2.791-0.54553 0.50459-1.2065 0.89858-1.9607 1.0432v26.682c0 0.23501-0.090191 0.44904-0.24352 0.59419l-6.6064 6.5635v14.122h11.464l1.8391-29.494c0.18476-2.7907 0.60505-5.306 1.2098-7.3441 0.63314-2.2175 1.5093-3.9586 2.4728-4.9742 7.2111-7.7931 11.405-17.355 11.797-26.737 0.36179-8.8432-2.5972-17.562-9.5654-24.637-6.5471-6.6257-15.96-10.163-25.643-10.729-10.077-0.6011-20.487 1.9759-28.269 7.5512-15.751 11.24-15.626 23.434-15.539 32.07 0.03118 3.9241 0.058753 7.1641-1.3562 9.4098-1.2691 2.0726-2.9242 3.8685-4.3743 5.4578-1.5995 1.7687-2.9866 3.2679-3.1987 4.3457-0.21208 0.96028 0.87279 1.7964 4.3428 2.4874l0.42415 0.089858c0.39297 0.061698 0.60505 0.11725 1.0573 0.29671 2.8026 1.1126 2.472 4.4975 2.1102 8.3046-0.1492 1.4091-0.30253 2.9361-0.27083 4.3178 0.058753 3.6268 1.3245 6.7151 7.4511 6.6254 0.96659-0.034561 1.9334-0.090114 2.8374-0.15207 3.6509-0.24167 6.5788-0.44904 9.11 2.397 0.57387 0.6564 1.0568 1.7967 1.3562 3.2682 0.24326 1.2852 0.39297 2.8463 0.33371 4.615l-0.48342 12.83h10.23v-13.88c-0.12163-0.06221-0.24326-0.15181-0.30253-0.29697l-10.257-17.624c-0.090449-0.15207-0.15332-0.30414-0.15332-0.51124v-8.7191c-0.75116-0.18663-1.4464-0.54581-1.961-1.0844-0.72307-0.71861-1.1753-1.7065-1.1753-2.7843s0.45224-2.0655 1.1753-2.791c0.78492-0.74575 1.7518-1.1671 2.8088-1.1671z"/>
</g>
</g>
</g>
</g>
</svg>
