<?xml version="1.0" encoding="UTF-8"?>
<svg width="94px" height="117px" viewBox="0 0 94 117" version="1.1" xmlns="http://www.w3.org/2000/svg" xmlns:xlink="http://www.w3.org/1999/xlink">
    <!-- Generator: Sketch 60 (88103) - https://sketch.com -->
    <title>Group 4</title>
    <desc>Created with Sketch.</desc>
    <g id="general-styling-and-website-material" stroke="none" stroke-width="1" fill="none" fill-rule="evenodd">
        <g id="Artboard-9-Copy" transform="translate(-1277.000000, -38.000000)">
            <g id="Group-4" transform="translate(1277.000000, 38.000000)">
                <g id="doc+pen-copy-3" opacity="0.80343192" transform="translate(0.000000, 6.000000)">
                    <polygon id="Rectangle" fill="#1072BB" points="0.78515625 0.082595299 69.9032 0.082595299 85 17.4360941 85 110.87069 0.78515625 110.87069"></polygon>
                    <rect id="Rectangle" fill="#FFFFFF" fill-rule="nonzero" x="17.1032" y="29.0068966" width="52.8" height="4.92413793"></rect>
                    <rect id="Rectangle" fill="#FFFFFF" fill-rule="nonzero" x="17.1032" y="43.7793103" width="52.8" height="4.92413793"></rect>
                    <rect id="Rectangle" fill="#FFFFFF" fill-rule="nonzero" x="17.1032" y="58.5517241" width="40.8" height="4.92413793"></rect>
                    <rect id="Rectangle" fill="#FFFFFF" fill-rule="nonzero" x="17.1032" y="73.3241379" width="28.8" height="4.92413793"></rect>
                    <rect id="Rectangle" fill="#FFFFFF" fill-rule="nonzero" x="17.1032" y="88.0965517" width="28.8" height="4.92413793"></rect>
                </g>
                <g id="doc+pen-copy-2" transform="translate(9.000000, 0.000000)">
                    <polygon id="Rectangle" fill="#1072BB" points="0.78515625 0.082595299 69.9032 0.082595299 85 17.4360941 85 110.87069 0.78515625 110.87069"></polygon>
                    <rect id="Rectangle" fill="#FFFFFF" fill-rule="nonzero" x="17.1032" y="29.0068966" width="52.8" height="4.92413793"></rect>
                    <rect id="Rectangle" fill="#FFFFFF" fill-rule="nonzero" x="17.1032" y="43.7793103" width="52.8" height="4.92413793"></rect>
                    <rect id="Rectangle" fill="#FFFFFF" fill-rule="nonzero" x="17.1032" y="58.5517241" width="40.8" height="4.92413793"></rect>
                    <rect id="Rectangle" fill="#FFFFFF" fill-rule="nonzero" x="17.1032" y="73.3241379" width="28.8" height="4.92413793"></rect>
                    <rect id="Rectangle" fill="#FFFFFF" fill-rule="nonzero" x="17.1032" y="88.0965517" width="28.8" height="4.92413793"></rect>
                </g>
            </g>
        </g>
    </g>
</svg>