<?xml version="1.0" encoding="UTF-8"?>
<svg width="50px" height="51px" viewBox="0 0 50 51" version="1.1" xmlns="http://www.w3.org/2000/svg" xmlns:xlink="http://www.w3.org/1999/xlink">
    <!-- Generator: Sketch 47 (45396) - http://www.bohemiancoding.com/sketch -->
    <title>entreprenad</title>
    <desc>Created with Sketch.</desc>
    <defs>
        <circle id="path-1" cx="24" cy="24" r="24"></circle>
        <filter x="-6.2%" y="-4.2%" width="112.5%" height="112.5%" filterUnits="objectBoundingBox" id="filter-2">
            <feOffset dx="0" dy="1" in="SourceAlpha" result="shadowOffsetOuter1"></feOffset>
            <feGaussianBlur stdDeviation="0.5" in="shadowOffsetOuter1" result="shadowBlurOuter1"></feGaussianBlur>
            <feColorMatrix values="0 0 0 0 0.196078431   0 0 0 0 0.196078431   0 0 0 0 0.364705882  0 0 0 0.11 0" type="matrix" in="shadowBlurOuter1" result="shadowMatrixOuter1"></feColorMatrix>
            <feOffset dx="0" dy="0" in="SourceAlpha" result="shadowOffsetOuter2"></feOffset>
            <feGaussianBlur stdDeviation="0.5" in="shadowOffsetOuter2" result="shadowBlurOuter2"></feGaussianBlur>
            <feColorMatrix values="0 0 0 0 0   0 0 0 0 0   0 0 0 0 0  0 0 0 0.08 0" type="matrix" in="shadowBlurOuter2" result="shadowMatrixOuter2"></feColorMatrix>
            <feMerge>
                <feMergeNode in="shadowMatrixOuter1"></feMergeNode>
                <feMergeNode in="shadowMatrixOuter2"></feMergeNode>
            </feMerge>
        </filter>
        <path d="M0.0940298507,0.0943454636 L11.6152954,4.81161864" id="path-3"></path>
        <filter x="-19.6%" y="-47.8%" width="139.2%" height="195.6%" filterUnits="objectBoundingBox" id="filter-4">
            <feMorphology radius="0.755725191" operator="dilate" in="SourceAlpha" result="shadowSpreadOuter1"></feMorphology>
            <feOffset dx="0" dy="0" in="shadowSpreadOuter1" result="shadowOffsetOuter1"></feOffset>
            <feMorphology radius="1" operator="erode" in="SourceAlpha" result="shadowInner"></feMorphology>
            <feOffset dx="0" dy="0" in="shadowInner" result="shadowInner"></feOffset>
            <feComposite in="shadowOffsetOuter1" in2="shadowInner" operator="out" result="shadowOffsetOuter1"></feComposite>
            <feGaussianBlur stdDeviation="0.5" in="shadowOffsetOuter1" result="shadowBlurOuter1"></feGaussianBlur>
            <feColorMatrix values="0 0 0 0 0.062745098   0 0 0 0 0.447058824   0 0 0 0 0.733333333  0 0 0 0.1 0" type="matrix" in="shadowBlurOuter1"></feColorMatrix>
        </filter>
        <path d="M0.0940298507,0.0943454636 L11.7260376,4.81161864" id="path-5"></path>
        <filter x="-19.4%" y="-47.8%" width="138.8%" height="195.6%" filterUnits="objectBoundingBox" id="filter-6">
            <feMorphology radius="0.755725191" operator="dilate" in="SourceAlpha" result="shadowSpreadOuter1"></feMorphology>
            <feOffset dx="0" dy="0" in="shadowSpreadOuter1" result="shadowOffsetOuter1"></feOffset>
            <feMorphology radius="1" operator="erode" in="SourceAlpha" result="shadowInner"></feMorphology>
            <feOffset dx="0" dy="0" in="shadowInner" result="shadowInner"></feOffset>
            <feComposite in="shadowOffsetOuter1" in2="shadowInner" operator="out" result="shadowOffsetOuter1"></feComposite>
            <feGaussianBlur stdDeviation="0.5" in="shadowOffsetOuter1" result="shadowBlurOuter1"></feGaussianBlur>
            <feColorMatrix values="0 0 0 0 0.062745098   0 0 0 0 0.447058824   0 0 0 0 0.733333333  0 0 0 0.1 0" type="matrix" in="shadowBlurOuter1"></feColorMatrix>
        </filter>
        <filter x="-26.8%" y="-11.5%" width="148.8%" height="116.4%" filterUnits="objectBoundingBox" id="filter-7">
            <feOffset dx="0" dy="0" in="SourceAlpha" result="shadowOffsetOuter1"></feOffset>
            <feGaussianBlur stdDeviation="0.5" in="shadowOffsetOuter1" result="shadowBlurOuter1"></feGaussianBlur>
            <feColorMatrix values="0 0 0 0 0.062745098   0 0 0 0 0.447058824   0 0 0 0 0.733333333  0 0 0 0.4 0" type="matrix" in="shadowBlurOuter1" result="shadowMatrixOuter1"></feColorMatrix>
            <feMerge>
                <feMergeNode in="shadowMatrixOuter1"></feMergeNode>
                <feMergeNode in="SourceGraphic"></feMergeNode>
            </feMerge>
        </filter>
        <path d="M0.5125,1.6125 L15.7125,1.6125" id="path-8"></path>
        <filter x="-16.9%" y="-112.5%" width="133.8%" height="325.0%" filterUnits="objectBoundingBox" id="filter-9">
            <feMorphology radius="1.2" operator="dilate" in="SourceAlpha" result="shadowSpreadOuter1"></feMorphology>
            <feOffset dx="0" dy="0" in="shadowSpreadOuter1" result="shadowOffsetOuter1"></feOffset>
            <feMorphology radius="1.2" operator="erode" in="SourceAlpha" result="shadowInner"></feMorphology>
            <feOffset dx="0" dy="0" in="shadowInner" result="shadowInner"></feOffset>
            <feComposite in="shadowOffsetOuter1" in2="shadowInner" operator="out" result="shadowOffsetOuter1"></feComposite>
            <feGaussianBlur stdDeviation="0.5" in="shadowOffsetOuter1" result="shadowBlurOuter1"></feGaussianBlur>
            <feColorMatrix values="0 0 0 0 0.062745098   0 0 0 0 0.447058824   0 0 0 0 0.733333333  0 0 0 0.2 0" type="matrix" in="shadowBlurOuter1"></feColorMatrix>
        </filter>
    </defs>
    <g id="general-styling-and-website-material" stroke="none" stroke-width="1" fill="none" fill-rule="evenodd">
        <g id="Desktop" transform="translate(-568.000000, -250.000000)">
            <g id="entreprenad" transform="translate(569.000000, 251.000000)">
                <g id="bg">
                    <use fill="black" fill-opacity="1" filter="url(#filter-2)" xlink:href="#path-1"></use>
                    <use fill="#1072BB" fill-rule="evenodd" xlink:href="#path-1"></use>
                </g>
                <g id="Group" transform="translate(27.000000, 14.062500)">
                    <path d="M0.752238806,0.754763708 L10.4356469,3.96377079 L10.4356469,3.96377079 C11.0541176,4.16872724 11.4716418,4.74694503 11.4716418,5.39849178 L11.4716418,23.5849237 C11.4716418,24.2109869 10.9641173,24.7185115 10.338054,24.7185115 L1.88582659,24.7185115 L1.88582659,24.7185115 C1.25976335,24.7185115 0.752238806,24.2109869 0.752238806,23.5849237 L0.752238806,0.754763708 Z M5.27002962,7.17025523 C4.74831025,7.17025523 4.32537313,7.59319235 4.32537313,8.11491172 L4.32537313,8.67858079 C4.32537313,9.20030017 4.74831025,9.62323728 5.27002962,9.62323728 L7.14191068,9.62323728 C7.66363005,9.62323728 8.08656716,9.20030017 8.08656716,8.67858079 L8.08656716,8.11491172 C8.08656716,7.59319235 7.66363005,7.17025523 7.14191068,7.17025523 L5.27002962,7.17025523 Z M5.27002962,10.5666919 C4.74831025,10.5666919 4.32537313,10.989629 4.32537313,11.5113484 L4.32537313,12.0750175 C4.32537313,12.5967369 4.74831025,13.019674 5.27002962,13.019674 L7.14191068,13.019674 C7.66363005,13.019674 8.08656716,12.5967369 8.08656716,12.0750175 L8.08656716,11.5113484 C8.08656716,10.989629 7.66363005,10.5666919 7.14191068,10.5666919 L5.27002962,10.5666919 Z" id="Rectangle-3" fill="#FFFFFF"></path>
                    <g id="Line-2" stroke-linecap="round">
                        <use fill="black" fill-opacity="1" filter="url(#filter-4)" xlink:href="#path-3"></use>
                        <use stroke="#F6F9FC" stroke-width="1.51145038" xlink:href="#path-3"></use>
                    </g>
                </g>
                <g id="Group" transform="translate(15.281250, 26.437500) scale(-1, 1) translate(-15.281250, -26.437500) translate(9.375000, 14.062500)">
                    <path d="M0.752238806,0.754763708 L10.4356469,3.96377079 L10.4356469,3.96377079 C11.0541176,4.16872724 11.4716418,4.74694503 11.4716418,5.39849178 L11.4716418,23.5849237 C11.4716418,24.2109869 10.9641173,24.7185115 10.338054,24.7185115 L1.88582659,24.7185115 L1.88582659,24.7185115 C1.25976335,24.7185115 0.752238806,24.2109869 0.752238806,23.5849237 L0.752238806,0.754763708 Z M5.27002962,7.17025523 C4.74831025,7.17025523 4.32537313,7.59319235 4.32537313,8.11491172 L4.32537313,8.67858079 C4.32537313,9.20030017 4.74831025,9.62323728 5.27002962,9.62323728 L7.14191068,9.62323728 C7.66363005,9.62323728 8.08656716,9.20030017 8.08656716,8.67858079 L8.08656716,8.11491172 C8.08656716,7.59319235 7.66363005,7.17025523 7.14191068,7.17025523 L5.27002962,7.17025523 Z M5.27002962,10.5666919 C4.74831025,10.5666919 4.32537313,10.989629 4.32537313,11.5113484 L4.32537313,12.0750175 C4.32537313,12.5967369 4.74831025,13.019674 5.27002962,13.019674 L7.14191068,13.019674 C7.66363005,13.019674 8.08656716,12.5967369 8.08656716,12.0750175 L8.08656716,11.5113484 C8.08656716,10.989629 7.66363005,10.5666919 7.14191068,10.5666919 L5.27002962,10.5666919 Z" id="Rectangle-3" fill="#FFFFFF"></path>
                    <g id="Line-2" stroke-linecap="round">
                        <use fill="black" fill-opacity="1" filter="url(#filter-6)" xlink:href="#path-5"></use>
                        <use stroke="#F6F9FC" stroke-width="1.51145038" xlink:href="#path-5"></use>
                    </g>
                </g>
                <g id="Group" filter="url(#filter-7)" transform="translate(15.887500, 9.187500)">
                    <path d="M1.7,1.08635496 L14.7782715,1.08635496 L14.525,29.625 L1.7,29.625 L1.7,1.08635496 Z M6.875,22.4341603 L6.875,22.4341603 C6.37794373,22.4341603 5.975,22.837104 5.975,23.3341603 L5.975,29.625 L10.475,29.625 L10.475,23.3341603 C10.475,22.837104 10.0720563,22.4341603 9.575,22.4341603 L6.875,22.4341603 Z M7.1,8.72662214 C6.47867966,8.72662214 5.975,9.23030179 5.975,9.85162214 L5.975,9.85162214 L5.975,10.5229008 C5.975,11.1442211 6.47867966,11.6479008 7.1,11.6479008 L9.35,11.6479008 C9.97132034,11.6479008 10.475,11.1442211 10.475,10.5229008 L10.475,9.85162214 C10.475,9.23030179 9.97132034,8.72662214 9.35,8.72662214 L7.1,8.72662214 Z M7.1,12.7714695 C6.47867966,12.7714695 5.975,13.2751491 5.975,13.8964695 L5.975,14.5677481 C5.975,15.1890684 6.47867966,15.6927481 7.1,15.6927481 L9.35,15.6927481 C9.97132034,15.6927481 10.475,15.1890684 10.475,14.5677481 L10.475,13.8964695 C10.475,13.2751491 9.97132034,12.7714695 9.35,12.7714695 L7.1,12.7714695 Z" id="Rectangle-3" fill="#FFFFFF"></path>
                    <g id="Line-3" stroke-linecap="round">
                        <use fill="black" fill-opacity="1" filter="url(#filter-9)" xlink:href="#path-8"></use>
                        <use stroke="#F6F9FC" stroke-width="2.4" xlink:href="#path-8"></use>
                    </g>
                </g>
            </g>
        </g>
    </g>
</svg>