<svg xmlns="http://www.w3.org/2000/svg" width="45" height="25" viewBox="0 0 45 25"><path fill="#6342B1" fill-rule="evenodd" d="M40.586 7.242l-7.94 7.939c.222.565.354 1.175.354 1.819 0 2.761-2.239 5-5 5-2.762 0-5.001-2.239-5.001-5 0-.644.132-1.254.354-1.819l-3.535-3.534c-.565.221-1.175.353-1.818.353-.644 0-1.254-.132-1.819-.353l-6.535 6.535c.222.564.354 1.175.354 1.818 0 2.761-2.239 5-5.001 5-2.761 0-4.999-2.239-4.999-5s2.238-5 4.999-5c.644 0 1.254.132 1.819.353l6.535-6.535c-.221-.564-.353-1.175-.353-1.818 0-2.762 2.238-5 5-5 2.761 0 4.999 2.238 4.999 5 0 .643-.131 1.253-.353 1.818l3.535 3.535c.565-.221 1.175-.353 1.819-.353.643 0 1.253.132 1.818.353l7.939-7.939c.781-.781 2.047-.781 2.829 0 .78.781.78 2.047 0 2.828zm3.414-7.242h-8.001c-.552 0-.999.448-.999 1s.447 1 .999 1h7v7c0 .552.448 1 1.001 1 .552 0 .999-.448.999-1v-8c0-.552-.447-1-.999-1z"/></svg>