<?xml version="1.0" encoding="UTF-8"?>
<svg width="168px" height="168px" viewBox="0 0 168 168" version="1.1" xmlns="http://www.w3.org/2000/svg" xmlns:xlink="http://www.w3.org/1999/xlink">
    <!-- Generator: Sketch 60 (88103) - https://sketch.com -->
    <title>invoice_icon</title>
    <desc>Created with Sketch.</desc>
    <defs>
        <path d="M6.409713,-2.58960077e-16 L143.590287,2.58960077e-16 C145.819084,-1.50463262e-16 146.627299,0.232064028 147.442114,0.667831759 C148.256929,1.10359949 148.896401,1.74307093 149.332168,2.55788574 C149.767936,3.37270056 150,4.18091615 150,6.409713 L150,143.590287 C150,145.819084 149.767936,146.627299 149.332168,147.442114 C148.896401,148.256929 148.256929,148.896401 147.442114,149.332168 C146.627299,149.767936 145.819084,150 143.590287,150 L6.409713,150 C4.18091615,150 3.37270056,149.767936 2.55788574,149.332168 C1.74307093,148.896401 1.10359949,148.256929 0.667831759,147.442114 C0.232064028,146.627299 1.00308841e-16,145.819084 -1.72640051e-16,143.590287 L1.72640051e-16,6.409713 C-1.00308841e-16,4.18091615 0.232064028,3.37270056 0.667831759,2.55788574 C1.10359949,1.74307093 1.74307093,1.10359949 2.55788574,0.667831759 C3.37270056,0.232064028 4.18091615,1.50463262e-16 6.409713,-2.58960077e-16 Z" id="path-1"></path>
        <filter x="-9.7%" y="-8.3%" width="119.3%" height="119.3%" filterUnits="objectBoundingBox" id="filter-2">
            <feOffset dx="0" dy="2" in="SourceAlpha" result="shadowOffsetOuter1"></feOffset>
            <feGaussianBlur stdDeviation="4.5" in="shadowOffsetOuter1" result="shadowBlurOuter1"></feGaussianBlur>
            <feColorMatrix values="0 0 0 0 0.196078431   0 0 0 0 0.196078431   0 0 0 0 0.364705882  0 0 0 0.200549139 0" type="matrix" in="shadowBlurOuter1"></feColorMatrix>
        </filter>
    </defs>
    <g id="general-styling-and-website-material" stroke="none" stroke-width="1" fill="none" fill-rule="evenodd">
        <g id="Artboard-9-Copy" transform="translate(-1389.000000, -365.000000)">
            <g id="invoice_icon" transform="translate(1398.000000, 372.000000)">
                <g id="calBG">
                    <use fill="black" fill-opacity="1" filter="url(#filter-2)" xlink:href="#path-1"></use>
                    <use fill="#1072BB" fill-rule="evenodd" xlink:href="#path-1"></use>
                </g>
                <g id="invoice" transform="translate(30.000000, 16.000000)">
                    <polygon id="Path" fill="#FFFFFF" fill-rule="nonzero" points="88.7548642 19.7764459 71.0265465 19.7764459 71.0265465 2.04802857 74.971038 2.04802857 74.971038 15.8318547 88.7548642 15.8318547"></polygon>
                    <polygon id="Rectangle" fill="#FFFFFF" points="3 2.04802857 71.0265465 2.04802857 90 21.4282269 90 115 3 115"></polygon>
                    <path d="M0.0507808608,114.327972 L0.0507808608,4.00796875 C0.0507808608,1.79882975 1.84164186,0.00796875022 4.05078086,0.00796875022 L73.0149929,0.00796875022 C73.5454259,0.00796875022 74.0541337,0.218682431 74.4292065,0.593755188 L90.2091376,16.3736863 C90.5842104,16.7487591 90.794924,17.2574669 90.794924,17.7878999 L90.794924,114.327972 C90.794924,116.537111 89.004063,118.327972 86.794924,118.327972 L4.05078086,118.327972 C1.84164186,118.327972 0.0507808608,116.537111 0.0507808608,114.327972 Z M4.13078098,114.248072 L86.7150235,114.248072 L86.7150235,18.6489474 L72.1541446,4.08796886 L4.13078098,4.08796886 L4.13078098,114.248072 L4.13078098,114.248072 Z" id="Shape" fill="#FFFFFF" fill-rule="nonzero"></path>
                    <polygon id="Path" fill="#1072BB" fill-rule="nonzero" points="39.5120519 15.9055856 11.9381441 15.9055856 11.9381441 11.825705 39.5120519 11.825705"></polygon>
                    <path d="M78.9793393,90.7540643 L11.8684972,90.7540643 L11.8684972,27.5838289 L78.9793393,27.5838289 L78.9793393,90.7540643 L78.9793393,90.7540643 Z M15.9483977,86.6741638 L74.8992396,86.6741638 L74.8992396,31.6638091 L15.9483977,31.6638091 L15.9483977,86.6741638 L15.9483977,86.6741638 Z" id="Shape" fill="#1072BB" fill-rule="nonzero"></path>
                    <polygon id="Path" fill="#1072BB" fill-rule="nonzero" points="78.9075608 100.671234 47.3931459 100.671234 47.3931459 96.591134 78.9075608 96.591134"></polygon>
                    <polygon id="Path" fill="#1072BB" fill-rule="nonzero" points="47.3931459 106.510435 47.3931459 102.430355 67.0898245 102.430355 67.0898245 106.510435"></polygon>
                    <polygon id="Path" fill="#1072BB" fill-rule="nonzero" points="76.9392994 43.4794934 13.9084375 43.4794934 13.9084375 39.3994933 76.9392994 39.3994933"></polygon>
                    <polygon id="Path" fill="#1072BB" fill-rule="nonzero" points="31.7046689 88.7142037 27.6246687 88.7142037 27.6246687 29.6238688 31.7046689 29.6238688"></polygon>
                    <polygon id="Path" fill="#1072BB" fill-rule="nonzero" points="47.4628923 88.7142037 43.3827926 88.7142037 43.3827926 41.4394535 47.4628923 41.4394535"></polygon>
                    <polygon id="Path" fill="#1072BB" fill-rule="nonzero" points="63.2210162 88.7142037 59.1411157 88.7142037 59.1411157 41.4394535 63.2210162 41.4394535"></polygon>
                    <polygon id="Path" fill="#1072BB" fill-rule="nonzero" points="76.9392994 55.2991621 29.6647286 55.2991621 29.6647286 51.2190624 76.9392994 51.2190624"></polygon>
                    <polygon id="Path" fill="#1072BB" fill-rule="nonzero" points="76.9392994 67.1168784 29.6647286 67.1168784 29.6647286 63.0367787 76.9392994 63.0367787"></polygon>
                    <polygon id="Path" fill="#1072BB" fill-rule="nonzero" points="76.9392994 78.9365471 29.6647286 78.9365471 29.6647286 74.8564474 76.9392994 74.8564474"></polygon>
                </g>
            </g>
        </g>
    </g>
</svg>