<?xml version="1.0" encoding="UTF-8"?>
<svg width="400px" height="388px" viewBox="0 0 400 388" version="1.1" xmlns="http://www.w3.org/2000/svg" xmlns:xlink="http://www.w3.org/1999/xlink">
    <title>ispectLogoLarge</title>
    <defs>
        <circle id="path-1" cx="175" cy="175" r="175"></circle>
        <filter x="-21.7%" y="-15.1%" width="143.4%" height="149.4%" filterUnits="objectBoundingBox" id="filter-3">
            <feMorphology radius="4" operator="erode" in="SourceAlpha" result="shadowSpreadOuter1"></feMorphology>
            <feOffset dx="0" dy="8" in="shadowSpreadOuter1" result="shadowOffsetOuter1"></feOffset>
            <feGaussianBlur stdDeviation="14.5" in="shadowOffsetOuter1" result="shadowBlurOuter1"></feGaussianBlur>
            <feColorMatrix values="0 0 0 0 0.121568627   0 0 0 0 0.133333333   0 0 0 0 0.192156863  0 0 0 0.0543597028 0" type="matrix" in="shadowBlurOuter1" result="shadowMatrixOuter1"></feColorMatrix>
            <feMorphology radius="4" operator="erode" in="SourceAlpha" result="shadowSpreadOuter2"></feMorphology>
            <feOffset dx="0" dy="44" in="shadowSpreadOuter2" result="shadowOffsetOuter2"></feOffset>
            <feGaussianBlur stdDeviation="22" in="shadowOffsetOuter2" result="shadowBlurOuter2"></feGaussianBlur>
            <feColorMatrix values="0 0 0 0 0.631372549   0 0 0 0 0.682352941   0 0 0 0 0.737254902  0 0 0 0.501557037 0" type="matrix" in="shadowBlurOuter2" result="shadowMatrixOuter2"></feColorMatrix>
            <feMerge>
                <feMergeNode in="shadowMatrixOuter1"></feMergeNode>
                <feMergeNode in="shadowMatrixOuter2"></feMergeNode>
            </feMerge>
        </filter>
    </defs>
    <g id="marketing" stroke="none" stroke-width="1" fill="none" fill-rule="evenodd">
        <g id="Social/LinkedIN/Profile-image" transform="translate(0.000000, -12.000000)">
            <g id="ispectLogoLarge" transform="translate(25.000000, 25.000000)">
                <mask id="mask-2" fill="white">
                    <use xlink:href="#path-1"></use>
                </mask>
                <g id="bg">
                    <use fill="black" fill-opacity="1" filter="url(#filter-3)" xlink:href="#path-1"></use>
                    <use fill="#FFFFFF" fill-rule="evenodd" xlink:href="#path-1"></use>
                </g>
                <path d="M135.333333,141.383458 C135.333333,141.383458 146.920063,161.826597 161.216548,187.050712 L173.562468,208.833333 C173.562468,208.833333 242.116415,44.4406233 437.5,69.7277822" id="bm_check" stroke="#1072BB" stroke-width="23.3333333" stroke-linecap="square" mask="url(#mask-2)"></path>
                <path d="M175.326523,75.8333333 C200.531839,75.8333333 223.548001,85.2096093 241.079873,100.665765 C238.263827,102.55629 235.427494,104.56674 232.569439,106.698483 C229.445996,109.028171 226.455035,111.448629 223.596557,113.959857 C210.334883,103.56464 193.624793,97.3685275 175.464516,97.3685275 C132.319743,97.3685275 97.3602924,132.341352 97.3602924,175.502629 C97.3602924,218.663907 132.319743,253.636731 175.464516,253.636731 C218.609289,253.636731 253.568739,218.663907 253.568739,175.502629 C253.568739,163.077413 250.671503,151.330808 245.5158,140.901829 C248.351955,138.395755 251.397313,135.898729 254.648703,133.411438 C257.225094,131.440517 259.888719,129.507939 262.639577,127.613705 C270.405492,141.787471 274.819712,158.060321 274.819712,175.364583 C274.819712,197.773333 267.329296,218.362083 254.850007,235.01224 L254.850007,235.01224 L298.982343,279.161458 C301.313327,281.493333 306.84699,286.800299 315.583333,295.082357 L315.583333,295.082357 L295.358404,314.416667 C286.252105,305.928194 280.827205,300.811875 279.083706,299.067708 L279.083706,299.067708 L234.937156,254.91849 C218.30758,267.402552 197.726703,274.895833 175.326523,274.895833 C120.377855,274.895833 75.8333333,230.334271 75.8333333,175.364583 C75.8333333,120.394896 120.377855,75.8333333 175.326523,75.8333333 Z" id="Shape" fill="#CCDBEB" fill-rule="nonzero" mask="url(#mask-2)"></path>
            </g>
        </g>
    </g>
</svg>