<?xml version="1.0" encoding="UTF-8"?>
<svg width="256px" height="194px" viewBox="0 0 256 194" version="1.1" xmlns="http://www.w3.org/2000/svg" xmlns:xlink="http://www.w3.org/1999/xlink">
    <!-- Generator: Sketch 51.3 (57544) - http://www.bohemiancoding.com/sketch -->
    <title>lists_icon</title>
    <desc>Created with Sketch.</desc>
    <defs>
        <path d="M8.66249979,-5.67720646e-13 L93.7058824,-5.60715495e-13 C98.9164216,-5.62370981e-13 104.126961,-5.64026466e-13 109.3375,-5.65681951e-13 L109.3375,-5.70210545e-13 C114.121667,-5.71089383e-13 118,3.87833326 118,8.66249979 L118,121.666667 C118,126.890278 118,132.113889 118,137.3375 L118,137.3375 C118,142.121667 114.121667,146 109.3375,146 L8.66249979,146 C3.87833326,146 -1.93037004e-13,142.121667 -1.93622895e-13,137.3375 C-1.90465098e-13,132.113889 -1.89945434e-13,126.890278 -1.8942577e-13,121.666667 L-1.8942577e-13,24.3333333 C-1.89945434e-13,19.1097222 -1.90465098e-13,13.886111 -1.90984762e-13,8.66249979 L-1.93622895e-13,8.66249979 C-1.94208787e-13,3.87833326 3.87833326,-5.69331708e-13 8.66249979,-5.70210545e-13 Z" id="path-1"></path>
        <filter x="-31.8%" y="-23.6%" width="163.6%" height="151.4%" filterUnits="objectBoundingBox" id="filter-2">
            <feOffset dx="0" dy="3" in="SourceAlpha" result="shadowOffsetOuter1"></feOffset>
            <feGaussianBlur stdDeviation="12" in="shadowOffsetOuter1" result="shadowBlurOuter1"></feGaussianBlur>
            <feColorMatrix values="0 0 0 0 0.196078431   0 0 0 0 0.196078431   0 0 0 0 0.364705882  0 0 0 0.200549139 0" type="matrix" in="shadowBlurOuter1"></feColorMatrix>
        </filter>
        <path d="M60.7439809,39.9761879 L88.4826617,40.0105594 C90.4065993,40.0129434 91.9681964,38.4585337 91.9705855,36.5386882 C91.9729745,34.6188427 90.4152512,33.0605678 88.4913128,33.0581838 L60.7526324,33.0238123 C58.8286944,33.0214283 57.2670977,34.575838 57.2647086,36.4956835 C57.2623196,38.415529 58.8200428,39.9738039 60.7439809,39.9761879 Z" id="path-3"></path>
        <filter x="-108.1%" y="-493.8%" width="316.1%" height="1173.5%" filterUnits="objectBoundingBox" id="filter-4">
            <feOffset dx="0" dy="3" in="SourceAlpha" result="shadowOffsetOuter1"></feOffset>
            <feGaussianBlur stdDeviation="12" in="shadowOffsetOuter1" result="shadowBlurOuter1"></feGaussianBlur>
            <feColorMatrix values="0 0 0 0 0.196078431   0 0 0 0 0.196078431   0 0 0 0 0.364705882  0 0 0 0.200549139 0" type="matrix" in="shadowBlurOuter1"></feColorMatrix>
        </filter>
        <path d="M60.7439809,74.7380924 L88.4826617,74.7724643 C90.4065993,74.7748483 91.9681964,73.2204384 91.9705855,71.3005926 C91.9729745,69.3807476 90.4152512,67.8224722 88.4913128,67.8200882 L60.7526324,67.785717 C58.8286944,67.783333 57.2670977,69.3377429 57.2647086,71.257588 C57.2623196,73.1774338 58.8200428,74.7357084 60.7439809,74.7380924 Z" id="path-5"></path>
        <filter x="-108.1%" y="-493.8%" width="316.1%" height="1173.5%" filterUnits="objectBoundingBox" id="filter-6">
            <feOffset dx="0" dy="3" in="SourceAlpha" result="shadowOffsetOuter1"></feOffset>
            <feGaussianBlur stdDeviation="12" in="shadowOffsetOuter1" result="shadowBlurOuter1"></feGaussianBlur>
            <feColorMatrix values="0 0 0 0 0.196078431   0 0 0 0 0.196078431   0 0 0 0 0.364705882  0 0 0 0.200549139 0" type="matrix" in="shadowBlurOuter1"></feColorMatrix>
        </filter>
        <path d="M60.7439809,109.499997 L88.4826617,109.534369 C90.4065993,109.536753 91.9681964,107.982343 91.9705855,106.062497 C91.9729745,104.142652 90.4152512,102.584377 88.4913128,102.581993 L60.7526324,102.547622 C58.8286944,102.545238 57.2670977,104.099648 57.2647086,106.019493 C57.2623196,107.939339 58.8200428,109.497613 60.7439809,109.499997 Z" id="path-7"></path>
        <filter x="-108.1%" y="-493.8%" width="316.1%" height="1173.5%" filterUnits="objectBoundingBox" id="filter-8">
            <feOffset dx="0" dy="3" in="SourceAlpha" result="shadowOffsetOuter1"></feOffset>
            <feGaussianBlur stdDeviation="12" in="shadowOffsetOuter1" result="shadowBlurOuter1"></feGaussianBlur>
            <feColorMatrix values="0 0 0 0 0.196078431   0 0 0 0 0.196078431   0 0 0 0 0.364705882  0 0 0 0.200549139 0" type="matrix" in="shadowBlurOuter1"></feColorMatrix>
        </filter>
        <path d="M8.66249979,-2.27346265e-12 L93.7058824,-2.27077165e-12 C98.9164216,-2.2714076e-12 104.126961,-2.27204354e-12 109.3375,-2.27267949e-12 L109.3375,-2.27373675e-12 C114.121667,-2.27461559e-12 118,3.87833326 118,8.66249979 L118,137.3375 C118,142.121667 114.121667,146 109.3375,146 L8.66249979,146 C3.87833326,146 -1.97704752e-13,142.121667 -2.13162821e-13,137.3375 L-2.13162821e-13,8.66249979 C-2.13748712e-13,3.87833326 3.87833326,-2.27285792e-12 8.66249979,-2.27373675e-12 Z" id="path-9"></path>
        <filter x="-31.8%" y="-23.6%" width="163.6%" height="151.4%" filterUnits="objectBoundingBox" id="filter-10">
            <feOffset dx="0" dy="3" in="SourceAlpha" result="shadowOffsetOuter1"></feOffset>
            <feGaussianBlur stdDeviation="12" in="shadowOffsetOuter1" result="shadowBlurOuter1"></feGaussianBlur>
            <feColorMatrix values="0 0 0 0 0.196078431   0 0 0 0 0.196078431   0 0 0 0 0.364705882  0 0 0 0.200549139 0" type="matrix" in="shadowBlurOuter1"></feColorMatrix>
        </filter>
    </defs>
    <g id="general-styling-and-website-material" stroke="none" stroke-width="1" fill="none" fill-rule="evenodd">
        <g id="Artboard-9" transform="translate(-1331.000000, -192.000000)">
            <g id="lists_icon" transform="translate(1355.000000, 213.000000)">
                <g id="checkmark_paper" transform="translate(90.000000, 0.000000)">
                    <g id="Combined-Shape" fill-rule="nonzero">
                        <use fill="black" fill-opacity="1" filter="url(#filter-2)" xlink:href="#path-1"></use>
                        <use fill="#E75153" xlink:href="#path-1"></use>
                    </g>
                    <g id="Combined-Shape-path">
                        <use fill="black" fill-opacity="1" filter="url(#filter-4)" xlink:href="#path-3"></use>
                        <use fill="#FFFFFF" fill-rule="evenodd" xlink:href="#path-3"></use>
                    </g>
                    <g id="Combined-Shape-path">
                        <use fill="black" fill-opacity="1" filter="url(#filter-6)" xlink:href="#path-5"></use>
                        <use fill="#FFFFFF" fill-rule="evenodd" xlink:href="#path-5"></use>
                    </g>
                    <g id="Combined-Shape-path">
                        <use fill="black" fill-opacity="1" filter="url(#filter-8)" xlink:href="#path-7"></use>
                        <use fill="#FFFFFF" fill-rule="evenodd" xlink:href="#path-7"></use>
                    </g>
                    <g id="Group-2" transform="translate(26.029412, 95.595238)" fill="#FFFFFF">
                        <path d="M0.611610139,5.54448804 L15.2979625,20.2794496 C16.3165988,21.3014573 18.2438945,21.0304856 19.6026974,19.6742166 C20.9614999,18.3179482 21.2372594,16.3899735 20.2186227,15.3679654 L5.53227002,0.633004558 C4.51363353,-0.389003385 2.5863381,-0.118031352 1.22753563,1.23823707 C-0.131267291,2.59450602 -0.407026359,4.5224801 0.611610139,5.54448804 Z" id="Combined-Shape-path"></path>
                        <path d="M5.52763675,20.2354348 L20.2625983,5.54908243 C21.2846061,4.53044615 21.0136343,2.60315047 19.6573653,1.24434754 C18.3010969,-0.114454889 16.3731222,-0.390214375 15.3511141,0.62842227 L0.616153265,15.314775 C-0.405854678,16.3334114 -0.134882645,18.2607069 1.22138578,19.6195093 C2.57765473,20.9783123 4.50562881,21.2540713 5.52763675,20.2354348 Z" id="Combined-Shape-path"></path>
                    </g>
                    <g id="Group" transform="translate(26.029412, 60.833333)" fill="#FFFFFF">
                        <path d="M0.611610139,5.54448804 L15.2979625,20.2794496 C16.3165988,21.3014573 18.2438945,21.0304856 19.6026974,19.6742166 C20.9614999,18.3179482 21.2372594,16.3899735 20.2186227,15.3679654 L5.53227002,0.633004558 C4.51363353,-0.389003385 2.5863381,-0.118031352 1.22753563,1.23823707 C-0.131267291,2.59450602 -0.407026359,4.5224801 0.611610139,5.54448804 Z" id="Combined-Shape-path"></path>
                        <path d="M5.52763675,20.2354348 L20.2625983,5.54908243 C21.2846061,4.53044615 21.0136343,2.60315047 19.6573653,1.24434754 C18.3010969,-0.114454889 16.3731222,-0.390214375 15.3511141,0.62842227 L0.616153265,15.314775 C-0.405854678,16.3334114 -0.134882645,18.2607069 1.22138578,19.6195093 C2.57765473,20.9783123 4.50562881,21.2540713 5.52763675,20.2354348 Z" id="Combined-Shape-path"></path>
                    </g>
                    <g id="Group" transform="translate(26.029412, 26.071429)" fill="#FFFFFF">
                        <path d="M0.611610139,5.54448804 L15.2979625,20.2794496 C16.3165988,21.3014573 18.2438945,21.0304856 19.6026974,19.6742166 C20.9614999,18.3179482 21.2372594,16.3899735 20.2186227,15.3679654 L5.53227002,0.633004558 C4.51363353,-0.389003385 2.5863381,-0.118031352 1.22753563,1.23823707 C-0.131267291,2.59450602 -0.407026359,4.5224801 0.611610139,5.54448804 Z" id="Combined-Shape-path"></path>
                        <path d="M5.52763675,20.2354348 L20.2625983,5.54908243 C21.2846061,4.53044615 21.0136343,2.60315047 19.6573653,1.24434754 C18.3010969,-0.114454889 16.3731222,-0.390214375 15.3511141,0.62842227 L0.616153265,15.314775 C-0.405854678,16.3334114 -0.134882645,18.2607069 1.22138578,19.6195093 C2.57765473,20.9783123 4.50562881,21.2540713 5.52763675,20.2354348 Z" id="Combined-Shape-path"></path>
                    </g>
                </g>
                <g id="checkmark_paper">
                    <g id="Combined-Shape" fill-rule="nonzero">
                        <use fill="black" fill-opacity="1" filter="url(#filter-10)" xlink:href="#path-9"></use>
                        <use fill="#32B67A" xlink:href="#path-9"></use>
                    </g>
                    <path d="M58.9956904,41.7142831 L86.6307578,41.7486546 C88.5475089,41.7510386 90.1032729,40.1966289 90.1056531,38.2767834 C90.1080332,36.3569379 88.5561284,34.798663 86.6393767,34.796279 L59.0043097,34.7619075 C57.0875582,34.7595235 55.5317947,36.3139332 55.5294145,38.2337787 C55.5270343,40.1536242 57.078939,41.7118991 58.9956904,41.7142831 Z" id="Combined-Shape-path" fill="#FFFFFF"></path>
                    <path d="M58.9956904,76.4761877 L86.6307578,76.5105596 C88.5475089,76.5129435 90.1032729,74.9585337 90.1056531,73.0386879 C90.1080332,71.1188428 88.5561284,69.5605675 86.6393767,69.5581835 L59.0043097,69.5238123 C57.0875582,69.5214283 55.5317947,71.0758382 55.5294145,72.9956833 C55.5270343,74.915529 57.078939,76.4738037 58.9956904,76.4761877 Z" id="Combined-Shape-path" fill="#FFFFFF"></path>
                    <path d="M58.9956904,111.238092 L86.6307578,111.272464 C88.5475089,111.274848 90.1032729,109.720438 90.1056531,107.800593 C90.1080332,105.880748 88.5561284,104.322472 86.6393767,104.320088 L59.0043097,104.285717 C57.0875582,104.283333 55.5317947,105.837743 55.5294145,107.757588 C55.5270343,109.677434 57.078939,111.235708 58.9956904,111.238092 Z" id="Combined-Shape-path" fill="#FFFFFF"></path>
                    <path d="M26.7481941,35.7800574 C25.3928451,34.4225205 23.1953902,34.4225205 21.8400412,35.7800574 C20.4846921,37.1375942 20.4846921,39.3385962 21.8400412,40.6961331 L28.7812176,47.648514 C30.1365667,49.0060509 32.3340215,49.0060509 33.6893706,47.648514 L47.5717235,33.7437521 C48.9270726,32.3862153 48.9270726,30.1852133 47.5717235,28.8276764 C46.2163745,27.4701396 44.0189196,27.4701396 42.6635706,28.8276764 L31.2352941,40.2744005 L26.7481941,35.7800574 Z" id="Combined-Shape-path" fill="#FFFFFF"></path>
                    <path d="M26.7481941,70.5419621 C25.3928451,69.1844253 23.1953902,69.1844253 21.8400412,70.5419621 C20.4846921,71.8994993 20.4846921,74.1005007 21.8400412,75.4580379 L28.7812176,82.4104189 C30.1365667,83.7679554 32.3340215,83.7679554 33.6893706,82.4104189 L47.5717235,68.5056569 C48.9270726,67.14812 48.9270726,64.947118 47.5717235,63.5895812 C46.2163745,62.2320443 44.0189196,62.2320443 42.6635706,63.5895812 L31.2352941,75.0363051 L26.7481941,70.5419621 Z" id="Combined-Shape-path" fill="#FFFFFF"></path>
                    <path d="M26.7481941,105.303867 C25.3928451,103.94633 23.1953902,103.94633 21.8400412,105.303867 C20.4846921,106.661404 20.4846921,108.862405 21.8400412,110.219943 L28.7812176,117.172324 C30.1365667,118.52986 32.3340215,118.52986 33.6893706,117.172324 L47.5717235,103.267562 C48.9270726,101.910025 48.9270726,99.7090231 47.5717235,98.3514859 C46.2163745,96.9939494 44.0189196,96.9939494 42.6635706,98.3514859 L31.2352941,109.79821 L26.7481941,105.303867 Z" id="Combined-Shape-path" fill="#FFFFFF"></path>
                </g>
            </g>
        </g>
    </g>
</svg>