<?xml version="1.0" encoding="UTF-8"?>
<svg width="205px" height="161px" viewBox="0 0 205 161" version="1.1" xmlns="http://www.w3.org/2000/svg" xmlns:xlink="http://www.w3.org/1999/xlink">
    <!-- Generator: Sketch 60 (88103) - https://sketch.com -->
    <title>lists_icon</title>
    <desc>Created with Sketch.</desc>
    <g id="general-styling-and-website-material" stroke="none" stroke-width="1" fill="none" fill-rule="evenodd">
        <g id="Artboard-9-Copy" transform="translate(-1084.000000, -394.000000)">
            <g id="lists_icon" transform="translate(1084.000000, 394.000000)">
                <g id="checkmark_paper" transform="translate(0.000000, 7.000000)">
                    <g id="Combined-Shape" fill-rule="nonzero">
                        <g id="path-1-link" fill="#000000">
                            <path d="M8.66249979,-5.70210545e-13 L93.7058824,-5.70210545e-13 C98.9164216,-5.70210545e-13 104.126961,-5.70210545e-13 109.3375,-5.70210545e-13 L109.3375,-5.70210545e-13 C114.121667,-5.70210545e-13 118,3.87833326 118,8.66249979 L118,121.666667 C118,126.890278 118,132.113889 118,137.3375 L118,137.3375 C118,142.121667 114.121667,146 109.3375,146 L8.66249979,146 C3.87833326,146 -1.93622895e-13,142.121667 -1.93622895e-13,137.3375 C-1.93622895e-13,132.113889 -1.93622895e-13,126.890278 -1.93622895e-13,121.666667 L-1.93622895e-13,24.3333333 C-1.93622895e-13,19.1097222 -1.93622895e-13,13.886111 -1.93622895e-13,8.66249979 L-1.93622895e-13,8.66249979 C-1.93622895e-13,3.87833326 3.87833326,-5.70210545e-13 8.66249979,-5.70210545e-13 Z" id="path-1"></path>
                        </g>
                        <g id="path-1-link" fill="#E75153">
                            <path d="M8.66249979,-5.70210545e-13 L93.7058824,-5.70210545e-13 C98.9164216,-5.70210545e-13 104.126961,-5.70210545e-13 109.3375,-5.70210545e-13 L109.3375,-5.70210545e-13 C114.121667,-5.70210545e-13 118,3.87833326 118,8.66249979 L118,121.666667 C118,126.890278 118,132.113889 118,137.3375 L118,137.3375 C118,142.121667 114.121667,146 109.3375,146 L8.66249979,146 C3.87833326,146 -1.93622895e-13,142.121667 -1.93622895e-13,137.3375 C-1.93622895e-13,132.113889 -1.93622895e-13,126.890278 -1.93622895e-13,121.666667 L-1.93622895e-13,24.3333333 C-1.93622895e-13,19.1097222 -1.93622895e-13,13.886111 -1.93622895e-13,8.66249979 L-1.93622895e-13,8.66249979 C-1.93622895e-13,3.87833326 3.87833326,-5.70210545e-13 8.66249979,-5.70210545e-13 Z" id="path-1"></path>
                        </g>
                    </g>
                    <g id="Combined-Shape-path" transform="translate(57.000000, 33.000000)">
                        <g id="path-3-link" fill="#000000" fill-rule="nonzero">
                            <path d="M3.7439809,6.9761879 L31.4826617,7.01056214 C33.4065993,7.0129434 34.9681964,5.4585337 34.9705882,3.5386882 C34.9729745,1.6188427 33.4152512,0.0605678 31.4913128,0.0581838 L3.7526324,0.0238095614 C1.8286944,0.0214283 0.2670977,1.575838 0.264705856,3.4956835 C0.2623196,5.415529 1.8200428,6.9738039 3.7439809,6.9761879 Z" id="path-3"></path>
                        </g>
                        <g id="path-3-link" fill="#FFFFFF">
                            <path d="M3.7439809,6.9761879 L31.4826617,7.01056214 C33.4065993,7.0129434 34.9681964,5.4585337 34.9705882,3.5386882 C34.9729745,1.6188427 33.4152512,0.0605678 31.4913128,0.0581838 L3.7526324,0.0238095614 C1.8286944,0.0214283 0.2670977,1.575838 0.264705856,3.4956835 C0.2623196,5.415529 1.8200428,6.9738039 3.7439809,6.9761879 Z" id="path-3"></path>
                        </g>
                    </g>
                    <g id="Combined-Shape-path" transform="translate(57.000000, 67.000000)">
                        <g id="path-5-link" fill="#000000" fill-rule="nonzero">
                            <path d="M3.7439809,7.7380924 L31.4826617,7.77246704 C33.4065993,7.7748483 34.9681964,6.2204384 34.9705882,4.3005926 C34.9729745,2.3807476 33.4152512,0.8224722 31.4913128,0.8200882 L3.7526324,0.785714261 C1.8286944,0.783333 0.2670977,2.3377429 0.264705856,4.257588 C0.2623196,6.1774338 1.8200428,7.7357084 3.7439809,7.7380924 Z" id="path-5"></path>
                        </g>
                        <g id="path-5-link" fill="#FFFFFF">
                            <path d="M3.7439809,7.7380924 L31.4826617,7.77246704 C33.4065993,7.7748483 34.9681964,6.2204384 34.9705882,4.3005926 C34.9729745,2.3807476 33.4152512,0.8224722 31.4913128,0.8200882 L3.7526324,0.785714261 C1.8286944,0.783333 0.2670977,2.3377429 0.264705856,4.257588 C0.2623196,6.1774338 1.8200428,7.7357084 3.7439809,7.7380924 Z" id="path-5"></path>
                        </g>
                    </g>
                    <g id="Combined-Shape-path" transform="translate(57.000000, 102.000000)">
                        <g id="path-7-link" fill="#000000" fill-rule="nonzero">
                            <path d="M3.7439809,7.499997 L31.4826617,7.53437174 C33.4065993,7.536753 34.9681964,5.982343 34.9705882,4.062497 C34.9729745,2.142652 33.4152512,0.584377 31.4913128,0.581993 L3.7526324,0.547619261 C1.8286944,0.545238 0.2670977,2.099648 0.264705856,4.019493 C0.2623196,5.939339 1.8200428,7.497613 3.7439809,7.499997 Z" id="path-7"></path>
                        </g>
                        <g id="path-7-link" fill="#FFFFFF">
                            <path d="M3.7439809,7.499997 L31.4826617,7.53437174 C33.4065993,7.536753 34.9681964,5.982343 34.9705882,4.062497 C34.9729745,2.142652 33.4152512,0.584377 31.4913128,0.581993 L3.7526324,0.547619261 C1.8286944,0.545238 0.2670977,2.099648 0.264705856,4.019493 C0.2623196,5.939339 1.8200428,7.497613 3.7439809,7.499997 Z" id="path-7"></path>
                        </g>
                    </g>
                    <g id="Group-2" transform="translate(25.029412, 95.595238)" fill="#FFFFFF" fill-rule="nonzero">
                        <path d="M1.61161014,5.54448804 L16.2979625,20.2794496 C17.3165988,21.3014573 19.2438945,21.0304856 20.6026974,19.6742166 C21.9614999,18.3179482 22.2372594,16.3899735 21.2186227,15.3679654 L6.53227002,0.633004558 C5.51363353,-0.389003385 3.5863381,-0.118031352 2.22753563,1.23823707 C0.868732709,2.59450602 0.592973641,4.5224801 1.61161014,5.54448804 Z" id="Combined-Shape-path"></path>
                        <path d="M6.52763675,20.2354348 L21.2625983,5.54908243 C22.2846061,4.53044615 22.0136343,2.60315047 20.6573653,1.24434754 C19.3010969,-0.114454889 17.3731222,-0.390214375 16.3511141,0.62842227 L1.61615327,15.314775 C0.594145322,16.3334114 0.865117355,18.2607069 2.22138578,19.6195093 C3.57765473,20.9783123 5.50562881,21.2540713 6.52763675,20.2354348 Z" id="Combined-Shape-path"></path>
                    </g>
                    <g id="Group" transform="translate(25.029412, 60.833333)" fill="#FFFFFF" fill-rule="nonzero">
                        <path d="M1.61161014,5.54448804 L16.2979625,20.2794496 C17.3165988,21.3014573 19.2438945,21.0304856 20.6026974,19.6742166 C21.9614999,18.3179482 22.2372594,16.3899735 21.2186227,15.3679654 L6.53227002,0.633004558 C5.51363353,-0.389003385 3.5863381,-0.118031352 2.22753563,1.23823707 C0.868732709,2.59450602 0.592973641,4.5224801 1.61161014,5.54448804 Z" id="Combined-Shape-path"></path>
                        <path d="M6.52763675,20.2354348 L21.2625983,5.54908243 C22.2846061,4.53044615 22.0136343,2.60315047 20.6573653,1.24434754 C19.3010969,-0.114454889 17.3731222,-0.390214375 16.3511141,0.62842227 L1.61615327,15.314775 C0.594145322,16.3334114 0.865117355,18.2607069 2.22138578,19.6195093 C3.57765473,20.9783123 5.50562881,21.2540713 6.52763675,20.2354348 Z" id="Combined-Shape-path"></path>
                    </g>
                    <g id="Group" transform="translate(25.029412, 26.071429)" fill="#FFFFFF" fill-rule="nonzero">
                        <path d="M1.61161014,5.54448804 L16.2979625,20.2794496 C17.3165988,21.3014573 19.2438945,21.0304856 20.6026974,19.6742166 C21.9614999,18.3179482 22.2372594,16.3899735 21.2186227,15.3679654 L6.53227002,0.633004558 C5.51363353,-0.389003385 3.5863381,-0.118031352 2.22753563,1.23823707 C0.868732709,2.59450602 0.592973641,4.5224801 1.61161014,5.54448804 Z" id="Combined-Shape-path"></path>
                        <path d="M6.52763675,20.2354348 L21.2625983,5.54908243 C22.2846061,4.53044615 22.0136343,2.60315047 20.6573653,1.24434754 C19.3010969,-0.114454889 17.3731222,-0.390214375 16.3511141,0.62842227 L1.61615327,15.314775 C0.594145322,16.3334114 0.865117355,18.2607069 2.22138578,19.6195093 C3.57765473,20.9783123 5.50562881,21.2540713 6.52763675,20.2354348 Z" id="Combined-Shape-path"></path>
                    </g>
                </g>
                <g id="checkmark_paper" transform="translate(75.000000, 0.000000)" fill-rule="nonzero">
                    <g id="Combined-Shape">
                        <g id="path-9-link" fill="#000000">
                            <path d="M9.52874998,-2.27373675e-12 L103.076473,-2.27373675e-12 C108.808066,-2.27373675e-12 114.53966,-2.27373675e-12 120.271253,-2.27373675e-12 L120.271253,-2.27373675e-12 C125.533836,-2.27373675e-12 129.800003,4.26616668 129.800003,9.52874998 L129.800003,151.071253 C129.800003,156.333837 125.533836,160.600003 120.271253,160.600003 L9.52874998,160.600003 C4.26616668,160.600003 -2.13162821e-13,156.333837 -2.13162821e-13,151.071253 L-2.13162821e-13,9.52874998 C-2.13162821e-13,4.26616668 4.26616668,-2.27373675e-12 9.52874998,-2.27373675e-12 Z" id="path-9"></path>
                        </g>
                        <g id="path-9-link" fill="#32B67A">
                            <path d="M9.52874998,-2.27373675e-12 L103.076473,-2.27373675e-12 C108.808066,-2.27373675e-12 114.53966,-2.27373675e-12 120.271253,-2.27373675e-12 L120.271253,-2.27373675e-12 C125.533836,-2.27373675e-12 129.800003,4.26616668 129.800003,9.52874998 L129.800003,151.071253 C129.800003,156.333837 125.533836,160.600003 120.271253,160.600003 L9.52874998,160.600003 C4.26616668,160.600003 -2.13162821e-13,156.333837 -2.13162821e-13,151.071253 L-2.13162821e-13,9.52874998 C-2.13162821e-13,4.26616668 4.26616668,-2.27373675e-12 9.52874998,-2.27373675e-12 Z" id="path-9"></path>
                        </g>
                    </g>
                    <path d="M64.8952608,45.8857124 L95.2938356,45.9235241 C97.4022619,45.9261435 99.1136023,44.2162927 99.1162236,42.1044627 C99.1188387,39.9926326 97.4117434,38.2785301 95.3033164,38.2759077 L64.9047421,38.2380961 C62.7963154,38.2354767 61.0849755,39.9453274 61.0823543,42.0571575 C61.0797391,44.1689876 62.7868343,45.88309 64.8952608,45.8857124 Z" id="Combined-Shape-path" fill="#FFFFFF"></path>
                    <path d="M64.8952608,84.1238083 L95.2938356,84.1616204 C97.4022619,84.1642397 99.1136023,82.4543889 99.1162236,80.3425584 C99.1188387,78.2307288 97.4117434,76.5166259 95.3033164,76.5140035 L64.9047421,76.4761922 C62.7963154,76.4735728 61.0849755,78.1834237 61.0823543,80.2952534 C61.0797391,82.4070837 62.7868343,84.1211859 64.8952608,84.1238083 Z" id="Combined-Shape-path" fill="#FFFFFF"></path>
                    <path d="M64.8952608,122.361904 L95.2938356,122.399716 C97.4022619,122.402335 99.1136023,120.692484 99.1162236,118.580655 C99.1188387,116.468825 97.4117434,114.754722 95.3033164,114.752099 L64.9047421,114.714288 C62.7963154,114.711669 61.0849755,116.42152 61.0823543,118.533349 C61.0797391,120.64518 62.7868343,122.359281 64.8952608,122.361904 Z" id="Combined-Shape-path" fill="#FFFFFF"></path>
                    <path d="M29.4230141,39.358064 C27.9321302,37.8647734 25.5149298,37.8647734 24.0240458,39.358064 C22.5331618,40.8513545 22.5331618,43.2724568 24.0240458,44.7657474 L31.65934,52.4133665 C33.1502241,53.9066572 35.5674244,53.9066572 37.0583085,52.4133665 L52.328897,37.1181281 C53.819781,35.6248376 53.819781,33.2037353 52.328897,31.7104447 C50.8380131,30.2171542 48.4208126,30.2171542 46.9299287,31.7104447 L34.3588243,44.3018415 L29.4230141,39.358064 Z" id="Combined-Shape-path" fill="#FFFFFF"></path>
                    <path d="M29.4230141,77.59616 C27.9321302,76.1028695 25.5149298,76.1028695 24.0240458,77.59616 C22.5331618,79.0894509 22.5331618,81.5105525 24.0240458,83.0038435 L31.65934,90.6514628 C33.1502241,92.1447529 35.5674244,92.1447529 37.0583085,90.6514628 L52.328897,75.3562242 C53.819781,73.8629336 53.819781,71.4418313 52.328897,69.9485408 C50.8380131,68.4552502 48.4208126,68.4552502 46.9299287,69.9485408 L34.3588243,82.5399374 L29.4230141,77.59616 Z" id="Combined-Shape-path" fill="#FFFFFF"></path>
                    <path d="M29.4230141,115.834256 C27.9321302,114.340965 25.5149298,114.340965 24.0240458,115.834256 C22.5331618,117.327547 22.5331618,119.748648 24.0240458,121.24194 L31.65934,128.889559 C33.1502241,130.382849 35.5674244,130.382849 37.0583085,128.889559 L52.328897,113.594321 C53.819781,112.10103 53.819781,109.679928 52.328897,108.186637 C50.8380131,106.693347 48.4208126,106.693347 46.9299287,108.186637 L34.3588243,120.778034 L29.4230141,115.834256 Z" id="Combined-Shape-path" fill="#FFFFFF"></path>
                </g>
            </g>
        </g>
    </g>
</svg>