<?xml version="1.0" encoding="UTF-8"?>
<svg width="154px" height="131px" viewBox="0 0 154 131" version="1.1" xmlns="http://www.w3.org/2000/svg" xmlns:xlink="http://www.w3.org/1999/xlink">
    <!-- Generator: Sketch 60 (88103) - https://sketch.com -->
    <title>Group 3</title>
    <desc>Created with Sketch.</desc>
    <g id="general-styling-and-website-material" stroke="none" stroke-width="1" fill="none" fill-rule="evenodd">
        <g id="Artboard-9-Copy" transform="translate(-1536.000000, -218.000000)">
            <g id="Group-3" transform="translate(1535.000000, 214.000000)">
                <g id="invoice-copy" transform="translate(57.500000, 68.500000) rotate(-12.000000) translate(-57.500000, -68.500000) translate(12.000000, 9.000000)">
                    <polygon id="Path" fill="#FFFFFF" fill-rule="nonzero" points="88.7548642 19.7764459 71.0265465 19.7764459 71.0265465 2.04802857 74.971038 2.04802857 74.971038 15.8318547 88.7548642 15.8318547"></polygon>
                    <polygon id="Rectangle" fill="#9E83B7" points="3 2.04802857 71.0265465 2.04802857 90 21.4282269 90 115 3 115"></polygon>
                    <path d="M0.0507808608,114.327972 L0.0507808608,4.00796875 C0.0507808608,1.79882975 1.84164186,0.00796875022 4.05078086,0.00796875022 L73.0149929,0.00796875022 C73.5454259,0.00796875022 74.0541337,0.218682431 74.4292065,0.593755188 L90.2091376,16.3736863 C90.5842104,16.7487591 90.794924,17.2574669 90.794924,17.7878999 L90.794924,114.327972 C90.794924,116.537111 89.004063,118.327972 86.794924,118.327972 L4.05078086,118.327972 C1.84164186,118.327972 0.0507808608,116.537111 0.0507808608,114.327972 Z M4.13078098,114.248072 L86.7150235,114.248072 L86.7150235,18.6489474 L72.1541446,4.08796886 L4.13078098,4.08796886 L4.13078098,114.248072 L4.13078098,114.248072 Z" id="Shape" fill="#9E83B7" fill-rule="nonzero"></path>
                    <polygon id="Path" fill="#FFFFFF" fill-rule="nonzero" points="39.5120519 15.9055856 11.9381441 15.9055856 11.9381441 11.825705 39.5120519 11.825705"></polygon>
                    <path d="M78.9793393,90.7540643 L11.8684972,90.7540643 L11.8684972,27.5838289 L78.9793393,27.5838289 L78.9793393,90.7540643 L78.9793393,90.7540643 Z M15.9483977,86.6741638 L74.8992396,86.6741638 L74.8992396,31.6638091 L15.9483977,31.6638091 L15.9483977,86.6741638 L15.9483977,86.6741638 Z" id="Shape" fill="#FFFFFF" fill-rule="nonzero"></path>
                    <polygon id="Path" fill="#FFFFFF" fill-rule="nonzero" points="78.9075608 100.671234 47.3931459 100.671234 47.3931459 96.591134 78.9075608 96.591134"></polygon>
                    <polygon id="Path" fill="#FFFFFF" fill-rule="nonzero" points="47.3931459 106.510435 47.3931459 102.430355 67.0898245 102.430355 67.0898245 106.510435"></polygon>
                    <polygon id="Path" fill="#FFFFFF" fill-rule="nonzero" points="76.9392994 43.4794934 13.9084375 43.4794934 13.9084375 39.3994933 76.9392994 39.3994933"></polygon>
                    <polygon id="Path" fill="#FFFFFF" fill-rule="nonzero" points="31.7046689 88.7142037 27.6246687 88.7142037 27.6246687 29.6238688 31.7046689 29.6238688"></polygon>
                    <polygon id="Path" fill="#FFFFFF" fill-rule="nonzero" points="47.4628923 88.7142037 43.3827926 88.7142037 43.3827926 41.4394535 47.4628923 41.4394535"></polygon>
                    <polygon id="Path" fill="#FFFFFF" fill-rule="nonzero" points="63.2210162 88.7142037 59.1411157 88.7142037 59.1411157 41.4394535 63.2210162 41.4394535"></polygon>
                    <polygon id="Path" fill="#FFFFFF" fill-rule="nonzero" points="76.9392994 55.2991621 29.6647286 55.2991621 29.6647286 51.2190624 76.9392994 51.2190624"></polygon>
                    <polygon id="Path" fill="#FFFFFF" fill-rule="nonzero" points="76.9392994 67.1168784 29.6647286 67.1168784 29.6647286 63.0367787 76.9392994 63.0367787"></polygon>
                    <polygon id="Path" fill="#FFFFFF" fill-rule="nonzero" points="76.9392994 78.9365471 29.6647286 78.9365471 29.6647286 74.8564474 76.9392994 74.8564474"></polygon>
                </g>
                <g id="doc+pen-copy" transform="translate(39.000000, 9.000000)">
                    <polygon id="Rectangle" fill="#81659A" points="3.78515625 2.61132812 70.5032 2.61132812 70.5032 22 88 22 88 113.87069 3.78515625 113.87069"></polygon>
                    <rect id="Rectangle" fill="#FFFFFF" fill-rule="nonzero" x="20.1032" y="32.0068966" width="52.8" height="4.92413793"></rect>
                    <rect id="Rectangle" fill="#FFFFFF" fill-rule="nonzero" x="20.1032" y="46.7793103" width="52.8" height="4.92413793"></rect>
                    <rect id="Rectangle" fill="#FFFFFF" fill-rule="nonzero" x="20.1032" y="61.5517241" width="40.8" height="4.92413793"></rect>
                    <rect id="Rectangle" fill="#FFFFFF" fill-rule="nonzero" x="20.1032" y="76.3241379" width="28.8" height="4.92413793"></rect>
                    <rect id="Rectangle" fill="#FFFFFF" fill-rule="nonzero" x="20.1032" y="91.0965517" width="28.8" height="4.92413793"></rect>
                    <path d="M92.1032,43.2979448 L92.1032,18.6772552 L73.8968,0 L4.9032,0 C2.694061,4.05812251e-16 0.9032,1.790861 0.9032,4 L0.9032,114.17931 C0.9032,116.388449 2.694061,118.17931 4.9032,118.17931 L88.1032,118.17931 C90.312339,118.17931 92.1032,116.388449 92.1032,114.17931 L92.1032,74.8813655 L92.1032,74.8813655 L114.375097,52.0334714 C115.889362,50.4800444 115.889362,48.0027142 114.375097,46.4492873 L104.567501,36.388047 C103.025471,34.8061371 100.493018,34.7738079 98.911108,36.3158378 C98.8867319,36.3395993 98.8626602,36.363671 98.8388987,36.388047 L92.1032,43.2979448 L92.1032,43.2979448 Z M70.7714844,5.65234375 L88,22 L70.7714844,22 L70.7714844,5.65234375 Z M87.3032,113.255172 L5.7032,113.255172 L5.7032,4.92413793 L70.5032,4.92413793 L70.5032,22.1586207 L87.3032,22.1586207 L87.3032,48.2220828 L56.1032,80.2289793 L56.1032,96.0206897 L71.4968,96.0206897 L87.3032,79.8055034 L87.3032,113.255172 Z" id="Shape" fill="#81659A" fill-rule="nonzero"></path>
                    <polygon id="Path" fill="#FFFFFF" fill-rule="nonzero" points="89.7032 52.7227448 98.3096 61.5517241 69.5096 91.0965517 60.9032 91.0965517 60.9032 82.2675724"></polygon>
                    <polygon id="Path" fill="#FFFFFF" fill-rule="nonzero" points="101.7032 58.0703586 93.0968 49.2413793 101.7032 40.4124 110.3096 49.2413793"></polygon>
                </g>
            </g>
        </g>
    </g>
</svg>