<?xml version="1.0" encoding="UTF-8"?>
<svg width="168px" height="168px" viewBox="0 0 168 168" version="1.1" xmlns="http://www.w3.org/2000/svg" xmlns:xlink="http://www.w3.org/1999/xlink">
    <!-- Generator: Sketch 60 (88103) - https://sketch.com -->
    <title>questions_icon</title>
    <desc>Created with Sketch.</desc>
    <defs>
        <path d="M6.409713,-2.58960077e-16 L143.590287,2.58960077e-16 C145.819084,-1.50463262e-16 146.627299,0.232064028 147.442114,0.667831759 C148.256929,1.10359949 148.896401,1.74307093 149.332168,2.55788574 C149.767936,3.37270056 150,4.18091615 150,6.409713 L150,143.590287 C150,145.819084 149.767936,146.627299 149.332168,147.442114 C148.896401,148.256929 148.256929,148.896401 147.442114,149.332168 C146.627299,149.767936 145.819084,150 143.590287,150 L6.409713,150 C4.18091615,150 3.37270056,149.767936 2.55788574,149.332168 C1.74307093,148.896401 1.10359949,148.256929 0.667831759,147.442114 C0.232064028,146.627299 1.00308841e-16,145.819084 -1.72640051e-16,143.590287 L1.72640051e-16,6.409713 C-1.00308841e-16,4.18091615 0.232064028,3.37270056 0.667831759,2.55788574 C1.10359949,1.74307093 1.74307093,1.10359949 2.55788574,0.667831759 C3.37270056,0.232064028 4.18091615,1.50463262e-16 6.409713,-2.58960077e-16 Z" id="path-1"></path>
        <filter x="-9.7%" y="-8.3%" width="119.3%" height="119.3%" filterUnits="objectBoundingBox" id="filter-3">
            <feOffset dx="0" dy="2" in="SourceAlpha" result="shadowOffsetOuter1"></feOffset>
            <feGaussianBlur stdDeviation="4.5" in="shadowOffsetOuter1" result="shadowBlurOuter1"></feGaussianBlur>
            <feColorMatrix values="0 0 0 0 0.196078431   0 0 0 0 0.196078431   0 0 0 0 0.364705882  0 0 0 0.200549139 0" type="matrix" in="shadowBlurOuter1"></feColorMatrix>
        </filter>
        <circle id="path-4" cx="22.7200003" cy="22.9600003" r="22.6400003"></circle>
        <ellipse id="path-6" cx="46.4030162" cy="43.6428858" rx="43.2011458" ry="40.2010662"></ellipse>
        <circle id="path-8" cx="67.200001" cy="67.200001" r="66.920001"></circle>
    </defs>
    <g id="general-styling-and-website-material" stroke="none" stroke-width="1" fill="none" fill-rule="evenodd">
        <g id="Artboard-9-Copy" transform="translate(-1193.000000, -215.000000)">
            <g id="questions_icon" transform="translate(1202.000000, 222.000000)">
                <mask id="mask-2" fill="white">
                    <use xlink:href="#path-1"></use>
                </mask>
                <g id="qbg">
                    <use fill="black" fill-opacity="1" filter="url(#filter-3)" xlink:href="#path-1"></use>
                    <use fill="#1072BB" fill-rule="evenodd" xlink:href="#path-1"></use>
                </g>
                <g id="?" mask="url(#mask-2)">
                    <g transform="translate(1.000000, 10.000000)">
                        <circle id="Oval" fill="#FFFFFF" fill-rule="nonzero" cx="108.640002" cy="38.8800006" r="38.6800006"></circle>
                        <path d="M141.880002,58.7200009 C145.360002,52.9200008 147.320002,46.1600007 147.320002,38.9200006 C147.320002,26.5200004 141.440002,15.4800002 132.360002,8.40000013 C138.240002,15.1200002 141.840002,23.9200004 141.840002,33.5600005 C141.840002,54.6400008 124.760002,71.7200011 103.680002,71.7200011 C93.2000014,71.7200011 83.6800012,67.480001 76.8000011,60.6400009 C83.7600012,70.8400011 95.4400014,77.5600012 108.720002,77.5600012 C116.600002,77.5600012 123.880002,75.2000011 130.000002,71.1600011 C132.320002,71.6400011 138.480002,72.8800011 140.440002,73.2000011 C142.880002,73.5600011 145.120002,72.3600011 144.280002,68.4000001 C143.640002,65.640001 142.520002,61.2000009 141.880002,58.7200009 Z" id="Path" fill="#E8E8E8" fill-rule="nonzero"></path>
                        <g id="Clipped" stroke-width="1" fill="none" fill-rule="evenodd" transform="translate(8.800000, 43.600001)">
                            <mask id="mask-5" fill="white">
                                <use xlink:href="#path-4"></use>
                            </mask>
                            <g id="SVGID_1_"></g>
                            <circle id="Oval" fill="#FFFFFF" fill-rule="nonzero" mask="url(#mask-5)" cx="26.3600004" cy="27.2000004" r="22.6400003"></circle>
                        </g>
                        <path d="M50.3600008,54.0800008 C52.7200008,57.6800009 54.1200008,61.9600009 54.1200008,66.560001 C54.1200008,79.0400012 44.0000007,89.2000013 31.4800005,89.2000013 C25.6000004,89.2000013 20.2800003,86.9600013 16.2400002,83.3200012 C20.2800003,89.4400013 27.2400002,93.4400014 35.1200005,93.4400014 C47.6000007,93.4400014 57.7600009,83.3200012 57.7600009,70.8000011 C57.7600009,64.160001 54.9200008,58.2000009 50.3600008,54.0800008 Z" id="Path" fill="#E8E8E8" fill-rule="nonzero"></path>
                        <g id="Clipped" stroke-width="1" fill="none" fill-rule="evenodd" transform="translate(14.400000, 64.400001)">
                            <mask id="mask-7" fill="white">
                                <use xlink:href="#path-6"></use>
                            </mask>
                            <g id="SVGID_3_" transform="translate(46.403016, 43.642886) rotate(-4.458743) translate(-46.403016, -43.642886) "></g>
                            <circle id="Oval" fill="#FFFFFF" fill-rule="nonzero" mask="url(#mask-7)" cx="52.8000008" cy="67.280001" r="32.4800005"></circle>
                        </g>
                        <g id="Clipped" stroke-width="1" fill="none" fill-rule="evenodd" transform="translate(0.000000, 17.600000)">
                            <mask id="mask-9" fill="white">
                                <use xlink:href="#path-8"></use>
                            </mask>
                            <g id="SVGID_5_"></g>
                            <path d="M63.920001,130.400002 C53.6800008,131.200002 44.0000007,128.600002 36.2000005,123.600002 C40.3200006,136.840002 52.6400008,146.440002 67.2000005,146.440002 C85.1200013,146.440002 99.6800015,131.920002 99.6800015,113.960002 C99.6800015,112.040002 99.5200015,110.160002 99.2000005,108.360002 C92.4800014,120.440002 79.4800012,129.200002 63.920001,130.400002 Z" id="Path" fill="#E8E8E8" fill-rule="nonzero" mask="url(#mask-9)"></path>
                        </g>
                        <path d="M99.8000015,20.0800003 L102.680002,26.5600004 C102.680002,26.5600004 106.760002,24.3600004 111.200002,25.2000004 C115.640002,26.0400004 114.680002,29.6800004 114.360002,31.4000005 C114.040002,33.1200005 108.960002,35.9600005 106.440002,37.3200006 C103.920002,38.6800006 104.000002,42.1200006 103.720002,43.6400007 C103.440002,45.1600007 103.160002,46.6000007 103.160002,46.6000007 L110.280002,47.9600007 C110.280002,47.9600007 110.960002,44.8000007 111.240002,43.4400006 C111.520002,42.0800006 117.000002,41.2000006 120.680002,37.4400006 C124.360002,33.6800005 126.400002,26.0400004 120.200002,21.0800003 C113.920002,16.1200002 104.080002,17.7600003 99.8000015,20.0800003 Z" id="Path" fill="#6EB1FF" fill-rule="nonzero"></path>
                        <circle id="Oval" fill="#6EB1FF" fill-rule="nonzero" cx="104.640002" cy="54.9600008" r="5.56000008"></circle>
                        <path d="M27.4400004,64.680001 L29.9600004,66.880001 C29.9600004,66.880001 31.2800005,65.120001 33.3200005,64.640001 C35.3600005,64.160001 35.6800005,65.880001 35.8800005,66.680001 C36.0800005,67.480001 34.4800005,69.680001 33.6400005,70.7600011 C32.8000005,71.8400011 33.5200005,73.2800011 33.7200005,74.0000011 C33.8800005,74.7200011 34.0800005,75.3600011 34.0800005,75.3600011 L37.4000006,74.5200011 C37.4000006,74.5200011 37.0800006,73.0400011 36.9200006,72.4000011 C36.7600005,71.7600011 38.9600006,70.320001 39.7600006,67.960001 C40.6000006,65.640001 39.9600006,61.9600009 36.3600005,61.0800009 C32.6800005,60.2000009 28.8000004,62.8400009 27.4400004,64.680001 Z" id="Path" fill="#6EB1FF" fill-rule="nonzero"></path>
                        <circle id="Oval" fill="#6EB1FF" fill-rule="nonzero" cx="36.3600005" cy="78.6400012" r="2.64000004"></circle>
                        <path d="M61.3200009,114.200002 L63.6800009,119.360002 C63.6800009,119.360002 66.920001,117.560002 70.4800011,118.160002 C74.0400011,118.800002 73.3200009,121.720002 73.0800011,123.080002 C72.8400011,124.440002 68.800001,126.800002 66.800001,127.920002 C64.800001,129.040002 64.920001,131.760002 64.680001,133.000002 C64.480001,134.200002 64.280001,135.360002 64.280001,135.360002 L70.000001,136.360002 C70.000001,136.360002 70.5200011,133.840002 70.7200011,132.720002 C70.9200011,131.600002 75.3200009,130.840002 78.2000012,127.800002 C81.1200012,124.760002 82.6800012,118.600002 77.6400012,114.720002 C72.6000011,110.840002 64.720001,112.280002 61.3200009,114.200002 Z" id="Path" fill="#6EB1FF" fill-rule="nonzero"></path>
                        <circle id="Oval" fill="#6EB1FF" fill-rule="nonzero" cx="65.600001" cy="142.080002" r="4.48000007"></circle>
                    </g>
                </g>
            </g>
        </g>
    </g>
</svg>