<?xml version="1.0" encoding="UTF-8"?>
<svg width="186px" height="26px" viewBox="0 0 186 26" version="1.1" xmlns="http://www.w3.org/2000/svg" xmlns:xlink="http://www.w3.org/1999/xlink">
    <!-- Generator: Sketch 51.3 (57544) - http://www.bohemiancoding.com/sketch -->
    <title>akesundvall</title>
    <desc>Created with Sketch.</desc>
    <defs></defs>
    <g id="Page-1" stroke="none" stroke-width="1" fill="none" fill-rule="evenodd">
        <g id="akesundvall">
            <path d="M41.3375908,5.25283187 C41.3375908,4.72355758 40.8781808,4.27546315 40.3350708,4.27546315 C39.7919608,4.27546315 39.291171,4.72355758 39.291171,5.25283187 C39.291171,5.78302344 39.7919608,6.27147848 40.3350708,6.27147848 C40.8781808,6.27147848 41.3375908,5.78302344 41.3375908,5.25283187 Z M42.4440305,18.0430156 L40.3562309,13.5625299 L40.2932208,13.5625299 L38.246801,18.0430156 L42.4440305,18.0430156 Z M37.9754811,5.25283187 C37.9754811,3.97000676 39.0198511,2.9518188 40.3350708,2.9518188 C41.6300708,2.9518188 42.6946605,3.97000676 42.6946605,5.25283187 C42.6946605,6.53611562 41.6300708,7.55476223 40.3350708,7.55476223 C39.0198511,7.55476223 37.9754811,6.53611562 37.9754811,5.25283187 Z M33.4241721,22.3813218 L39.9175109,8.67476899 C39.9800508,8.55276989 40.084911,8.45049245 40.2725309,8.45049245 L40.4813108,8.45049245 C40.6900908,8.45049245 40.7733206,8.55276989 40.8363308,8.67476899 L47.2675999,22.3813218 C47.3926797,22.645959 47.2257498,22.9105961 46.9125799,22.9105961 L45.0961002,22.9105961 C44.7829303,22.9105961 44.63622,22.7881384 44.4904503,22.5033209 L43.4672404,20.303668 L37.2240614,20.303668 L36.2008515,22.5033209 C36.1171514,22.7064999 35.9295316,22.9105961 35.5956718,22.9105961 L33.7787219,22.9105961 C33.4655519,22.9105961 33.298622,22.645959 33.4241721,22.3813218 Z" id="Fill-2" fill="#F86F69" fill-rule="nonzero"></path>
            <path d="M49.2467774,9.14350237 C49.2467774,8.87840658 49.4555574,8.65413004 49.7475672,8.65413004 L51.5856772,8.65413004 C51.8569971,8.65413004 52.086467,8.87840658 52.086467,9.14350237 L52.086467,14.642176 L57.3482861,8.85822628 C57.4319862,8.75594884 57.5570661,8.65413004 57.7451561,8.65413004 L59.8334259,8.65413004 C60.2298257,8.65413004 60.4386057,9.08204417 60.1672858,9.38750056 L54.7178468,15.3750879 L60.5636855,22.1974059 C60.7729357,22.4625017 60.6055356,22.9105961 60.1879757,22.9105961 L57.9120861,22.9105961 C57.7033061,22.9105961 57.5782262,22.8289576 57.5363762,22.7679581 L52.086467,16.2098186 L52.086467,22.4216824 C52.086467,22.6867782 51.8569971,22.9105961 51.5856772,22.9105961 L49.7475672,22.9105961 C49.4555574,22.9105961 49.2467774,22.6867782 49.2467774,22.4216824 L49.2467774,9.14350237 Z" id="Fill-3" fill="#F86F69" fill-rule="nonzero"></path>
            <path d="M62.9693573,9.04122493 C62.9693573,8.83804598 63.1362872,8.65413004 63.3657571,8.65413004 L71.864606,8.65413004 C72.0940759,8.65413004 72.2610058,8.83804598 72.2610058,9.04122493 L72.2610058,10.7116036 C72.2610058,10.9152411 72.0940759,11.0982398 71.864606,11.0982398 L65.683967,11.0982398 L65.683967,14.4385384 L70.8413962,14.4385384 C71.0497059,14.4385384 71.2377959,14.6215371 71.2377959,14.8251747 L71.2377959,16.515275 C71.2377959,16.7395515 71.0497059,16.9023698 70.8413962,16.9023698 L65.683967,16.9023698 L65.683967,20.466945 L71.864606,20.466945 C72.0940759,20.466945 72.2610058,20.6499437 72.2610058,20.8531226 L72.2610058,22.5235012 C72.2610058,22.7271388 72.0940759,22.9105961 71.864606,22.9105961 L63.3657571,22.9105961 C63.1362872,22.9105961 62.9693573,22.7271388 62.9693573,22.5235012 L62.9693573,9.04122493 Z" id="Fill-4" fill="#F86F69" fill-rule="nonzero"></path>
            <path d="M81.0843101,20.9145808 L81.8362001,19.651936 C82.0026598,19.3666599 82.3572095,19.3666599 82.5457698,19.5092979 C82.6501598,19.5707561 84.3415595,20.7724014 85.6986293,20.7724014 C86.7843791,20.7724014 87.5983388,20.0793915 87.5983388,19.2038416 C87.5983388,18.1650146 86.700679,17.4522831 84.9472095,16.7601904 C82.9840196,15.9860007 81.0212999,14.7641751 81.0212999,12.3608846 C81.0212999,10.5483266 82.3995298,8.45049245 85.7193192,8.45049245 C87.849439,8.45049245 89.4782988,9.50995831 89.8953885,9.81541469 C90.1046387,9.93741379 90.1667084,10.2836894 90.0209386,10.487327 L89.2271986,11.6486117 C89.0602687,11.8926099 88.7470988,12.0554282 88.496939,11.8926099 C88.3295389,11.7907911 86.742529,10.7721445 85.5942393,10.7721445 C84.4040995,10.7721445 83.7570697,11.5463342 83.7570697,12.1980663 C83.7570697,13.1552547 84.5291794,13.8069867 86.2205792,14.478899 C88.2458388,15.2728105 90.5847386,16.4547341 90.5847386,19.0813838 C90.5847386,21.1792179 88.7264089,23.1142337 85.7818591,23.1142337 C83.1509495,23.1142337 81.6053195,21.9125885 81.1887001,21.5254936 C81.00061,21.3424949 80.8957498,21.2402175 81.0843101,20.9145808 Z" id="Fill-5" fill="#F86F69" fill-rule="nonzero"></path>
            <path d="M93.6172204,9.04122493 C93.6172204,8.83804598 93.8053105,8.65413004 94.0140904,8.65413004 L95.9975,8.65413004 C96.2269699,8.65413004 96.39437,8.83804598 96.39437,9.04122493 L96.39437,17.3711032 C96.39437,19.1020228 97.6051997,20.466945 99.4216794,20.466945 C101.238159,20.466945 102.470149,19.1020228 102.470149,17.3912835 L102.470149,9.04122493 C102.470149,8.83804598 102.637549,8.65413004 102.867019,8.65413004 L104.850899,8.65413004 C105.059208,8.65413004 105.247769,8.83804598 105.247769,9.04122493 L105.247769,17.5132826 C105.247769,20.6091244 102.721249,23.1142337 99.4216794,23.1142337 C96.1432698,23.1142337 93.6172204,20.6091244 93.6172204,17.5132826 L93.6172204,9.04122493 Z" id="Fill-6" fill="#F86F69" fill-rule="nonzero"></path>
            <path d="M108.950321,8.81740703 C108.950321,8.6133108 109.137941,8.45049245 109.346721,8.45049245 L109.868671,8.45049245 L118.55467,17.4522831 L118.57583,17.4522831 L118.57583,9.04122493 C118.57583,8.83804598 118.74276,8.65413004 118.972229,8.65413004 L120.893569,8.65413004 C121.101879,8.65413004 121.290439,8.83804598 121.290439,9.04122493 L121.290439,22.7473191 C121.290439,22.9514154 121.101879,23.1142337 120.893569,23.1142337 L120.392309,23.1142337 L111.664461,13.7661675 L111.643301,13.7661675 L111.643301,22.5235012 C111.643301,22.7271388 111.476841,22.9105961 111.246431,22.9105961 L109.346721,22.9105961 C109.137941,22.9105961 108.950321,22.7271388 108.950321,22.5235012 L108.950321,8.81740703 Z" id="Fill-7" fill="#F86F69" fill-rule="nonzero"></path>
            <path d="M130.066721,20.4261258 C132.780861,20.4261258 134.76474,18.4296518 134.76474,15.7621828 C134.76474,13.1144354 132.780861,11.1184201 130.066721,11.1184201 L127.685971,11.1184201 L127.685971,20.4261258 L130.066721,20.4261258 Z M124.992992,9.04122493 C124.992992,8.83804598 125.159922,8.65413004 125.368702,8.65413004 L130.317351,8.65413004 C134.34718,8.65413004 137.64628,11.8517906 137.64628,15.7621828 C137.64628,19.7129355 134.34718,22.9105961 130.317351,22.9105961 L125.368702,22.9105961 C125.159922,22.9105961 124.992992,22.7271388 124.992992,22.5235012 L124.992992,9.04122493 Z" id="Fill-8" fill="#F86F69" fill-rule="nonzero"></path>
            <path d="M138.227478,9.18386297 C138.102398,8.91876719 138.269328,8.65413004 138.582498,8.65413004 L140.712618,8.65413004 C140.900238,8.65413004 141.025788,8.77658778 141.067168,8.87840658 L145.076307,17.6357404 L145.222077,17.6357404 L149.231687,8.87840658 C149.273537,8.77658778 149.398146,8.65413004 149.586707,8.65413004 L151.716356,8.65413004 C152.029526,8.65413004 152.195986,8.91876719 152.071376,9.18386297 L145.598257,22.8899572 C145.535247,23.0124149 145.431327,23.1142337 145.243237,23.1142337 L145.034457,23.1142337 C144.846837,23.1142337 144.742447,23.0124149 144.679437,22.8899572 L138.227478,9.18386297 Z" id="Fill-9" fill="#F86F69" fill-rule="nonzero"></path>
            <path d="M159.879935,18.0430156 L157.792135,13.5625299 L157.729125,13.5625299 L155.682705,18.0430156 L159.879935,18.0430156 Z M150.860076,22.3813218 L157.353415,8.67476899 C157.415955,8.55276989 157.520815,8.45049245 157.708435,8.45049245 L157.916745,8.45049245 C158.125995,8.45049245 158.209695,8.55276989 158.272235,8.67476899 L164.703034,22.3813218 C164.828584,22.645959 164.661654,22.9105961 164.348484,22.9105961 L162.531534,22.9105961 C162.218834,22.9105961 162.072124,22.7881384 161.926354,22.5033209 L160.903145,20.303668 L154.659966,20.303668 L153.636756,22.5033209 C153.553056,22.7064999 153.365436,22.9105961 153.031106,22.9105961 L151.215096,22.9105961 C150.901926,22.9105961 150.734526,22.645959 150.860076,22.3813218 Z" id="Fill-10" fill="#F86F69" fill-rule="nonzero"></path>
            <path d="M166.682682,9.04122493 C166.682682,8.83804598 166.850082,8.65413004 167.079552,8.65413004 L169.000421,8.65413004 C169.209201,8.65413004 169.397291,8.83804598 169.397291,9.04122493 L169.397291,20.466945 L174.72165,20.466945 C174.95112,20.466945 175.11852,20.6499437 175.11852,20.8531226 L175.11852,22.5235012 C175.11852,22.7271388 174.95112,22.9105961 174.72165,22.9105961 L167.079552,22.9105961 C166.850082,22.9105961 166.682682,22.7271388 166.682682,22.5235012 L166.682682,9.04122493 Z" id="Fill-11" fill="#F86F69" fill-rule="nonzero"></path>
            <path d="M177.515728,9.04122493 C177.515728,8.83804598 177.683128,8.65413004 177.912598,8.65413004 L179.833468,8.65413004 C180.042248,8.65413004 180.230338,8.83804598 180.230338,9.04122493 L180.230338,20.466945 L185.554697,20.466945 C185.784167,20.466945 185.951567,20.6499437 185.951567,20.8531226 L185.951567,22.5235012 C185.951567,22.7271388 185.784167,22.9105961 185.554697,22.9105961 L177.912598,22.9105961 C177.683128,22.9105961 177.515728,22.7271388 177.515728,22.5235012 L177.515728,9.04122493 Z" id="Fill-12" fill="#F86F69" fill-rule="nonzero"></path>
            <polygon id="Fill-1" stroke="#F86F69" points="0.5 25.4024511 0.5 0.5 23.8450975 0.5 23.8450975 25.4024511"></polygon>
            <path d="M13.5416721,3.10736045 C15.6855317,3.93098572 16.3601404,6.16997586 16.3266426,8.35995689 L23.3486204,8.35995689 L23.3486204,24.9077912 L1,24.9077912 L1,16.2948944 L6.92492466,16.2948944 C6.80675184,18.4349587 7.4483279,20.3281624 9.18649189,21.4149847 C10.3175081,22.122894 12.1068493,22.3529646 13.4407134,21.8265704 C14.9588154,21.2833862 16.158223,19.8176508 16.4280665,18.2870238 C16.7988686,16.5254187 15.938161,14.8790757 14.8071448,13.8585064 C12.815421,12.4258976 10.2500473,11.273276 8.54491584,9.39686254 C7.65024523,8.21111442 7.4650768,6.16997586 8.32624959,4.88575574 C9.27116691,3.3710113 10.8404461,2.63088302 12.7991374,2.89408008 C13.0359482,2.94308918 13.5416721,3.10736045 13.5416721,3.10736045 Z" id="Fill-13" fill="#F86F69" fill-rule="nonzero"></path>
        </g>
    </g>
</svg>