<svg enable-background="new 0 0 136.1 28.6" viewBox="0 0 136.1 28.6" xmlns="http://www.w3.org/2000/svg"><g fill="#0000a0"><path d="m124.1 6.2c-5.5.4-9.9 4.9-10.3 10.4-.4 6.5 4.7 11.9 11.1 11.9 2.3 0 5.4-1.2 6.8-3.6v3.3h4.3v-10.6c.2-7-5.4-11.9-11.9-11.4zm7.3 11.4c-.2 3.7-3.4 6.5-7.2 6-2.9-.4-5.2-2.7-5.6-5.6-.4-3.9 2.6-7.2 6.4-7.2 3.4 0 6.2 2.7 6.4 6.1z"/><path d="m100.5 6.2c-5.9.2-10.9 4.7-10.9 11.3 0 6 4.9 11.1 11.2 11.1 4.4 0 8.7-2.6 10.4-6.9l-4.3-1.3c-.8 1.8-2.7 3.3-4.8 3.7-3 .6-5.8-1.3-6.9-3.3l16.7-4.6c-.5-4.4-4.3-10.2-11.4-10zm-6.2 10.6c0-2.3 1.4-5 4.4-6.1 3.4-1.3 6.4.4 7.7 2.8z"/><path d="m63.8 10.7v-4.6c-4.2 0-5.6 2.1-6.3 3.2v-2.5h-4.8v10.2 11.1h4.9c0-6.6 0-6.5 0-10.5 0-4.8 2.8-6.7 6.2-6.9z"/><path d="m19.7 19.6-14.6-17.2h-5v25.7h5.2v-17.2l14.8 17.3h4.5v-25.8h-4.9z"/><path d="m86.7.1h-4.6v8.4c-1.1-1.4-4.5-2.6-7.4-2.3-5.5.4-9.9 4.9-10.3 10.4-.4 6.5 4.7 11.9 11.1 11.9 2.4 0 5.7-1.1 6.8-3.2v2.8h4.3v-10.6c0-.1 0-.1 0-.2s0-.1 0-.2zm-4.8 17.5c-.2 3.7-3.4 6.5-7.2 6-2.9-.4-5.2-2.7-5.6-5.6-.4-3.9 2.6-7.2 6.4-7.2 3.4 0 6.2 2.7 6.4 6.1z"/><path d="m38.7 6.1c-6.2 0-11.2 5-11.2 11.2s5 11.2 11.2 11.2 11.2-5 11.2-11.2c-.1-6.2-5.1-11.2-11.2-11.2zm0 17.6c-3.5 0-6.4-2.9-6.4-6.4s2.9-6.4 6.4-6.4 6.4 2.9 6.4 6.4c0 3.6-2.9 6.4-6.4 6.4z"/></g></svg>