<svg viewBox="0 0 150 21.97" xmlns="http://www.w3.org/2000/svg"><g fill="#253561" fill-rule="evenodd"><path d="m69.23 19.19c0 2-.64 2.68-2.54 2.68-1 0-2.13-.06-2.87-.13v-21.66h5.27l9.21 13.76a8.93 8.93 0 0 1 -.12-1.71v-12h5.42v21.61c-.91.09-2.22.13-3.46.13a3.51 3.51 0 0 1 -3.65-2c-.84-1.29-7.38-11.2-7.38-11.2a10.69 10.69 0 0 1 .12 2.14v8.4z"/><path d="m6.92.09c-5.05.23-6.92 3.18-6.92 6.42s2 6.49 7.15 6.6h4.61a2.08 2.08 0 1 1 0 4.15c-.76 0-8.13 0-8.13 0-2.63 0-3.4.74-3.4 3.27v1.34c2.52.06 6.9.14 12.1.07s7.31-3.43 7.31-6.88-2.2-6.82-7.3-6.91c-1.53 0-4.08 0-4.86 0a1.91 1.91 0 0 1 0-3.8c.79-.05 7.29 0 7.29 0 2.65 0 3.4-.75 3.4-3.27v-1c-1.48 0-7.39-.18-11.25 0"/><path d="m93.4.09c-5.06.23-6.92 3.19-6.92 6.42s2.05 6.49 7.15 6.6h4.61a2.08 2.08 0 1 1 0 4.15c-.76 0-8.13 0-8.13 0-2.65 0-3.4.75-3.4 3.27v1.34c2.52.06 6.9.14 12.1.07s7.31-3.43 7.31-6.88-2.2-6.82-7.3-6.91c-1.53 0-4.08 0-4.86 0a1.91 1.91 0 0 1 0-3.8c.79-.05 7.29 0 7.29 0 2.65 0 3.4-.75 3.4-3.27v-1c-1.48 0-7.39-.18-11.25 0"/><path d="m54.06 13.25-2.68-8.48-2.67 8.48a.33.33 0 0 1 .24-.07h4.86a.35.35 0 0 1 .25.07zm9.12 8.49c-.7 0-2.26.13-3.42.13-1.8 0-3.06-.24-3.58-1.89l-.75-2.37h-8.09l-.74 2.39c-.52 1.66-1.66 1.85-3.51 1.89-1.64 0-3.07 0-4.77 0s-2.64-.41-3.43-1.33l-7-8.12a.85.85 0 0 1 -.24-.44v7.23c0 2-.64 2.68-2.55 2.68-1 0-2.61-.06-3.36-.13v-21.7h5.9v9.83a1 1 0 0 1 .24-.6l7.12-9.23h7l-9 10.5 7.5 8.15a.75.75 0 0 1 .18.33 1.31 1.31 0 0 1 .08-.34l7.49-18.64h6.26z"/><path d="m140.88 13.25-2.68-8.48-2.67 8.48a.33.33 0 0 1 .24-.07h4.86a.35.35 0 0 1 .25.07zm9.12 8.49c-.7 0-2.26.13-3.42.13-1.81 0-3.06-.24-3.58-1.89l-.75-2.37h-8.08l-.75 2.39c-.52 1.66-1.66 1.85-3.51 1.89-1.64 0-3.07 0-4.77 0s-2.64-.41-3.43-1.33l-7-8.12a.87.87 0 0 1 -.24-.47v7.23c0 2-.64 2.68-2.55 2.68-1 0-2.61-.06-3.36-.13v-21.67h5.9v9.83a1 1 0 0 1 .24-.6l7.13-9.23h7l-9 10.49 7.5 8.15a.75.75 0 0 1 .18.33 1.25 1.25 0 0 1 .08-.34l7.46-18.64h6.26z"/></g></svg>