<?xml version="1.0" encoding="UTF-8"?>
<svg width="150px" height="22px" viewBox="0 0 150 22" version="1.1" xmlns="http://www.w3.org/2000/svg" xmlns:xlink="http://www.w3.org/1999/xlink">
    <!-- Generator: Sketch 60 (88103) - https://sketch.com -->
    <title>skanska</title>
    <desc>Created with Sketch.</desc>
    <g id="Page-1" stroke="none" stroke-width="1" fill="none" fill-rule="evenodd">
        <g id="skanska" fill="#FFFFFF">
            <path d="M69.23,19.19 C69.23,21.19 68.59,21.87 66.69,21.87 C65.69,21.87 64.56,21.81 63.82,21.74 L63.82,0.08 L69.09,0.08 L78.3,13.84 C78.2052573,13.2751669 78.1650722,12.7025293 78.18,12.13 L78.18,0.13 L83.6,0.13 L83.6,21.74 C82.69,21.83 81.38,21.87 80.14,21.87 C78.6166726,22.0743772 77.1375574,21.2639031 76.49,19.87 C75.65,18.58 69.11,8.67 69.11,8.67 C69.2215918,9.37751182 69.2617938,10.0944479 69.23,10.81 L69.23,19.21 L69.23,19.19 Z" id="Path"></path>
            <path d="M6.92,0.09 C1.87,0.32 0,3.27 0,6.51 C0,9.75 2,13 7.15,13.11 L11.76,13.11 C12.5357088,13.0561171 13.2766964,13.4394045 13.6809472,14.1036399 C14.0851981,14.7678754 14.0851981,15.6021246 13.6809472,16.2663601 C13.2766964,16.9305955 12.5357088,17.3138829 11.76,17.26 C11,17.26 3.63,17.26 3.63,17.26 C1,17.26 0.23,18 0.23,20.53 L0.23,21.87 C2.75,21.93 7.13,22.01 12.33,21.94 C17.53,21.87 19.64,18.51 19.64,15.06 C19.64,11.61 17.44,8.24 12.34,8.15 C10.81,8.15 8.26,8.15 7.48,8.15 C6.50583921,8.04992179 5.76519221,7.22928795 5.76519221,6.25 C5.76519221,5.27071205 6.50583921,4.45007821 7.48,4.35 C8.27,4.3 14.77,4.35 14.77,4.35 C17.42,4.35 18.17,3.6 18.17,1.08 L18.17,0.08 C16.69,0.08 10.78,-0.1 6.92,0.08" id="Path"></path>
            <path d="M93.4,0.09 C88.34,0.32 86.48,3.28 86.48,6.51 C86.48,9.74 88.53,13 93.63,13.11 L98.24,13.11 C99.0157088,13.0561171 99.7566964,13.4394045 100.160947,14.1036399 C100.565198,14.7678754 100.565198,15.6021246 100.160947,16.2663601 C99.7566964,16.9305955 99.0157088,17.3138829 98.24,17.26 C97.48,17.26 90.11,17.26 90.11,17.26 C87.46,17.26 86.71,18.01 86.71,20.53 L86.71,21.87 C89.23,21.93 93.61,22.01 98.81,21.94 C104.01,21.87 106.12,18.51 106.12,15.06 C106.12,11.61 103.92,8.24 98.82,8.15 C97.29,8.15 94.74,8.15 93.96,8.15 C92.9858392,8.04992179 92.2451922,7.22928795 92.2451922,6.25 C92.2451922,5.27071205 92.9858392,4.45007821 93.96,4.35 C94.75,4.3 101.25,4.35 101.25,4.35 C103.9,4.35 104.65,3.6 104.65,1.08 L104.65,0.08 C103.17,0.08 97.26,-0.1 93.4,0.08" id="Path"></path>
            <path d="M54.06,13.25 L51.38,4.77 L48.71,13.25 C48.7777236,13.1960939 48.8639156,13.1709546 48.95,13.18 L53.81,13.18 C53.8992257,13.1704211 53.988722,13.1954801 54.06,13.25 L54.06,13.25 Z M63.18,21.74 C62.48,21.74 60.92,21.87 59.76,21.87 C57.96,21.87 56.7,21.63 56.18,19.98 L55.43,17.61 L47.34,17.61 L46.6,20 C46.08,21.66 44.94,21.85 43.09,21.89 C41.45,21.89 40.02,21.89 38.32,21.89 C36.62,21.89 35.68,21.48 34.89,20.56 L27.89,12.44 C27.7675948,12.3207888 27.6839582,12.167455 27.65,12 L27.65,19.23 C27.65,21.23 27.01,21.91 25.1,21.91 C24.1,21.91 22.49,21.85 21.74,21.78 L21.74,0.08 L27.64,0.08 L27.64,9.91 C27.6513925,9.68895053 27.7358018,9.47792718 27.88,9.31 L35,0.08 L42,0.08 L33,10.58 L40.5,18.73 C40.5870401,18.8229368 40.6489856,18.9365037 40.68,19.06 C40.6913704,18.9436038 40.7182761,18.8292542 40.76,18.72 L48.25,0.08 L54.51,0.08 L63.18,21.74 Z" id="Shape"></path>
            <path d="M140.88,13.25 L138.2,4.77 L135.53,13.25 C135.597724,13.1960939 135.683916,13.1709546 135.77,13.18 L140.63,13.18 C140.719226,13.1704211 140.808722,13.1954801 140.88,13.25 L140.88,13.25 Z M150,21.74 C149.3,21.74 147.74,21.87 146.58,21.87 C144.77,21.87 143.52,21.63 143,19.98 L142.25,17.61 L134.17,17.61 L133.42,20 C132.9,21.66 131.76,21.85 129.91,21.89 C128.27,21.89 126.84,21.89 125.14,21.89 C123.44,21.89 122.5,21.48 121.71,20.56 L114.71,12.44 C114.583267,12.3119608 114.499408,12.1477367 114.47,11.97 L114.47,19.2 C114.47,21.2 113.83,21.88 111.92,21.88 C110.92,21.88 109.31,21.82 108.56,21.75 L108.56,0.08 L114.46,0.08 L114.46,9.91 C114.471392,9.68895053 114.555802,9.47792718 114.7,9.31 L121.83,0.08 L128.83,0.08 L119.83,10.57 L127.33,18.72 C127.41704,18.8129368 127.478986,18.9265037 127.51,19.05 C127.520623,18.9334811 127.547552,18.8190307 127.59,18.71 L135.05,0.07 L141.31,0.07 L150,21.74 Z" id="Shape"></path>
        </g>
    </g>
</svg>